<?xml version="1.0" encoding="UTF-8"?>
<!-- Generated by SVGo -->
<svg width="86.202mm" height="124.302mm" viewBox="0.000 0.000 86.202 124.302" xmlns="http://www.w3.org/2000/svg" xmlns:xlink="http://www.w3.org/1999/xlink">
<polygon points="81.202,119.302 5.001,119.302 5.001,5.001 81.202,5.001" style="fill:none;stroke-width:0.050000mm;stroke:black"/>
<polygon points="17.051,102.776 17.051,107.476 15.476,107.476 15.476,104.246 13.801,104.246 13.801,103.326 10.501,103.326 10.501,104.246 8.826,104.246 8.826,107.476 7.950,107.476 7.950,110.276 8.826,110.276 8.826,116.546 10.501,116.546 10.501,117.526 13.801,117.526 13.801,116.546 15.476,116.546 15.476,112.076 17.051,112.076 17.051,116.776 31.051,116.776 31.051,112.076 32.626,112.076 32.626,116.546 34.301,116.546 34.301,117.526 37.601,117.526 37.601,116.546 39.276,116.546 39.276,110.276 40.151,110.276 40.151,107.476 39.276,107.476 39.276,104.246 37.601,104.246 37.601,103.326 34.301,103.326 34.301,104.246 32.626,104.246 32.626,107.476 31.051,107.476 31.051,102.776" style="fill:none;stroke-width:0.050000mm;stroke:black"/>
<polygon points="45.626,102.776 45.626,116.776 59.626,116.776 59.626,102.776" style="fill:none;stroke-width:0.050000mm;stroke:black"/>
<polygon points="71.176,84.151 71.176,85.026 64.906,85.026 64.906,86.701 63.926,86.701 63.926,90.001 64.906,90.001 64.906,91.676 69.376,91.676 69.376,93.251 64.676,93.251 64.676,107.251 69.376,107.251 69.376,108.826 64.906,108.826 64.906,110.501 63.926,110.501 63.926,113.801 64.906,113.801 64.906,115.476 71.176,115.476 71.176,116.351 73.976,116.351 73.976,115.476 77.206,115.476 77.206,113.801 78.126,113.801 78.126,110.501 77.206,110.501 77.206,108.826 73.976,108.826 73.976,107.251 78.676,107.251 78.676,93.251 73.976,93.251 73.976,91.676 77.206,91.676 77.206,90.001 78.126,90.001 78.126,86.701 77.206,86.701 77.206,85.026 73.976,85.026 73.976,84.151" style="fill:none;stroke-width:0.050000mm;stroke:black"/>
<polygon points="7.526,83.726 7.526,97.726 21.526,97.726 21.526,83.726" style="fill:none;stroke-width:0.050000mm;stroke:black"/>
<polygon points="26.576,83.726 26.576,97.726 40.576,97.726 40.576,83.726" style="fill:none;stroke-width:0.050000mm;stroke:black"/>
<polygon points="45.626,83.726 45.626,97.726 59.626,97.726 59.626,83.726" style="fill:none;stroke-width:0.050000mm;stroke:black"/>
<polygon points="7.526,64.676 7.526,78.676 21.526,78.676 21.526,64.676" style="fill:none;stroke-width:0.050000mm;stroke:black"/>
<polygon points="26.576,64.676 26.576,78.676 40.576,78.676 40.576,64.676" style="fill:none;stroke-width:0.050000mm;stroke:black"/>
<polygon points="45.626,64.676 45.626,78.676 59.626,78.676 59.626,64.676" style="fill:none;stroke-width:0.050000mm;stroke:black"/>
<polygon points="64.676,59.913 64.676,73.913 78.676,73.913 78.676,59.913" style="fill:none;stroke-width:0.050000mm;stroke:black"/>
<polygon points="7.526,45.626 7.526,59.626 21.526,59.626 21.526,45.626" style="fill:none;stroke-width:0.050000mm;stroke:black"/>
<polygon points="26.576,45.626 26.576,59.626 40.576,59.626 40.576,45.626" style="fill:none;stroke-width:0.050000mm;stroke:black"/>
<polygon points="45.626,45.626 45.626,59.626 59.626,59.626 59.626,45.626" style="fill:none;stroke-width:0.050000mm;stroke:black"/>
<polygon points="64.676,31.338 64.676,45.338 78.676,45.338 78.676,31.338" style="fill:none;stroke-width:0.050000mm;stroke:black"/>
<polygon points="7.526,26.576 7.526,40.576 21.526,40.576 21.526,26.576" style="fill:none;stroke-width:0.050000mm;stroke:black"/>
<polygon points="26.576,26.576 26.576,40.576 40.576,40.576 40.576,26.576" style="fill:none;stroke-width:0.050000mm;stroke:black"/>
<polygon points="45.626,26.576 45.626,40.576 59.626,40.576 59.626,26.576" style="fill:none;stroke-width:0.050000mm;stroke:black"/>
<polygon points="9.907,7.526 9.907,21.526 23.907,21.526 23.907,7.526" style="fill:none;stroke-width:0.050000mm;stroke:black"/>
<polygon points="27.370,7.526 27.370,21.526 41.370,21.526 41.370,7.526" style="fill:none;stroke-width:0.050000mm;stroke:black"/>
<polygon points="44.833,7.526 44.833,21.526 58.833,21.526 58.833,7.526" style="fill:none;stroke-width:0.050000mm;stroke:black"/>
<polygon points="62.296,7.526 62.296,21.526 76.296,21.526 76.296,7.526" style="fill:none;stroke-width:0.050000mm;stroke:black"/>
</svg>