<?xml version="1.0" encoding="UTF-8"?>
<!-- Generated by SVGo -->
<svg width="105.252mm" height="86.202mm" viewBox="0.000 0.000 105.252 86.202" xmlns="http://www.w3.org/2000/svg" xmlns:xlink="http://www.w3.org/1999/xlink">
<polygon points="100.251,81.202 5.001,81.202 5.001,5.001 100.251,5.001" style="fill:none;stroke-width:0.050000mm;stroke:black"/>
<polygon points="19.432,64.676 19.432,78.676 33.432,78.676 33.432,64.676" style="fill:none;stroke-width:0.050000mm;stroke:black"/>
<polygon points="45.626,64.676 45.626,78.676 59.626,78.676 59.626,64.676" style="fill:none;stroke-width:0.050000mm;stroke:black"/>
<polygon points="71.819,64.676 71.819,78.676 85.819,78.676 85.819,64.676" style="fill:none;stroke-width:0.050000mm;stroke:black"/>
<polygon points="45.626,45.626 45.626,50.326 21.280,50.326 21.280,47.096 19.605,47.096 19.605,46.176 16.304,46.176 16.304,47.096 14.629,47.096 14.629,50.326 13.754,50.326 13.754,53.126 14.629,53.126 14.629,59.395 16.304,59.395 16.304,60.376 19.605,60.376 19.605,59.395 21.280,59.395 21.280,54.926 45.626,54.926 45.626,59.626 59.626,59.626 59.626,54.926 83.972,54.926 83.972,59.395 85.647,59.395 85.647,60.376 88.947,60.376 88.947,59.395 90.622,59.395 90.622,53.126 91.497,53.126 91.497,50.326 90.622,50.326 90.622,47.096 88.947,47.096 88.947,46.176 85.647,46.176 85.647,47.096 83.972,47.096 83.972,50.326 59.626,50.326 59.626,45.626" style="fill:none;stroke-width:0.050000mm;stroke:black"/>
<polygon points="7.526,26.576 7.526,40.576 21.526,40.576 21.526,26.576" style="fill:none;stroke-width:0.050000mm;stroke:black"/>
<polygon points="26.576,26.576 26.576,40.576 40.576,40.576 40.576,26.576" style="fill:none;stroke-width:0.050000mm;stroke:black"/>
<polygon points="36.101,7.526 36.101,21.526 48.950,21.526 48.930,21.570 48.822,21.865 48.737,22.167 48.675,22.475 48.638,22.787 48.626,23.101 48.638,23.415 48.675,23.727 48.737,24.035 48.822,24.337 48.930,24.632 49.062,24.917 49.215,25.191 49.390,25.452 49.584,25.699 49.798,25.929 50.028,26.143 50.275,26.337 50.536,26.512 50.651,26.576 45.626,26.576 45.626,40.576 59.626,40.576 59.626,26.576 54.601,26.576 54.716,26.512 54.977,26.337 55.224,26.143 55.454,25.929 55.668,25.699 55.862,25.452 56.037,25.191 56.190,24.917 56.322,24.632 56.430,24.337 56.515,24.035 56.577,23.727 56.614,23.415 56.626,23.101 56.614,22.787 56.577,22.475 56.515,22.167 56.430,21.865 56.322,21.570 56.302,21.526 69.151,21.526 69.151,7.526 55.151,7.526 55.151,20.002 54.977,19.865 54.716,19.690 54.442,19.537 54.157,19.405 53.862,19.297 53.560,19.212 53.252,19.150 52.940,19.113 52.626,19.101 52.312,19.113 52.000,19.150 51.692,19.212 51.390,19.297 51.095,19.405 50.810,19.537 50.536,19.690 50.275,19.865 50.101,20.002 50.101,7.526" style="fill:none;stroke-width:0.050000mm;stroke:black"/>
<polygon points="64.676,26.576 64.676,40.576 78.676,40.576 78.676,26.576" style="fill:none;stroke-width:0.050000mm;stroke:black"/>
<polygon points="83.726,26.576 83.726,40.576 97.726,40.576 97.726,26.576" style="fill:none;stroke-width:0.050000mm;stroke:black"/>
<polygon points="17.051,7.526 17.051,21.526 31.051,21.526 31.051,7.526" style="fill:none;stroke-width:0.050000mm;stroke:black"/>
<polygon points="74.201,7.526 74.201,21.526 88.201,21.526 88.201,7.526" style="fill:none;stroke-width:0.050000mm;stroke:black"/>
</svg>