M48
;DRILL file {KiCad 4.0.5} date Sun Feb 26 02:23:36 2017
;FORMAT={-:-/ absolute / inch / decimal}
FMAT,2
INCH,TZ
T1C0.016
T2C0.024
T3C0.026
T4C0.039
T5C0.059
T6C0.126
%
G90
G05
M72
T1
X2.9331Y-3.6122
X2.9429Y-2.8445
X2.945Y-3.7216
X3.002Y-2.7854
X3.0289Y-3.6825
X3.067Y-3.6792
X3.1458Y-3.6416
X3.1906Y-5.4762
X3.4828Y-3.7792
X3.6122Y-3.5925
X3.6184Y-2.9269
X3.622Y-3.7303
X3.622Y-5.1378
X3.6372Y-3.6758
X3.7075Y-3.6713
X3.7402Y-2.8472
X3.9351Y-2.4832
X3.9469Y-3.9665
X3.9561Y-3.3144
X4.0792Y-4.8012
X4.1339Y-3.7402
X4.2372Y-5.4541
X4.2588Y-3.6882
X4.2618Y-3.0805
X4.3504Y-3.4704
X4.3522Y-3.6068
X4.4094Y-2.9232
X4.4201Y-2.7961
X4.4806Y-3.6358
X4.6457Y-2.1063
X4.7146Y-2.2343
X4.7303Y-3.6851
X4.7589Y-3.3161
X4.7635Y-3.4554
X4.8141Y-3.7255
X4.8598Y-4.9803
X4.8661Y-3.5236
X4.9213Y-3.5531
X4.9847Y-3.4488
X4.999Y-3.7233
X5.0245Y-4.6905
X5.0984Y-2.9331
X5.1181Y-3.7795
X5.1378Y-4.202
X5.1476Y-3.934
X5.1654Y-3.313
X5.2185Y-3.9427
X5.2205Y-3.2131
X5.2984Y-4.4193
T2
X2.8642Y-3.8878
X3.0512Y-3.8878
X3.3563Y-3.8878
X3.5354Y-5.565
X3.6024Y-3.9075
X3.6811Y-2.7756
X3.7402Y-2.2539
X3.8189Y-3.9075
X4.1535Y-3.9075
X4.5433Y-5.6594
X4.5472Y-4.0453
X4.8425Y-2.3622
T3
X4.6358Y-3.8287
X4.6358Y-3.8787
X4.6358Y-3.9287
X4.8228Y-2.6575
X4.8228Y-2.7075
X4.9Y-2.6575
X4.9114Y-4.8327
X4.9114Y-4.8827
X4.95Y-2.6575
X4.9886Y-4.8327
X5.Y-2.6575
X5.0386Y-4.8327
X5.0886Y-4.8327
T4
X5.2362Y-1.9094
X5.2362Y-2.0094
X5.2362Y-2.1094
X5.2362Y-2.2094
X5.2362Y-2.3094
X5.2362Y-2.4094
X5.2362Y-2.5094
X5.2362Y-2.6094
X5.2461Y-4.498
X5.2461Y-4.598
X5.2461Y-4.698
X5.2461Y-4.798
X5.2461Y-4.898
X5.2461Y-4.998
X5.3346Y-2.8051
X5.3346Y-2.9051
X5.3346Y-3.0051
X5.3346Y-3.1051
X5.3346Y-3.2051
X5.3346Y-3.3051
X5.3346Y-3.4051
X5.3346Y-3.5051
X5.3346Y-3.6051
X5.3346Y-3.7051
X5.3346Y-3.8051
X5.3346Y-3.9051
X5.3346Y-4.0051
X5.3346Y-4.1051
X5.3346Y-4.2051
T5
X2.6059Y-2.6559
X2.6059Y-3.4039
X2.6059Y-4.152
X2.6059Y-4.9
X2.6994Y-1.9079
X2.8559Y-2.5559
X2.8559Y-3.3039
X2.8559Y-4.052
X2.8559Y-4.8
X2.9494Y-1.8079
X2.9799Y-5.648
X3.2299Y-5.548
X3.3539Y-2.6559
X3.3539Y-3.4039
X3.3539Y-4.152
X3.3539Y-4.9
X3.3851Y-1.9079
X3.6039Y-2.5559
X3.6039Y-3.3039
X3.6039Y-4.052
X3.6039Y-4.8
X3.6351Y-1.8079
X4.0708Y-1.9079
X4.102Y-2.6559
X4.102Y-3.4039
X4.102Y-4.152
X4.102Y-4.9
X4.102Y-5.648
X4.3208Y-1.8079
X4.352Y-2.5559
X4.352Y-3.3039
X4.352Y-4.052
X4.352Y-4.8
X4.352Y-5.548
X4.7565Y-1.9079
X4.8Y-2.8429
X4.8Y-3.965
X4.8Y-5.274
X4.9Y-3.0929
X4.9Y-4.215
X4.9Y-5.524
X5.0065Y-1.8079
T6
X2.5Y-1.7913
X2.5394Y-5.9252
X5.2165Y-5.9252
T0
M30
