G04 #@! TF.FileFunction,Paste,Top*
%FSLAX46Y46*%
G04 Gerber Fmt 4.6, Leading zero omitted, Abs format (unit mm)*
G04 Created by KiCad (PCBNEW 4.0.5) date Sun Feb 26 02:23:34 2017*
%MOMM*%
%LPD*%
G01*
G04 APERTURE LIST*
%ADD10C,0.100000*%
%ADD11R,1.450000X0.600000*%
%ADD12R,1.450000X2.900000*%
%ADD13R,1.450000X0.800000*%
%ADD14R,0.600000X1.450000*%
%ADD15R,2.900000X1.450000*%
%ADD16R,0.800000X1.450000*%
G04 APERTURE END LIST*
D10*
D11*
X91275000Y-55500000D03*
D12*
X88225000Y-55500000D03*
D13*
X91275000Y-56550000D03*
X91275000Y-54450000D03*
D11*
X126025000Y-55500000D03*
D12*
X122975000Y-55500000D03*
D13*
X126025000Y-56550000D03*
X126025000Y-54450000D03*
D11*
X71525000Y-74500000D03*
D12*
X68475000Y-74500000D03*
D13*
X71525000Y-75550000D03*
X71525000Y-73450000D03*
D11*
X90525000Y-74500000D03*
D12*
X87475000Y-74500000D03*
D13*
X90525000Y-75550000D03*
X90525000Y-73450000D03*
D11*
X109525000Y-74500000D03*
D12*
X106475000Y-74500000D03*
D13*
X109525000Y-75550000D03*
X109525000Y-73450000D03*
D11*
X71525000Y-93500000D03*
D12*
X68475000Y-93500000D03*
D13*
X71525000Y-94550000D03*
X71525000Y-92450000D03*
D11*
X90525000Y-93500000D03*
D12*
X87475000Y-93500000D03*
D13*
X90525000Y-94550000D03*
X90525000Y-92450000D03*
D11*
X109525000Y-93500000D03*
D12*
X106475000Y-93500000D03*
D13*
X109525000Y-94550000D03*
X109525000Y-92450000D03*
D11*
X71525000Y-112500000D03*
D12*
X68475000Y-112500000D03*
D13*
X71525000Y-113550000D03*
X71525000Y-111450000D03*
D11*
X90525000Y-112500000D03*
D12*
X87475000Y-112500000D03*
D13*
X90525000Y-113550000D03*
X90525000Y-111450000D03*
D11*
X109525000Y-112500000D03*
D12*
X106475000Y-112500000D03*
D13*
X109525000Y-113550000D03*
X109525000Y-111450000D03*
D11*
X71525000Y-131500000D03*
D12*
X68475000Y-131500000D03*
D13*
X71525000Y-132550000D03*
X71525000Y-130450000D03*
D11*
X90525000Y-131500000D03*
D12*
X87475000Y-131500000D03*
D13*
X90525000Y-132550000D03*
X90525000Y-130450000D03*
D11*
X109525000Y-131500000D03*
D12*
X106475000Y-131500000D03*
D13*
X109525000Y-132550000D03*
X109525000Y-130450000D03*
D11*
X81025000Y-150500000D03*
D12*
X77975000Y-150500000D03*
D13*
X81025000Y-151550000D03*
X81025000Y-149450000D03*
D11*
X109525000Y-150500000D03*
D12*
X106475000Y-150500000D03*
D13*
X109525000Y-151550000D03*
X109525000Y-149450000D03*
D14*
X131500000Y-134975000D03*
D15*
X131500000Y-138025000D03*
D16*
X132550000Y-134975000D03*
X130450000Y-134975000D03*
D11*
X74025000Y-55500000D03*
D12*
X70975000Y-55500000D03*
D13*
X74025000Y-56550000D03*
X74025000Y-54450000D03*
D11*
X108775000Y-55500000D03*
D12*
X105725000Y-55500000D03*
D13*
X108775000Y-56550000D03*
X108775000Y-54450000D03*
D14*
X131500000Y-73225000D03*
X131500000Y-76275000D03*
D16*
X132550000Y-76275000D03*
X130450000Y-76275000D03*
X132550000Y-73225000D03*
X130450000Y-73225000D03*
D14*
X131500000Y-101725000D03*
X131500000Y-104775000D03*
D16*
X132550000Y-104775000D03*
X130450000Y-104775000D03*
X132550000Y-101725000D03*
X130450000Y-101725000D03*
M02*
