M48
;DRILL file {KiCad 4.0.5} date Sun Feb 26 02:23:36 2017
;FORMAT={-:-/ absolute / inch / decimal}
FMAT,2
INCH,TZ
T1C0.157
%
G90
G05
M72
T1
X2.7559Y-2.7559
X2.7559Y-3.5039
X2.7559Y-4.252
X2.7559Y-5.
X2.8494Y-2.0079
X3.1299Y-5.748
X3.5039Y-2.7559
X3.5039Y-3.5039
X3.5039Y-4.252
X3.5039Y-5.
X3.5351Y-2.0079
X4.2208Y-2.0079
X4.252Y-2.7559
X4.252Y-3.5039
X4.252Y-4.252
X4.252Y-5.
X4.252Y-5.748
X4.9065Y-2.0079
X5.Y-2.9429
X5.Y-4.065
X5.Y-5.374
T0
M30
