G04 #@! TF.FileFunction,Legend,Bot*
%FSLAX46Y46*%
G04 Gerber Fmt 4.6, Leading zero omitted, Abs format (unit mm)*
G04 Created by KiCad (PCBNEW 4.0.5) date Sun Feb 26 02:23:34 2017*
%MOMM*%
%LPD*%
G01*
G04 APERTURE LIST*
%ADD10C,0.100000*%
%ADD11C,0.120000*%
%ADD12C,0.150000*%
G04 APERTURE END LIST*
D10*
D11*
X65750000Y-57500000D02*
X63750000Y-57500000D01*
X63750000Y-57500000D02*
X63750000Y-53600000D01*
X65750000Y-57500000D02*
X65750000Y-53600000D01*
X82000000Y-52750000D02*
X82000000Y-50750000D01*
X82000000Y-50750000D02*
X85900000Y-50750000D01*
X82000000Y-52750000D02*
X85900000Y-52750000D01*
X99750000Y-52500000D02*
X99750000Y-50500000D01*
X99750000Y-50500000D02*
X103650000Y-50500000D01*
X99750000Y-52500000D02*
X103650000Y-52500000D01*
X116750000Y-52500000D02*
X116750000Y-50500000D01*
X116750000Y-50500000D02*
X120650000Y-50500000D01*
X116750000Y-52500000D02*
X120650000Y-52500000D01*
X62250000Y-65250000D02*
X62250000Y-63250000D01*
X62250000Y-63250000D02*
X66150000Y-63250000D01*
X62250000Y-65250000D02*
X66150000Y-65250000D01*
X81500000Y-62000000D02*
X83500000Y-62000000D01*
X83500000Y-62000000D02*
X83500000Y-65900000D01*
X81500000Y-62000000D02*
X81500000Y-65900000D01*
X100500000Y-63000000D02*
X102500000Y-63000000D01*
X102500000Y-63000000D02*
X102500000Y-66900000D01*
X100500000Y-63000000D02*
X100500000Y-66900000D01*
X128500000Y-82500000D02*
X126500000Y-82500000D01*
X126500000Y-82500000D02*
X126500000Y-78600000D01*
X128500000Y-82500000D02*
X128500000Y-78600000D01*
X62250000Y-84500000D02*
X62250000Y-82500000D01*
X62250000Y-82500000D02*
X66150000Y-82500000D01*
X62250000Y-84500000D02*
X66150000Y-84500000D01*
X81500000Y-81000000D02*
X83500000Y-81000000D01*
X83500000Y-81000000D02*
X83500000Y-84900000D01*
X81500000Y-81000000D02*
X81500000Y-84900000D01*
X100500000Y-82000000D02*
X102500000Y-82000000D01*
X102500000Y-82000000D02*
X102500000Y-85900000D01*
X100500000Y-82000000D02*
X100500000Y-85900000D01*
X62250000Y-103500000D02*
X62250000Y-101500000D01*
X62250000Y-101500000D02*
X66150000Y-101500000D01*
X62250000Y-103500000D02*
X66150000Y-103500000D01*
X81500000Y-100250000D02*
X83500000Y-100250000D01*
X83500000Y-100250000D02*
X83500000Y-104150000D01*
X81500000Y-100250000D02*
X81500000Y-104150000D01*
X100500000Y-100250000D02*
X102500000Y-100250000D01*
X102500000Y-100250000D02*
X102500000Y-104150000D01*
X100500000Y-100250000D02*
X100500000Y-104150000D01*
X119750000Y-105000000D02*
X119750000Y-103000000D01*
X119750000Y-103000000D02*
X123650000Y-103000000D01*
X119750000Y-105000000D02*
X123650000Y-105000000D01*
X62250000Y-128250000D02*
X62250000Y-126250000D01*
X62250000Y-126250000D02*
X66150000Y-126250000D01*
X62250000Y-128250000D02*
X66150000Y-128250000D01*
X81500000Y-119000000D02*
X83500000Y-119000000D01*
X83500000Y-119000000D02*
X83500000Y-122900000D01*
X81500000Y-119000000D02*
X81500000Y-122900000D01*
X100500000Y-119000000D02*
X102500000Y-119000000D01*
X102500000Y-119000000D02*
X102500000Y-122900000D01*
X100500000Y-119000000D02*
X100500000Y-122900000D01*
X69750000Y-142250000D02*
X69750000Y-140250000D01*
X69750000Y-140250000D02*
X73650000Y-140250000D01*
X69750000Y-142250000D02*
X73650000Y-142250000D01*
X100500000Y-138500000D02*
X102500000Y-138500000D01*
X102500000Y-138500000D02*
X102500000Y-142400000D01*
X100500000Y-138500000D02*
X100500000Y-142400000D01*
X117750000Y-141250000D02*
X117750000Y-139250000D01*
X117750000Y-139250000D02*
X121650000Y-139250000D01*
X117750000Y-141250000D02*
X121650000Y-141250000D01*
D12*
X130025000Y-86925000D02*
X130000000Y-86925000D01*
X121975000Y-86925000D02*
X122000000Y-86925000D01*
X121975000Y-91575000D02*
X122000000Y-91575000D01*
X130075000Y-92650000D02*
X130075000Y-86925000D01*
X121975000Y-91575000D02*
X121975000Y-86925000D01*
D11*
X122060000Y-121995000D02*
X122060000Y-123385000D01*
X122060000Y-123385000D02*
X120820000Y-123385000D01*
X120820000Y-123385000D02*
X120820000Y-121995000D01*
X120820000Y-121995000D02*
X122060000Y-121995000D01*
X120820000Y-122430000D02*
X120820000Y-123070000D01*
X120820000Y-123070000D02*
X117010000Y-123070000D01*
X117010000Y-123070000D02*
X117010000Y-122430000D01*
X117010000Y-122430000D02*
X120820000Y-122430000D01*
X124130000Y-122430000D02*
X122060000Y-122430000D01*
X124130000Y-123070000D02*
X122060000Y-123070000D01*
X120820000Y-122550000D02*
X117010000Y-122550000D01*
X120820000Y-122670000D02*
X117010000Y-122670000D01*
X120820000Y-122790000D02*
X117010000Y-122790000D01*
X120820000Y-122910000D02*
X117010000Y-122910000D01*
X120820000Y-123030000D02*
X117010000Y-123030000D01*
X122060000Y-123385000D02*
X122060000Y-124775000D01*
X122060000Y-124775000D02*
X120820000Y-124775000D01*
X120820000Y-124775000D02*
X120820000Y-123385000D01*
X120820000Y-123385000D02*
X122060000Y-123385000D01*
X120820000Y-123700000D02*
X120820000Y-124340000D01*
X120820000Y-124340000D02*
X117010000Y-124340000D01*
X117010000Y-124340000D02*
X117010000Y-123700000D01*
X117010000Y-123700000D02*
X120820000Y-123700000D01*
X124130000Y-123700000D02*
X122060000Y-123700000D01*
X124130000Y-124340000D02*
X122060000Y-124340000D01*
X125385000Y-122750000D02*
X125385000Y-122115000D01*
X125385000Y-122115000D02*
X124750000Y-122115000D01*
X130005000Y-120060000D02*
X128615000Y-120060000D01*
X128615000Y-120060000D02*
X128615000Y-118820000D01*
X128615000Y-118820000D02*
X130005000Y-118820000D01*
X130005000Y-118820000D02*
X130005000Y-120060000D01*
X129570000Y-118820000D02*
X128930000Y-118820000D01*
X128930000Y-118820000D02*
X128930000Y-115010000D01*
X128930000Y-115010000D02*
X129570000Y-115010000D01*
X129570000Y-115010000D02*
X129570000Y-118820000D01*
X129570000Y-122130000D02*
X129570000Y-120060000D01*
X128930000Y-122130000D02*
X128930000Y-120060000D01*
X129450000Y-118820000D02*
X129450000Y-115010000D01*
X129330000Y-118820000D02*
X129330000Y-115010000D01*
X129210000Y-118820000D02*
X129210000Y-115010000D01*
X129090000Y-118820000D02*
X129090000Y-115010000D01*
X128970000Y-118820000D02*
X128970000Y-115010000D01*
X128615000Y-120060000D02*
X127345000Y-120060000D01*
X127345000Y-120060000D02*
X127345000Y-118820000D01*
X127345000Y-118820000D02*
X128615000Y-118820000D01*
X128615000Y-118820000D02*
X128615000Y-120060000D01*
X128300000Y-118820000D02*
X127660000Y-118820000D01*
X127660000Y-118820000D02*
X127660000Y-115010000D01*
X127660000Y-115010000D02*
X128300000Y-115010000D01*
X128300000Y-115010000D02*
X128300000Y-118820000D01*
X128300000Y-122130000D02*
X128300000Y-120060000D01*
X127660000Y-122130000D02*
X127660000Y-120060000D01*
X127345000Y-120060000D02*
X125955000Y-120060000D01*
X125955000Y-120060000D02*
X125955000Y-118820000D01*
X125955000Y-118820000D02*
X127345000Y-118820000D01*
X127345000Y-118820000D02*
X127345000Y-120060000D01*
X127030000Y-118820000D02*
X126390000Y-118820000D01*
X126390000Y-118820000D02*
X126390000Y-115010000D01*
X126390000Y-115010000D02*
X127030000Y-115010000D01*
X127030000Y-115010000D02*
X127030000Y-118820000D01*
X127030000Y-122130000D02*
X127030000Y-120060000D01*
X126390000Y-122130000D02*
X126390000Y-120060000D01*
X129250000Y-123385000D02*
X129885000Y-123385000D01*
X129885000Y-123385000D02*
X129885000Y-122750000D01*
X115060000Y-96495000D02*
X115060000Y-97885000D01*
X115060000Y-97885000D02*
X113820000Y-97885000D01*
X113820000Y-97885000D02*
X113820000Y-96495000D01*
X113820000Y-96495000D02*
X115060000Y-96495000D01*
X113820000Y-96930000D02*
X113820000Y-97570000D01*
X113820000Y-97570000D02*
X110010000Y-97570000D01*
X110010000Y-97570000D02*
X110010000Y-96930000D01*
X110010000Y-96930000D02*
X113820000Y-96930000D01*
X117130000Y-96930000D02*
X115060000Y-96930000D01*
X117130000Y-97570000D02*
X115060000Y-97570000D01*
X113820000Y-97050000D02*
X110010000Y-97050000D01*
X113820000Y-97170000D02*
X110010000Y-97170000D01*
X113820000Y-97290000D02*
X110010000Y-97290000D01*
X113820000Y-97410000D02*
X110010000Y-97410000D01*
X113820000Y-97530000D02*
X110010000Y-97530000D01*
X115060000Y-97885000D02*
X115060000Y-99155000D01*
X115060000Y-99155000D02*
X113820000Y-99155000D01*
X113820000Y-99155000D02*
X113820000Y-97885000D01*
X113820000Y-97885000D02*
X115060000Y-97885000D01*
X113820000Y-98200000D02*
X113820000Y-98840000D01*
X113820000Y-98840000D02*
X110010000Y-98840000D01*
X110010000Y-98840000D02*
X110010000Y-98200000D01*
X110010000Y-98200000D02*
X113820000Y-98200000D01*
X117130000Y-98200000D02*
X115060000Y-98200000D01*
X117130000Y-98840000D02*
X115060000Y-98840000D01*
X115060000Y-99155000D02*
X115060000Y-100545000D01*
X115060000Y-100545000D02*
X113820000Y-100545000D01*
X113820000Y-100545000D02*
X113820000Y-99155000D01*
X113820000Y-99155000D02*
X115060000Y-99155000D01*
X113820000Y-99470000D02*
X113820000Y-100110000D01*
X113820000Y-100110000D02*
X110010000Y-100110000D01*
X110010000Y-100110000D02*
X110010000Y-99470000D01*
X110010000Y-99470000D02*
X113820000Y-99470000D01*
X117130000Y-99470000D02*
X115060000Y-99470000D01*
X117130000Y-100110000D02*
X115060000Y-100110000D01*
X118385000Y-97250000D02*
X118385000Y-96615000D01*
X118385000Y-96615000D02*
X117750000Y-96615000D01*
X127755000Y-64810000D02*
X126365000Y-64810000D01*
X126365000Y-64810000D02*
X126365000Y-63570000D01*
X126365000Y-63570000D02*
X127755000Y-63570000D01*
X127755000Y-63570000D02*
X127755000Y-64810000D01*
X127320000Y-63570000D02*
X126680000Y-63570000D01*
X126680000Y-63570000D02*
X126680000Y-59760000D01*
X126680000Y-59760000D02*
X127320000Y-59760000D01*
X127320000Y-59760000D02*
X127320000Y-63570000D01*
X127320000Y-66880000D02*
X127320000Y-64810000D01*
X126680000Y-66880000D02*
X126680000Y-64810000D01*
X127200000Y-63570000D02*
X127200000Y-59760000D01*
X127080000Y-63570000D02*
X127080000Y-59760000D01*
X126960000Y-63570000D02*
X126960000Y-59760000D01*
X126840000Y-63570000D02*
X126840000Y-59760000D01*
X126720000Y-63570000D02*
X126720000Y-59760000D01*
X126365000Y-64810000D02*
X125095000Y-64810000D01*
X125095000Y-64810000D02*
X125095000Y-63570000D01*
X125095000Y-63570000D02*
X126365000Y-63570000D01*
X126365000Y-63570000D02*
X126365000Y-64810000D01*
X126050000Y-63570000D02*
X125410000Y-63570000D01*
X125410000Y-63570000D02*
X125410000Y-59760000D01*
X125410000Y-59760000D02*
X126050000Y-59760000D01*
X126050000Y-59760000D02*
X126050000Y-63570000D01*
X126050000Y-66880000D02*
X126050000Y-64810000D01*
X125410000Y-66880000D02*
X125410000Y-64810000D01*
X125095000Y-64810000D02*
X123705000Y-64810000D01*
X123705000Y-64810000D02*
X123705000Y-63570000D01*
X123705000Y-63570000D02*
X125095000Y-63570000D01*
X125095000Y-63570000D02*
X125095000Y-64810000D01*
X124780000Y-63570000D02*
X124140000Y-63570000D01*
X124140000Y-63570000D02*
X124140000Y-59760000D01*
X124140000Y-59760000D02*
X124780000Y-59760000D01*
X124780000Y-59760000D02*
X124780000Y-63570000D01*
X124780000Y-66880000D02*
X124780000Y-64810000D01*
X124140000Y-66880000D02*
X124140000Y-64810000D01*
X127000000Y-68135000D02*
X127635000Y-68135000D01*
X127635000Y-68135000D02*
X127635000Y-67500000D01*
X119810000Y-66745000D02*
X119810000Y-68135000D01*
X119810000Y-68135000D02*
X118570000Y-68135000D01*
X118570000Y-68135000D02*
X118570000Y-66745000D01*
X118570000Y-66745000D02*
X119810000Y-66745000D01*
X118570000Y-67180000D02*
X118570000Y-67820000D01*
X118570000Y-67820000D02*
X114760000Y-67820000D01*
X114760000Y-67820000D02*
X114760000Y-67180000D01*
X114760000Y-67180000D02*
X118570000Y-67180000D01*
X121880000Y-67180000D02*
X119810000Y-67180000D01*
X121880000Y-67820000D02*
X119810000Y-67820000D01*
X118570000Y-68570000D02*
X114760000Y-68570000D01*
X118570000Y-68690000D02*
X114760000Y-68690000D01*
X118570000Y-68810000D02*
X114760000Y-68810000D01*
X118570000Y-68930000D02*
X114760000Y-68930000D01*
X118570000Y-69050000D02*
X114760000Y-69050000D01*
X119810000Y-68135000D02*
X119810000Y-69525000D01*
X119810000Y-69525000D02*
X118570000Y-69525000D01*
X118570000Y-69525000D02*
X118570000Y-68135000D01*
X118570000Y-68135000D02*
X119810000Y-68135000D01*
X118570000Y-68450000D02*
X118570000Y-69090000D01*
X118570000Y-69090000D02*
X114760000Y-69090000D01*
X114760000Y-69090000D02*
X114760000Y-68450000D01*
X114760000Y-68450000D02*
X118570000Y-68450000D01*
X121880000Y-68450000D02*
X119810000Y-68450000D01*
X121880000Y-69090000D02*
X119810000Y-69090000D01*
X123135000Y-68770000D02*
X123135000Y-69405000D01*
X123135000Y-69405000D02*
X122500000Y-69405000D01*
X118000000Y-86820000D02*
X117000000Y-86820000D01*
X117000000Y-88180000D02*
X118000000Y-88180000D01*
X118000000Y-88570000D02*
X117000000Y-88570000D01*
X117000000Y-89930000D02*
X118000000Y-89930000D01*
X118000000Y-90320000D02*
X117000000Y-90320000D01*
X117000000Y-91680000D02*
X118000000Y-91680000D01*
X127750000Y-84070000D02*
X126750000Y-84070000D01*
X126750000Y-85430000D02*
X127750000Y-85430000D01*
D12*
X97000000Y-144750000D02*
X87000000Y-144750000D01*
X94750000Y-151250000D02*
G75*
G02X89250000Y-151250000I-2750000J2250000D01*
G01*
X94983412Y-150745261D02*
G75*
G02X94750000Y-151250000I-1733412J495261D01*
G01*
X94500000Y-149750000D02*
G75*
G02X95000000Y-150750000I-250000J-750000D01*
G01*
X89235646Y-151259569D02*
G75*
G02X89000000Y-150750000I1514354J1009569D01*
G01*
X89015975Y-150793610D02*
G75*
G02X89500000Y-149750000I734025J293610D01*
G01*
X85750000Y-146000000D02*
G75*
G02X87000000Y-144750000I1250000J0D01*
G01*
X97000000Y-144750000D02*
G75*
G02X98250000Y-146000000I0J-1250000D01*
G01*
X89353553Y-148750000D02*
G75*
G03X89353553Y-148750000I-353553J0D01*
G01*
X95353553Y-148750000D02*
G75*
G03X95353553Y-148750000I-353553J0D01*
G01*
X94500000Y-149750000D02*
X89500000Y-149750000D01*
X67202381Y-54511905D02*
X66202381Y-54511905D01*
X66202381Y-54750000D01*
X66250000Y-54892858D01*
X66345238Y-54988096D01*
X66440476Y-55035715D01*
X66630952Y-55083334D01*
X66773810Y-55083334D01*
X66964286Y-55035715D01*
X67059524Y-54988096D01*
X67154762Y-54892858D01*
X67202381Y-54750000D01*
X67202381Y-54511905D01*
X66202381Y-55702381D02*
X66202381Y-55797620D01*
X66250000Y-55892858D01*
X66297619Y-55940477D01*
X66392857Y-55988096D01*
X66583333Y-56035715D01*
X66821429Y-56035715D01*
X67011905Y-55988096D01*
X67107143Y-55940477D01*
X67154762Y-55892858D01*
X67202381Y-55797620D01*
X67202381Y-55702381D01*
X67154762Y-55607143D01*
X67107143Y-55559524D01*
X67011905Y-55511905D01*
X66821429Y-55464286D01*
X66583333Y-55464286D01*
X66392857Y-55511905D01*
X66297619Y-55559524D01*
X66250000Y-55607143D01*
X66202381Y-55702381D01*
X84988095Y-54202381D02*
X84988095Y-53202381D01*
X84750000Y-53202381D01*
X84607142Y-53250000D01*
X84511904Y-53345238D01*
X84464285Y-53440476D01*
X84416666Y-53630952D01*
X84416666Y-53773810D01*
X84464285Y-53964286D01*
X84511904Y-54059524D01*
X84607142Y-54154762D01*
X84750000Y-54202381D01*
X84988095Y-54202381D01*
X83464285Y-54202381D02*
X84035714Y-54202381D01*
X83750000Y-54202381D02*
X83750000Y-53202381D01*
X83845238Y-53345238D01*
X83940476Y-53440476D01*
X84035714Y-53488095D01*
X102738095Y-53952381D02*
X102738095Y-52952381D01*
X102500000Y-52952381D01*
X102357142Y-53000000D01*
X102261904Y-53095238D01*
X102214285Y-53190476D01*
X102166666Y-53380952D01*
X102166666Y-53523810D01*
X102214285Y-53714286D01*
X102261904Y-53809524D01*
X102357142Y-53904762D01*
X102500000Y-53952381D01*
X102738095Y-53952381D01*
X101785714Y-53047619D02*
X101738095Y-53000000D01*
X101642857Y-52952381D01*
X101404761Y-52952381D01*
X101309523Y-53000000D01*
X101261904Y-53047619D01*
X101214285Y-53142857D01*
X101214285Y-53238095D01*
X101261904Y-53380952D01*
X101833333Y-53952381D01*
X101214285Y-53952381D01*
X119738095Y-53952381D02*
X119738095Y-52952381D01*
X119500000Y-52952381D01*
X119357142Y-53000000D01*
X119261904Y-53095238D01*
X119214285Y-53190476D01*
X119166666Y-53380952D01*
X119166666Y-53523810D01*
X119214285Y-53714286D01*
X119261904Y-53809524D01*
X119357142Y-53904762D01*
X119500000Y-53952381D01*
X119738095Y-53952381D01*
X118833333Y-52952381D02*
X118214285Y-52952381D01*
X118547619Y-53333333D01*
X118404761Y-53333333D01*
X118309523Y-53380952D01*
X118261904Y-53428571D01*
X118214285Y-53523810D01*
X118214285Y-53761905D01*
X118261904Y-53857143D01*
X118309523Y-53904762D01*
X118404761Y-53952381D01*
X118690476Y-53952381D01*
X118785714Y-53904762D01*
X118833333Y-53857143D01*
X65238095Y-66702381D02*
X65238095Y-65702381D01*
X65000000Y-65702381D01*
X64857142Y-65750000D01*
X64761904Y-65845238D01*
X64714285Y-65940476D01*
X64666666Y-66130952D01*
X64666666Y-66273810D01*
X64714285Y-66464286D01*
X64761904Y-66559524D01*
X64857142Y-66654762D01*
X65000000Y-66702381D01*
X65238095Y-66702381D01*
X63809523Y-66035714D02*
X63809523Y-66702381D01*
X64047619Y-65654762D02*
X64285714Y-66369048D01*
X63666666Y-66369048D01*
X80952381Y-63511905D02*
X79952381Y-63511905D01*
X79952381Y-63750000D01*
X80000000Y-63892858D01*
X80095238Y-63988096D01*
X80190476Y-64035715D01*
X80380952Y-64083334D01*
X80523810Y-64083334D01*
X80714286Y-64035715D01*
X80809524Y-63988096D01*
X80904762Y-63892858D01*
X80952381Y-63750000D01*
X80952381Y-63511905D01*
X79952381Y-64988096D02*
X79952381Y-64511905D01*
X80428571Y-64464286D01*
X80380952Y-64511905D01*
X80333333Y-64607143D01*
X80333333Y-64845239D01*
X80380952Y-64940477D01*
X80428571Y-64988096D01*
X80523810Y-65035715D01*
X80761905Y-65035715D01*
X80857143Y-64988096D01*
X80904762Y-64940477D01*
X80952381Y-64845239D01*
X80952381Y-64607143D01*
X80904762Y-64511905D01*
X80857143Y-64464286D01*
X99952381Y-64511905D02*
X98952381Y-64511905D01*
X98952381Y-64750000D01*
X99000000Y-64892858D01*
X99095238Y-64988096D01*
X99190476Y-65035715D01*
X99380952Y-65083334D01*
X99523810Y-65083334D01*
X99714286Y-65035715D01*
X99809524Y-64988096D01*
X99904762Y-64892858D01*
X99952381Y-64750000D01*
X99952381Y-64511905D01*
X98952381Y-65940477D02*
X98952381Y-65750000D01*
X99000000Y-65654762D01*
X99047619Y-65607143D01*
X99190476Y-65511905D01*
X99380952Y-65464286D01*
X99761905Y-65464286D01*
X99857143Y-65511905D01*
X99904762Y-65559524D01*
X99952381Y-65654762D01*
X99952381Y-65845239D01*
X99904762Y-65940477D01*
X99857143Y-65988096D01*
X99761905Y-66035715D01*
X99523810Y-66035715D01*
X99428571Y-65988096D01*
X99380952Y-65940477D01*
X99333333Y-65845239D01*
X99333333Y-65654762D01*
X99380952Y-65559524D01*
X99428571Y-65511905D01*
X99523810Y-65464286D01*
X129952381Y-79511905D02*
X128952381Y-79511905D01*
X128952381Y-79750000D01*
X129000000Y-79892858D01*
X129095238Y-79988096D01*
X129190476Y-80035715D01*
X129380952Y-80083334D01*
X129523810Y-80083334D01*
X129714286Y-80035715D01*
X129809524Y-79988096D01*
X129904762Y-79892858D01*
X129952381Y-79750000D01*
X129952381Y-79511905D01*
X128952381Y-80416667D02*
X128952381Y-81083334D01*
X129952381Y-80654762D01*
X64738095Y-85952381D02*
X64738095Y-84952381D01*
X64500000Y-84952381D01*
X64357142Y-85000000D01*
X64261904Y-85095238D01*
X64214285Y-85190476D01*
X64166666Y-85380952D01*
X64166666Y-85523810D01*
X64214285Y-85714286D01*
X64261904Y-85809524D01*
X64357142Y-85904762D01*
X64500000Y-85952381D01*
X64738095Y-85952381D01*
X63595238Y-85380952D02*
X63690476Y-85333333D01*
X63738095Y-85285714D01*
X63785714Y-85190476D01*
X63785714Y-85142857D01*
X63738095Y-85047619D01*
X63690476Y-85000000D01*
X63595238Y-84952381D01*
X63404761Y-84952381D01*
X63309523Y-85000000D01*
X63261904Y-85047619D01*
X63214285Y-85142857D01*
X63214285Y-85190476D01*
X63261904Y-85285714D01*
X63309523Y-85333333D01*
X63404761Y-85380952D01*
X63595238Y-85380952D01*
X63690476Y-85428571D01*
X63738095Y-85476190D01*
X63785714Y-85571429D01*
X63785714Y-85761905D01*
X63738095Y-85857143D01*
X63690476Y-85904762D01*
X63595238Y-85952381D01*
X63404761Y-85952381D01*
X63309523Y-85904762D01*
X63261904Y-85857143D01*
X63214285Y-85761905D01*
X63214285Y-85571429D01*
X63261904Y-85476190D01*
X63309523Y-85428571D01*
X63404761Y-85380952D01*
X80952381Y-82511905D02*
X79952381Y-82511905D01*
X79952381Y-82750000D01*
X80000000Y-82892858D01*
X80095238Y-82988096D01*
X80190476Y-83035715D01*
X80380952Y-83083334D01*
X80523810Y-83083334D01*
X80714286Y-83035715D01*
X80809524Y-82988096D01*
X80904762Y-82892858D01*
X80952381Y-82750000D01*
X80952381Y-82511905D01*
X80952381Y-83559524D02*
X80952381Y-83750000D01*
X80904762Y-83845239D01*
X80857143Y-83892858D01*
X80714286Y-83988096D01*
X80523810Y-84035715D01*
X80142857Y-84035715D01*
X80047619Y-83988096D01*
X80000000Y-83940477D01*
X79952381Y-83845239D01*
X79952381Y-83654762D01*
X80000000Y-83559524D01*
X80047619Y-83511905D01*
X80142857Y-83464286D01*
X80380952Y-83464286D01*
X80476190Y-83511905D01*
X80523810Y-83559524D01*
X80571429Y-83654762D01*
X80571429Y-83845239D01*
X80523810Y-83940477D01*
X80476190Y-83988096D01*
X80380952Y-84035715D01*
X99952381Y-83035714D02*
X98952381Y-83035714D01*
X98952381Y-83273809D01*
X99000000Y-83416667D01*
X99095238Y-83511905D01*
X99190476Y-83559524D01*
X99380952Y-83607143D01*
X99523810Y-83607143D01*
X99714286Y-83559524D01*
X99809524Y-83511905D01*
X99904762Y-83416667D01*
X99952381Y-83273809D01*
X99952381Y-83035714D01*
X99952381Y-84559524D02*
X99952381Y-83988095D01*
X99952381Y-84273809D02*
X98952381Y-84273809D01*
X99095238Y-84178571D01*
X99190476Y-84083333D01*
X99238095Y-83988095D01*
X98952381Y-85178571D02*
X98952381Y-85273810D01*
X99000000Y-85369048D01*
X99047619Y-85416667D01*
X99142857Y-85464286D01*
X99333333Y-85511905D01*
X99571429Y-85511905D01*
X99761905Y-85464286D01*
X99857143Y-85416667D01*
X99904762Y-85369048D01*
X99952381Y-85273810D01*
X99952381Y-85178571D01*
X99904762Y-85083333D01*
X99857143Y-85035714D01*
X99761905Y-84988095D01*
X99571429Y-84940476D01*
X99333333Y-84940476D01*
X99142857Y-84988095D01*
X99047619Y-85035714D01*
X99000000Y-85083333D01*
X98952381Y-85178571D01*
X64714286Y-104952381D02*
X64714286Y-103952381D01*
X64476191Y-103952381D01*
X64333333Y-104000000D01*
X64238095Y-104095238D01*
X64190476Y-104190476D01*
X64142857Y-104380952D01*
X64142857Y-104523810D01*
X64190476Y-104714286D01*
X64238095Y-104809524D01*
X64333333Y-104904762D01*
X64476191Y-104952381D01*
X64714286Y-104952381D01*
X63190476Y-104952381D02*
X63761905Y-104952381D01*
X63476191Y-104952381D02*
X63476191Y-103952381D01*
X63571429Y-104095238D01*
X63666667Y-104190476D01*
X63761905Y-104238095D01*
X62809524Y-104047619D02*
X62761905Y-104000000D01*
X62666667Y-103952381D01*
X62428571Y-103952381D01*
X62333333Y-104000000D01*
X62285714Y-104047619D01*
X62238095Y-104142857D01*
X62238095Y-104238095D01*
X62285714Y-104380952D01*
X62857143Y-104952381D01*
X62238095Y-104952381D01*
X80952381Y-101285714D02*
X79952381Y-101285714D01*
X79952381Y-101523809D01*
X80000000Y-101666667D01*
X80095238Y-101761905D01*
X80190476Y-101809524D01*
X80380952Y-101857143D01*
X80523810Y-101857143D01*
X80714286Y-101809524D01*
X80809524Y-101761905D01*
X80904762Y-101666667D01*
X80952381Y-101523809D01*
X80952381Y-101285714D01*
X80952381Y-102809524D02*
X80952381Y-102238095D01*
X80952381Y-102523809D02*
X79952381Y-102523809D01*
X80095238Y-102428571D01*
X80190476Y-102333333D01*
X80238095Y-102238095D01*
X79952381Y-103142857D02*
X79952381Y-103761905D01*
X80333333Y-103428571D01*
X80333333Y-103571429D01*
X80380952Y-103666667D01*
X80428571Y-103714286D01*
X80523810Y-103761905D01*
X80761905Y-103761905D01*
X80857143Y-103714286D01*
X80904762Y-103666667D01*
X80952381Y-103571429D01*
X80952381Y-103285714D01*
X80904762Y-103190476D01*
X80857143Y-103142857D01*
X99952381Y-101285714D02*
X98952381Y-101285714D01*
X98952381Y-101523809D01*
X99000000Y-101666667D01*
X99095238Y-101761905D01*
X99190476Y-101809524D01*
X99380952Y-101857143D01*
X99523810Y-101857143D01*
X99714286Y-101809524D01*
X99809524Y-101761905D01*
X99904762Y-101666667D01*
X99952381Y-101523809D01*
X99952381Y-101285714D01*
X99952381Y-102809524D02*
X99952381Y-102238095D01*
X99952381Y-102523809D02*
X98952381Y-102523809D01*
X99095238Y-102428571D01*
X99190476Y-102333333D01*
X99238095Y-102238095D01*
X99285714Y-103666667D02*
X99952381Y-103666667D01*
X98904762Y-103428571D02*
X99619048Y-103190476D01*
X99619048Y-103809524D01*
X123214286Y-106452381D02*
X123214286Y-105452381D01*
X122976191Y-105452381D01*
X122833333Y-105500000D01*
X122738095Y-105595238D01*
X122690476Y-105690476D01*
X122642857Y-105880952D01*
X122642857Y-106023810D01*
X122690476Y-106214286D01*
X122738095Y-106309524D01*
X122833333Y-106404762D01*
X122976191Y-106452381D01*
X123214286Y-106452381D01*
X121690476Y-106452381D02*
X122261905Y-106452381D01*
X121976191Y-106452381D02*
X121976191Y-105452381D01*
X122071429Y-105595238D01*
X122166667Y-105690476D01*
X122261905Y-105738095D01*
X120785714Y-105452381D02*
X121261905Y-105452381D01*
X121309524Y-105928571D01*
X121261905Y-105880952D01*
X121166667Y-105833333D01*
X120928571Y-105833333D01*
X120833333Y-105880952D01*
X120785714Y-105928571D01*
X120738095Y-106023810D01*
X120738095Y-106261905D01*
X120785714Y-106357143D01*
X120833333Y-106404762D01*
X120928571Y-106452381D01*
X121166667Y-106452381D01*
X121261905Y-106404762D01*
X121309524Y-106357143D01*
X65714286Y-129702381D02*
X65714286Y-128702381D01*
X65476191Y-128702381D01*
X65333333Y-128750000D01*
X65238095Y-128845238D01*
X65190476Y-128940476D01*
X65142857Y-129130952D01*
X65142857Y-129273810D01*
X65190476Y-129464286D01*
X65238095Y-129559524D01*
X65333333Y-129654762D01*
X65476191Y-129702381D01*
X65714286Y-129702381D01*
X64190476Y-129702381D02*
X64761905Y-129702381D01*
X64476191Y-129702381D02*
X64476191Y-128702381D01*
X64571429Y-128845238D01*
X64666667Y-128940476D01*
X64761905Y-128988095D01*
X63333333Y-128702381D02*
X63523810Y-128702381D01*
X63619048Y-128750000D01*
X63666667Y-128797619D01*
X63761905Y-128940476D01*
X63809524Y-129130952D01*
X63809524Y-129511905D01*
X63761905Y-129607143D01*
X63714286Y-129654762D01*
X63619048Y-129702381D01*
X63428571Y-129702381D01*
X63333333Y-129654762D01*
X63285714Y-129607143D01*
X63238095Y-129511905D01*
X63238095Y-129273810D01*
X63285714Y-129178571D01*
X63333333Y-129130952D01*
X63428571Y-129083333D01*
X63619048Y-129083333D01*
X63714286Y-129130952D01*
X63761905Y-129178571D01*
X63809524Y-129273810D01*
X80952381Y-120035714D02*
X79952381Y-120035714D01*
X79952381Y-120273809D01*
X80000000Y-120416667D01*
X80095238Y-120511905D01*
X80190476Y-120559524D01*
X80380952Y-120607143D01*
X80523810Y-120607143D01*
X80714286Y-120559524D01*
X80809524Y-120511905D01*
X80904762Y-120416667D01*
X80952381Y-120273809D01*
X80952381Y-120035714D01*
X80952381Y-121559524D02*
X80952381Y-120988095D01*
X80952381Y-121273809D02*
X79952381Y-121273809D01*
X80095238Y-121178571D01*
X80190476Y-121083333D01*
X80238095Y-120988095D01*
X79952381Y-121892857D02*
X79952381Y-122559524D01*
X80952381Y-122130952D01*
X99952381Y-120035714D02*
X98952381Y-120035714D01*
X98952381Y-120273809D01*
X99000000Y-120416667D01*
X99095238Y-120511905D01*
X99190476Y-120559524D01*
X99380952Y-120607143D01*
X99523810Y-120607143D01*
X99714286Y-120559524D01*
X99809524Y-120511905D01*
X99904762Y-120416667D01*
X99952381Y-120273809D01*
X99952381Y-120035714D01*
X99952381Y-121559524D02*
X99952381Y-120988095D01*
X99952381Y-121273809D02*
X98952381Y-121273809D01*
X99095238Y-121178571D01*
X99190476Y-121083333D01*
X99238095Y-120988095D01*
X99380952Y-122130952D02*
X99333333Y-122035714D01*
X99285714Y-121988095D01*
X99190476Y-121940476D01*
X99142857Y-121940476D01*
X99047619Y-121988095D01*
X99000000Y-122035714D01*
X98952381Y-122130952D01*
X98952381Y-122321429D01*
X99000000Y-122416667D01*
X99047619Y-122464286D01*
X99142857Y-122511905D01*
X99190476Y-122511905D01*
X99285714Y-122464286D01*
X99333333Y-122416667D01*
X99380952Y-122321429D01*
X99380952Y-122130952D01*
X99428571Y-122035714D01*
X99476190Y-121988095D01*
X99571429Y-121940476D01*
X99761905Y-121940476D01*
X99857143Y-121988095D01*
X99904762Y-122035714D01*
X99952381Y-122130952D01*
X99952381Y-122321429D01*
X99904762Y-122416667D01*
X99857143Y-122464286D01*
X99761905Y-122511905D01*
X99571429Y-122511905D01*
X99476190Y-122464286D01*
X99428571Y-122416667D01*
X99380952Y-122321429D01*
X73214286Y-143702381D02*
X73214286Y-142702381D01*
X72976191Y-142702381D01*
X72833333Y-142750000D01*
X72738095Y-142845238D01*
X72690476Y-142940476D01*
X72642857Y-143130952D01*
X72642857Y-143273810D01*
X72690476Y-143464286D01*
X72738095Y-143559524D01*
X72833333Y-143654762D01*
X72976191Y-143702381D01*
X73214286Y-143702381D01*
X72261905Y-142797619D02*
X72214286Y-142750000D01*
X72119048Y-142702381D01*
X71880952Y-142702381D01*
X71785714Y-142750000D01*
X71738095Y-142797619D01*
X71690476Y-142892857D01*
X71690476Y-142988095D01*
X71738095Y-143130952D01*
X72309524Y-143702381D01*
X71690476Y-143702381D01*
X71071429Y-142702381D02*
X70976190Y-142702381D01*
X70880952Y-142750000D01*
X70833333Y-142797619D01*
X70785714Y-142892857D01*
X70738095Y-143083333D01*
X70738095Y-143321429D01*
X70785714Y-143511905D01*
X70833333Y-143607143D01*
X70880952Y-143654762D01*
X70976190Y-143702381D01*
X71071429Y-143702381D01*
X71166667Y-143654762D01*
X71214286Y-143607143D01*
X71261905Y-143511905D01*
X71309524Y-143321429D01*
X71309524Y-143083333D01*
X71261905Y-142892857D01*
X71214286Y-142797619D01*
X71166667Y-142750000D01*
X71071429Y-142702381D01*
X99952381Y-139535714D02*
X98952381Y-139535714D01*
X98952381Y-139773809D01*
X99000000Y-139916667D01*
X99095238Y-140011905D01*
X99190476Y-140059524D01*
X99380952Y-140107143D01*
X99523810Y-140107143D01*
X99714286Y-140059524D01*
X99809524Y-140011905D01*
X99904762Y-139916667D01*
X99952381Y-139773809D01*
X99952381Y-139535714D01*
X99047619Y-140488095D02*
X99000000Y-140535714D01*
X98952381Y-140630952D01*
X98952381Y-140869048D01*
X99000000Y-140964286D01*
X99047619Y-141011905D01*
X99142857Y-141059524D01*
X99238095Y-141059524D01*
X99380952Y-141011905D01*
X99952381Y-140440476D01*
X99952381Y-141059524D01*
X99952381Y-142011905D02*
X99952381Y-141440476D01*
X99952381Y-141726190D02*
X98952381Y-141726190D01*
X99095238Y-141630952D01*
X99190476Y-141535714D01*
X99238095Y-141440476D01*
X121214286Y-142702381D02*
X121214286Y-141702381D01*
X120976191Y-141702381D01*
X120833333Y-141750000D01*
X120738095Y-141845238D01*
X120690476Y-141940476D01*
X120642857Y-142130952D01*
X120642857Y-142273810D01*
X120690476Y-142464286D01*
X120738095Y-142559524D01*
X120833333Y-142654762D01*
X120976191Y-142702381D01*
X121214286Y-142702381D01*
X120261905Y-141797619D02*
X120214286Y-141750000D01*
X120119048Y-141702381D01*
X119880952Y-141702381D01*
X119785714Y-141750000D01*
X119738095Y-141797619D01*
X119690476Y-141892857D01*
X119690476Y-141988095D01*
X119738095Y-142130952D01*
X120309524Y-142702381D01*
X119690476Y-142702381D01*
X119309524Y-141797619D02*
X119261905Y-141750000D01*
X119166667Y-141702381D01*
X118928571Y-141702381D01*
X118833333Y-141750000D01*
X118785714Y-141797619D01*
X118738095Y-141892857D01*
X118738095Y-141988095D01*
X118785714Y-142130952D01*
X119357143Y-142702381D01*
X118738095Y-142702381D01*
X130402381Y-88488095D02*
X131211905Y-88488095D01*
X131307143Y-88535714D01*
X131354762Y-88583333D01*
X131402381Y-88678571D01*
X131402381Y-88869048D01*
X131354762Y-88964286D01*
X131307143Y-89011905D01*
X131211905Y-89059524D01*
X130402381Y-89059524D01*
X131402381Y-90059524D02*
X131402381Y-89488095D01*
X131402381Y-89773809D02*
X130402381Y-89773809D01*
X130545238Y-89678571D01*
X130640476Y-89583333D01*
X130688095Y-89488095D01*
X122090833Y-120567381D02*
X122090833Y-121281667D01*
X122138453Y-121424524D01*
X122233691Y-121519762D01*
X122376548Y-121567381D01*
X122471786Y-121567381D01*
X121614643Y-121567381D02*
X121614643Y-120567381D01*
X121233690Y-120567381D01*
X121138452Y-120615000D01*
X121090833Y-120662619D01*
X121043214Y-120757857D01*
X121043214Y-120900714D01*
X121090833Y-120995952D01*
X121138452Y-121043571D01*
X121233690Y-121091190D01*
X121614643Y-121091190D01*
X120090833Y-121567381D02*
X120662262Y-121567381D01*
X120376548Y-121567381D02*
X120376548Y-120567381D01*
X120471786Y-120710238D01*
X120567024Y-120805476D01*
X120662262Y-120853095D01*
X130337381Y-118424167D02*
X131051667Y-118424167D01*
X131194524Y-118376547D01*
X131289762Y-118281309D01*
X131337381Y-118138452D01*
X131337381Y-118043214D01*
X131337381Y-118900357D02*
X130337381Y-118900357D01*
X130337381Y-119281310D01*
X130385000Y-119376548D01*
X130432619Y-119424167D01*
X130527857Y-119471786D01*
X130670714Y-119471786D01*
X130765952Y-119424167D01*
X130813571Y-119376548D01*
X130861190Y-119281310D01*
X130861190Y-118900357D01*
X130432619Y-119852738D02*
X130385000Y-119900357D01*
X130337381Y-119995595D01*
X130337381Y-120233691D01*
X130385000Y-120328929D01*
X130432619Y-120376548D01*
X130527857Y-120424167D01*
X130623095Y-120424167D01*
X130765952Y-120376548D01*
X131337381Y-119805119D01*
X131337381Y-120424167D01*
X115090833Y-95067381D02*
X115090833Y-95781667D01*
X115138453Y-95924524D01*
X115233691Y-96019762D01*
X115376548Y-96067381D01*
X115471786Y-96067381D01*
X114614643Y-96067381D02*
X114614643Y-95067381D01*
X114233690Y-95067381D01*
X114138452Y-95115000D01*
X114090833Y-95162619D01*
X114043214Y-95257857D01*
X114043214Y-95400714D01*
X114090833Y-95495952D01*
X114138452Y-95543571D01*
X114233690Y-95591190D01*
X114614643Y-95591190D01*
X113709881Y-95067381D02*
X113090833Y-95067381D01*
X113424167Y-95448333D01*
X113281309Y-95448333D01*
X113186071Y-95495952D01*
X113138452Y-95543571D01*
X113090833Y-95638810D01*
X113090833Y-95876905D01*
X113138452Y-95972143D01*
X113186071Y-96019762D01*
X113281309Y-96067381D01*
X113567024Y-96067381D01*
X113662262Y-96019762D01*
X113709881Y-95972143D01*
X128087381Y-63174167D02*
X128801667Y-63174167D01*
X128944524Y-63126547D01*
X129039762Y-63031309D01*
X129087381Y-62888452D01*
X129087381Y-62793214D01*
X129087381Y-63650357D02*
X128087381Y-63650357D01*
X128087381Y-64031310D01*
X128135000Y-64126548D01*
X128182619Y-64174167D01*
X128277857Y-64221786D01*
X128420714Y-64221786D01*
X128515952Y-64174167D01*
X128563571Y-64126548D01*
X128611190Y-64031310D01*
X128611190Y-63650357D01*
X128087381Y-65126548D02*
X128087381Y-64650357D01*
X128563571Y-64602738D01*
X128515952Y-64650357D01*
X128468333Y-64745595D01*
X128468333Y-64983691D01*
X128515952Y-65078929D01*
X128563571Y-65126548D01*
X128658810Y-65174167D01*
X128896905Y-65174167D01*
X128992143Y-65126548D01*
X129039762Y-65078929D01*
X129087381Y-64983691D01*
X129087381Y-64745595D01*
X129039762Y-64650357D01*
X128992143Y-64602738D01*
X119840833Y-65317381D02*
X119840833Y-66031667D01*
X119888453Y-66174524D01*
X119983691Y-66269762D01*
X120126548Y-66317381D01*
X120221786Y-66317381D01*
X119364643Y-66317381D02*
X119364643Y-65317381D01*
X118983690Y-65317381D01*
X118888452Y-65365000D01*
X118840833Y-65412619D01*
X118793214Y-65507857D01*
X118793214Y-65650714D01*
X118840833Y-65745952D01*
X118888452Y-65793571D01*
X118983690Y-65841190D01*
X119364643Y-65841190D01*
X117936071Y-65650714D02*
X117936071Y-66317381D01*
X118174167Y-65269762D02*
X118412262Y-65984048D01*
X117793214Y-65984048D01*
X113666666Y-87952381D02*
X114000000Y-87476190D01*
X114238095Y-87952381D02*
X114238095Y-86952381D01*
X113857142Y-86952381D01*
X113761904Y-87000000D01*
X113714285Y-87047619D01*
X113666666Y-87142857D01*
X113666666Y-87285714D01*
X113714285Y-87380952D01*
X113761904Y-87428571D01*
X113857142Y-87476190D01*
X114238095Y-87476190D01*
X113047619Y-86952381D02*
X112952380Y-86952381D01*
X112857142Y-87000000D01*
X112809523Y-87047619D01*
X112761904Y-87142857D01*
X112714285Y-87333333D01*
X112714285Y-87571429D01*
X112761904Y-87761905D01*
X112809523Y-87857143D01*
X112857142Y-87904762D01*
X112952380Y-87952381D01*
X113047619Y-87952381D01*
X113142857Y-87904762D01*
X113190476Y-87857143D01*
X113238095Y-87761905D01*
X113285714Y-87571429D01*
X113285714Y-87333333D01*
X113238095Y-87142857D01*
X113190476Y-87047619D01*
X113142857Y-87000000D01*
X113047619Y-86952381D01*
X113666666Y-89702381D02*
X114000000Y-89226190D01*
X114238095Y-89702381D02*
X114238095Y-88702381D01*
X113857142Y-88702381D01*
X113761904Y-88750000D01*
X113714285Y-88797619D01*
X113666666Y-88892857D01*
X113666666Y-89035714D01*
X113714285Y-89130952D01*
X113761904Y-89178571D01*
X113857142Y-89226190D01*
X114238095Y-89226190D01*
X112714285Y-89702381D02*
X113285714Y-89702381D01*
X113000000Y-89702381D02*
X113000000Y-88702381D01*
X113095238Y-88845238D01*
X113190476Y-88940476D01*
X113285714Y-88988095D01*
X113666666Y-91452381D02*
X114000000Y-90976190D01*
X114238095Y-91452381D02*
X114238095Y-90452381D01*
X113857142Y-90452381D01*
X113761904Y-90500000D01*
X113714285Y-90547619D01*
X113666666Y-90642857D01*
X113666666Y-90785714D01*
X113714285Y-90880952D01*
X113761904Y-90928571D01*
X113857142Y-90976190D01*
X114238095Y-90976190D01*
X113285714Y-90547619D02*
X113238095Y-90500000D01*
X113142857Y-90452381D01*
X112904761Y-90452381D01*
X112809523Y-90500000D01*
X112761904Y-90547619D01*
X112714285Y-90642857D01*
X112714285Y-90738095D01*
X112761904Y-90880952D01*
X113333333Y-91452381D01*
X112714285Y-91452381D01*
X124726190Y-85202381D02*
X125059524Y-84726190D01*
X125297619Y-85202381D02*
X125297619Y-84202381D01*
X124916666Y-84202381D01*
X124821428Y-84250000D01*
X124773809Y-84297619D01*
X124726190Y-84392857D01*
X124726190Y-84535714D01*
X124773809Y-84630952D01*
X124821428Y-84678571D01*
X124916666Y-84726190D01*
X125297619Y-84726190D01*
X124297619Y-84678571D02*
X123964285Y-84678571D01*
X123821428Y-85202381D02*
X124297619Y-85202381D01*
X124297619Y-84202381D01*
X123821428Y-84202381D01*
X123488095Y-84202381D02*
X122821428Y-85202381D01*
X122821428Y-84202381D02*
X123488095Y-85202381D01*
X122583333Y-84202381D02*
X122011904Y-84202381D01*
X122297619Y-85202381D02*
X122297619Y-84202381D01*
X121488095Y-84202381D02*
X121392856Y-84202381D01*
X121297618Y-84250000D01*
X121249999Y-84297619D01*
X121202380Y-84392857D01*
X121154761Y-84583333D01*
X121154761Y-84821429D01*
X121202380Y-85011905D01*
X121249999Y-85107143D01*
X121297618Y-85154762D01*
X121392856Y-85202381D01*
X121488095Y-85202381D01*
X121583333Y-85154762D01*
X121630952Y-85107143D01*
X121678571Y-85011905D01*
X121726190Y-84821429D01*
X121726190Y-84583333D01*
X121678571Y-84392857D01*
X121630952Y-84297619D01*
X121583333Y-84250000D01*
X121488095Y-84202381D01*
X97357143Y-154702381D02*
X97357143Y-153702381D01*
X96785714Y-154702381D01*
X96785714Y-153702381D01*
X96309524Y-153702381D02*
X96309524Y-154511905D01*
X96261905Y-154607143D01*
X96214286Y-154654762D01*
X96119048Y-154702381D01*
X95928571Y-154702381D01*
X95833333Y-154654762D01*
X95785714Y-154607143D01*
X95738095Y-154511905D01*
X95738095Y-153702381D01*
X95261905Y-154702381D02*
X95261905Y-153702381D01*
X94928571Y-154416667D01*
X94595238Y-153702381D01*
X94595238Y-154702381D01*
X94119048Y-154702381D02*
X94119048Y-153702381D01*
X93738095Y-153702381D01*
X93642857Y-153750000D01*
X93595238Y-153797619D01*
X93547619Y-153892857D01*
X93547619Y-154035714D01*
X93595238Y-154130952D01*
X93642857Y-154178571D01*
X93738095Y-154226190D01*
X94119048Y-154226190D01*
X93166667Y-154416667D02*
X92690476Y-154416667D01*
X93261905Y-154702381D02*
X92928572Y-153702381D01*
X92595238Y-154702381D01*
X92261905Y-154702381D02*
X92261905Y-153702381D01*
X92023810Y-153702381D01*
X91880952Y-153750000D01*
X91785714Y-153845238D01*
X91738095Y-153940476D01*
X91690476Y-154130952D01*
X91690476Y-154273810D01*
X91738095Y-154464286D01*
X91785714Y-154559524D01*
X91880952Y-154654762D01*
X92023810Y-154702381D01*
X92261905Y-154702381D01*
X89928571Y-154702381D02*
X90261905Y-154226190D01*
X90500000Y-154702381D02*
X90500000Y-153702381D01*
X90119047Y-153702381D01*
X90023809Y-153750000D01*
X89976190Y-153797619D01*
X89928571Y-153892857D01*
X89928571Y-154035714D01*
X89976190Y-154130952D01*
X90023809Y-154178571D01*
X90119047Y-154226190D01*
X90500000Y-154226190D01*
X89119047Y-154654762D02*
X89214285Y-154702381D01*
X89404762Y-154702381D01*
X89500000Y-154654762D01*
X89547619Y-154559524D01*
X89547619Y-154178571D01*
X89500000Y-154083333D01*
X89404762Y-154035714D01*
X89214285Y-154035714D01*
X89119047Y-154083333D01*
X89071428Y-154178571D01*
X89071428Y-154273810D01*
X89547619Y-154369048D01*
X88738095Y-154035714D02*
X88500000Y-154702381D01*
X88261904Y-154035714D01*
X86928571Y-153702381D02*
X86833332Y-153702381D01*
X86738094Y-153750000D01*
X86690475Y-153797619D01*
X86642856Y-153892857D01*
X86595237Y-154083333D01*
X86595237Y-154321429D01*
X86642856Y-154511905D01*
X86690475Y-154607143D01*
X86738094Y-154654762D01*
X86833332Y-154702381D01*
X86928571Y-154702381D01*
X87023809Y-154654762D01*
X87071428Y-154607143D01*
X87119047Y-154511905D01*
X87166666Y-154321429D01*
X87166666Y-154083333D01*
X87119047Y-153892857D01*
X87071428Y-153797619D01*
X87023809Y-153750000D01*
X86928571Y-153702381D01*
M02*
