G04 #@! TF.FileFunction,Soldermask,Top*
%FSLAX46Y46*%
G04 Gerber Fmt 4.6, Leading zero omitted, Abs format (unit mm)*
G04 Created by KiCad (PCBNEW 4.0.5) date Sun Feb 26 02:23:34 2017*
%MOMM*%
%LPD*%
G01*
G04 APERTURE LIST*
%ADD10C,0.100000*%
%ADD11C,5.900000*%
%ADD12R,2.100000X2.100000*%
%ADD13O,2.100000X2.100000*%
%ADD14R,1.400000X1.400000*%
%ADD15O,1.400000X1.400000*%
%ADD16C,2.686000*%
%ADD17R,1.850000X1.000000*%
%ADD18R,1.850000X3.300000*%
%ADD19R,1.850000X1.200000*%
%ADD20R,1.000000X1.850000*%
%ADD21R,3.300000X1.850000*%
%ADD22R,1.200000X1.850000*%
G04 APERTURE END LIST*
D10*
D11*
X63500000Y-45500000D03*
D12*
X133000000Y-48500000D03*
D13*
X133000000Y-51040000D03*
X133000000Y-53580000D03*
X133000000Y-56120000D03*
X133000000Y-58660000D03*
X133000000Y-61200000D03*
X133000000Y-63740000D03*
X133000000Y-66280000D03*
D12*
X133250000Y-114250000D03*
D13*
X133250000Y-116790000D03*
X133250000Y-119330000D03*
X133250000Y-121870000D03*
X133250000Y-124410000D03*
X133250000Y-126950000D03*
D14*
X124750000Y-122750000D03*
D15*
X124750000Y-124020000D03*
D14*
X129250000Y-122750000D03*
D15*
X127980000Y-122750000D03*
X126710000Y-122750000D03*
D14*
X117750000Y-97250000D03*
D15*
X117750000Y-98520000D03*
X117750000Y-99790000D03*
D14*
X127000000Y-67500000D03*
D15*
X125730000Y-67500000D03*
X124460000Y-67500000D03*
D12*
X135500000Y-71250000D03*
D13*
X135500000Y-73790000D03*
X135500000Y-76330000D03*
X135500000Y-78870000D03*
X135500000Y-81410000D03*
X135500000Y-83950000D03*
X135500000Y-86490000D03*
X135500000Y-89030000D03*
X135500000Y-91570000D03*
X135500000Y-94110000D03*
X135500000Y-96650000D03*
X135500000Y-99190000D03*
X135500000Y-101730000D03*
X135500000Y-104270000D03*
X135500000Y-106810000D03*
D14*
X122500000Y-68770000D03*
D15*
X122500000Y-67500000D03*
D16*
X72540000Y-64920000D03*
X66190000Y-67460000D03*
X91540000Y-102920000D03*
X85190000Y-105460000D03*
X110540000Y-140920000D03*
X104190000Y-143460000D03*
X110540000Y-102920000D03*
X104190000Y-105460000D03*
X91540000Y-83920000D03*
X85190000Y-86460000D03*
X110540000Y-64920000D03*
X104190000Y-67460000D03*
X91540000Y-64920000D03*
X85190000Y-67460000D03*
X72540000Y-83920000D03*
X66190000Y-86460000D03*
X110540000Y-83920000D03*
X104190000Y-86460000D03*
X72540000Y-102920000D03*
X66190000Y-105460000D03*
X72540000Y-121920000D03*
X66190000Y-124460000D03*
X91540000Y-121920000D03*
X85190000Y-124460000D03*
X110540000Y-121920000D03*
X104190000Y-124460000D03*
X82040000Y-140920000D03*
X75690000Y-143460000D03*
X127165000Y-45920000D03*
X120815000Y-48460000D03*
X109748000Y-45920000D03*
X103398000Y-48460000D03*
X92331700Y-45920000D03*
X85981700Y-48460000D03*
X74915000Y-45920000D03*
X68565000Y-48460000D03*
X121920000Y-133960000D03*
X124460000Y-140310000D03*
X121920000Y-72210000D03*
X124460000Y-78560000D03*
D11*
X132500000Y-150500000D03*
X64500000Y-150500000D03*
D16*
X121920000Y-100710000D03*
X124460000Y-107060000D03*
D17*
X91275000Y-55500000D03*
D18*
X88225000Y-55500000D03*
D19*
X91275000Y-56550000D03*
X91275000Y-54450000D03*
D17*
X126025000Y-55500000D03*
D18*
X122975000Y-55500000D03*
D19*
X126025000Y-56550000D03*
X126025000Y-54450000D03*
D17*
X71525000Y-74500000D03*
D18*
X68475000Y-74500000D03*
D19*
X71525000Y-75550000D03*
X71525000Y-73450000D03*
D17*
X90525000Y-74500000D03*
D18*
X87475000Y-74500000D03*
D19*
X90525000Y-75550000D03*
X90525000Y-73450000D03*
D17*
X109525000Y-74500000D03*
D18*
X106475000Y-74500000D03*
D19*
X109525000Y-75550000D03*
X109525000Y-73450000D03*
D17*
X71525000Y-93500000D03*
D18*
X68475000Y-93500000D03*
D19*
X71525000Y-94550000D03*
X71525000Y-92450000D03*
D17*
X90525000Y-93500000D03*
D18*
X87475000Y-93500000D03*
D19*
X90525000Y-94550000D03*
X90525000Y-92450000D03*
D17*
X109525000Y-93500000D03*
D18*
X106475000Y-93500000D03*
D19*
X109525000Y-94550000D03*
X109525000Y-92450000D03*
D17*
X71525000Y-112500000D03*
D18*
X68475000Y-112500000D03*
D19*
X71525000Y-113550000D03*
X71525000Y-111450000D03*
D17*
X90525000Y-112500000D03*
D18*
X87475000Y-112500000D03*
D19*
X90525000Y-113550000D03*
X90525000Y-111450000D03*
D17*
X109525000Y-112500000D03*
D18*
X106475000Y-112500000D03*
D19*
X109525000Y-113550000D03*
X109525000Y-111450000D03*
D17*
X71525000Y-131500000D03*
D18*
X68475000Y-131500000D03*
D19*
X71525000Y-132550000D03*
X71525000Y-130450000D03*
D17*
X90525000Y-131500000D03*
D18*
X87475000Y-131500000D03*
D19*
X90525000Y-132550000D03*
X90525000Y-130450000D03*
D17*
X109525000Y-131500000D03*
D18*
X106475000Y-131500000D03*
D19*
X109525000Y-132550000D03*
X109525000Y-130450000D03*
D17*
X81025000Y-150500000D03*
D18*
X77975000Y-150500000D03*
D19*
X81025000Y-151550000D03*
X81025000Y-149450000D03*
D17*
X109525000Y-150500000D03*
D18*
X106475000Y-150500000D03*
D19*
X109525000Y-151550000D03*
X109525000Y-149450000D03*
D20*
X131500000Y-134975000D03*
D21*
X131500000Y-138025000D03*
D22*
X132550000Y-134975000D03*
X130450000Y-134975000D03*
D17*
X74025000Y-55500000D03*
D18*
X70975000Y-55500000D03*
D19*
X74025000Y-56550000D03*
X74025000Y-54450000D03*
D17*
X108775000Y-55500000D03*
D18*
X105725000Y-55500000D03*
D19*
X108775000Y-56550000D03*
X108775000Y-54450000D03*
D20*
X131500000Y-73225000D03*
X131500000Y-76275000D03*
D22*
X132550000Y-76275000D03*
X130450000Y-76275000D03*
X132550000Y-73225000D03*
X130450000Y-73225000D03*
D20*
X131500000Y-101725000D03*
X131500000Y-104775000D03*
D22*
X132550000Y-104775000D03*
X130450000Y-104775000D03*
X132550000Y-101725000D03*
X130450000Y-101725000D03*
M02*
