G04 #@! TF.FileFunction,Paste,Bot*
%FSLAX46Y46*%
G04 Gerber Fmt 4.6, Leading zero omitted, Abs format (unit mm)*
G04 Created by KiCad (PCBNEW 4.0.5) date Sun Feb 26 02:23:34 2017*
%MOMM*%
%LPD*%
G01*
G04 APERTURE LIST*
%ADD10C,0.100000*%
%ADD11R,1.200000X0.900000*%
%ADD12R,0.900000X1.200000*%
%ADD13R,0.400000X1.100000*%
G04 APERTURE END LIST*
D10*
D11*
X64750000Y-56900000D03*
X64750000Y-53600000D03*
D12*
X82600000Y-51750000D03*
X85900000Y-51750000D03*
X100350000Y-51500000D03*
X103650000Y-51500000D03*
X117350000Y-51500000D03*
X120650000Y-51500000D03*
X62850000Y-64250000D03*
X66150000Y-64250000D03*
D11*
X82500000Y-62600000D03*
X82500000Y-65900000D03*
X101500000Y-63600000D03*
X101500000Y-66900000D03*
X127500000Y-81900000D03*
X127500000Y-78600000D03*
D12*
X62850000Y-83500000D03*
X66150000Y-83500000D03*
D11*
X82500000Y-81600000D03*
X82500000Y-84900000D03*
X101500000Y-82600000D03*
X101500000Y-85900000D03*
D12*
X62850000Y-102500000D03*
X66150000Y-102500000D03*
D11*
X82500000Y-100850000D03*
X82500000Y-104150000D03*
X101500000Y-100850000D03*
X101500000Y-104150000D03*
D12*
X120350000Y-104000000D03*
X123650000Y-104000000D03*
X62850000Y-127250000D03*
X66150000Y-127250000D03*
D11*
X82500000Y-119600000D03*
X82500000Y-122900000D03*
X101500000Y-119600000D03*
X101500000Y-122900000D03*
D12*
X70350000Y-141250000D03*
X73650000Y-141250000D03*
D11*
X101500000Y-139100000D03*
X101500000Y-142400000D03*
D12*
X118350000Y-140250000D03*
X121650000Y-140250000D03*
D13*
X129575000Y-92100000D03*
X128925000Y-92100000D03*
X128275000Y-92100000D03*
X127625000Y-92100000D03*
X126975000Y-92100000D03*
X126325000Y-92100000D03*
X125675000Y-92100000D03*
X125025000Y-92100000D03*
X124375000Y-92100000D03*
X123725000Y-92100000D03*
X123075000Y-92100000D03*
X122425000Y-92100000D03*
X122425000Y-86400000D03*
X123075000Y-86400000D03*
X123725000Y-86400000D03*
X124375000Y-86400000D03*
X125025000Y-86400000D03*
X125675000Y-86400000D03*
X126325000Y-86400000D03*
X126975000Y-86400000D03*
X127625000Y-86400000D03*
X128275000Y-86400000D03*
X128925000Y-86400000D03*
X129575000Y-86400000D03*
D11*
X116400000Y-87500000D03*
X118600000Y-87500000D03*
X116400000Y-89250000D03*
X118600000Y-89250000D03*
X116400000Y-91000000D03*
X118600000Y-91000000D03*
X126150000Y-84750000D03*
X128350000Y-84750000D03*
M02*
