G04 #@! TF.FileFunction,Copper,L2,Bot,Signal*
%FSLAX46Y46*%
G04 Gerber Fmt 4.6, Leading zero omitted, Abs format (unit mm)*
G04 Created by KiCad (PCBNEW 4.0.5) date Sun Feb 26 14:27:26 2017*
%MOMM*%
%LPD*%
G01*
G04 APERTURE LIST*
%ADD10C,0.100000*%
%ADD11R,0.800000X1.700000*%
%ADD12R,2.200000X3.100000*%
%ADD13R,1.200000X0.900000*%
%ADD14R,0.900000X1.200000*%
%ADD15R,1.700000X1.700000*%
%ADD16O,1.700000X1.700000*%
%ADD17C,2.286000*%
%ADD18C,1.270000*%
%ADD19C,0.600000*%
%ADD20C,0.250000*%
%ADD21C,0.254000*%
G04 APERTURE END LIST*
D10*
D11*
X119875000Y-93450000D03*
X121125000Y-93450000D03*
X122375000Y-93450000D03*
X123625000Y-93450000D03*
X124875000Y-93450000D03*
X126125000Y-93450000D03*
X127375000Y-93450000D03*
X128625000Y-93450000D03*
D12*
X117375000Y-90550000D03*
X131125000Y-90550000D03*
D13*
X124250000Y-46150000D03*
X124250000Y-42850000D03*
D14*
X140850000Y-43000000D03*
X144150000Y-43000000D03*
X131350000Y-62000000D03*
X134650000Y-62000000D03*
X131350000Y-81000000D03*
X134650000Y-81000000D03*
D15*
X108000000Y-73250000D03*
D16*
X108000000Y-75790000D03*
X108000000Y-78330000D03*
X108000000Y-80870000D03*
X108000000Y-83410000D03*
X108000000Y-85950000D03*
X108000000Y-88490000D03*
X108000000Y-91030000D03*
D15*
X121500000Y-57000000D03*
D16*
X121500000Y-59540000D03*
X121500000Y-62080000D03*
X121500000Y-64620000D03*
X121500000Y-67160000D03*
X121500000Y-69700000D03*
D15*
X154750000Y-78500000D03*
D16*
X154750000Y-81040000D03*
X154750000Y-83580000D03*
X154750000Y-86120000D03*
X154750000Y-88660000D03*
D17*
X140540000Y-56920000D03*
X134190000Y-59460000D03*
X150040000Y-37920000D03*
X143690000Y-40460000D03*
X131040000Y-37920000D03*
X124690000Y-40460000D03*
X141540000Y-94920000D03*
X135190000Y-97460000D03*
X167690000Y-94920000D03*
X161340000Y-97460000D03*
X115390000Y-94920000D03*
X109040000Y-97460000D03*
D18*
X144000000Y-63000000D03*
X136750000Y-78250000D03*
X118250000Y-99500000D03*
X142000000Y-78500000D03*
D17*
X140540000Y-75920000D03*
X134190000Y-78460000D03*
D19*
X142302600Y-60000000D03*
X127276200Y-76019600D03*
X128750000Y-80000000D03*
X141250000Y-65500000D03*
X136000000Y-46450000D03*
X131750000Y-46450000D03*
X139186800Y-74854800D03*
X127385300Y-64250000D03*
X121600000Y-99000000D03*
X139000000Y-102866100D03*
X165250000Y-102866100D03*
X115750000Y-102250000D03*
D20*
X124250000Y-40900000D02*
X124250000Y-42850000D01*
X124690000Y-40460000D02*
X124250000Y-40900000D01*
X144150000Y-40920000D02*
X144150000Y-43000000D01*
X143690000Y-40460000D02*
X144150000Y-40920000D01*
X134650000Y-59920000D02*
X134650000Y-62000000D01*
X134190000Y-59460000D02*
X134650000Y-59920000D01*
X134190000Y-79614700D02*
X134190000Y-78460000D01*
X134650000Y-80074700D02*
X134190000Y-79614700D01*
X134650000Y-81000000D02*
X134650000Y-80074700D01*
X131040000Y-37920000D02*
X125057358Y-37920000D01*
X125057358Y-37920000D02*
X120324600Y-42652758D01*
X120324600Y-42652758D02*
X120324600Y-70109900D01*
X120324600Y-70109900D02*
X118599100Y-71835400D01*
X106085400Y-84035400D02*
X108000000Y-85950000D01*
X118599100Y-71835400D02*
X107252100Y-71835400D01*
X107252100Y-71835400D02*
X106085400Y-73002100D01*
X106085400Y-73002100D02*
X106085400Y-84035400D01*
X150040000Y-37920000D02*
X131040000Y-37920000D01*
X108000000Y-88490000D02*
X108849999Y-87640001D01*
X108849999Y-87640001D02*
X119109999Y-87640001D01*
X119109999Y-87640001D02*
X124500000Y-82250000D01*
X124500000Y-82250000D02*
X128500000Y-82250000D01*
X133340947Y-76500000D02*
X138343554Y-76500000D01*
X128500000Y-82250000D02*
X130840947Y-79909053D01*
X130840947Y-79909053D02*
X130840947Y-79000000D01*
X130840947Y-79000000D02*
X133340947Y-76500000D01*
X138343554Y-76500000D02*
X138923554Y-75920000D01*
X138923554Y-75920000D02*
X140540000Y-75920000D01*
X143000000Y-60750000D02*
X143000000Y-59380000D01*
X143000000Y-59380000D02*
X140540000Y-56920000D01*
X142000000Y-61750000D02*
X143000000Y-60750000D01*
X141987900Y-61750000D02*
X141987900Y-74472100D01*
X141987900Y-61750000D02*
X142000000Y-61750000D01*
X141987900Y-74472100D02*
X140540000Y-75920000D01*
X125830300Y-94920000D02*
X126125000Y-94625300D01*
X115390000Y-94920000D02*
X125830300Y-94920000D01*
X126125000Y-93450000D02*
X126125000Y-94625300D01*
X127828400Y-95078700D02*
X127375000Y-94625300D01*
X141381300Y-95078700D02*
X127828400Y-95078700D01*
X141540000Y-94920000D02*
X141381300Y-95078700D01*
X127375000Y-93450000D02*
X127375000Y-94625300D01*
X167690000Y-94920000D02*
X166220000Y-93450000D01*
X140450000Y-92500000D02*
X139500000Y-93450000D01*
X166220000Y-93450000D02*
X143450000Y-93450000D01*
X143450000Y-93450000D02*
X142500000Y-92500000D01*
X142500000Y-92500000D02*
X140450000Y-92500000D01*
X139500000Y-93450000D02*
X130525600Y-93450000D01*
X130525600Y-93450000D02*
X128625000Y-93450000D01*
X128649700Y-84750000D02*
X121125000Y-92274700D01*
X128649700Y-84750000D02*
X151040000Y-84750000D01*
X151040000Y-84750000D02*
X154750000Y-81040000D01*
X121125000Y-93450000D02*
X121125000Y-92274700D01*
X122375000Y-93450000D02*
X122375000Y-92274700D01*
X122375000Y-92274700D02*
X129149700Y-85500000D01*
X129149700Y-85500000D02*
X152830000Y-85500000D01*
X152830000Y-85500000D02*
X154750000Y-83580000D01*
X129779700Y-86120000D02*
X123625000Y-92274700D01*
X154750000Y-86120000D02*
X129779700Y-86120000D01*
X123625000Y-93450000D02*
X123625000Y-92274700D01*
X130225000Y-87000000D02*
X153090000Y-87000000D01*
X153090000Y-87000000D02*
X154750000Y-88660000D01*
X124875000Y-93450000D02*
X124875000Y-92350000D01*
X124875000Y-92350000D02*
X130225000Y-87000000D01*
X127276200Y-76019600D02*
X108229600Y-76019600D01*
X108229600Y-76019600D02*
X108000000Y-75790000D01*
X141351000Y-61944800D02*
X141351000Y-60951600D01*
X141351000Y-60951600D02*
X142302600Y-60000000D01*
X127276200Y-76019600D02*
X141351000Y-61944800D01*
X128750000Y-80000000D02*
X128450001Y-79700001D01*
X128450001Y-79700001D02*
X109169999Y-79700001D01*
X109169999Y-79700001D02*
X108000000Y-80870000D01*
X141219500Y-67250000D02*
X141219500Y-72822100D01*
X141219500Y-66006500D02*
X141219500Y-67250000D01*
X141219500Y-67250000D02*
X141219500Y-65530500D01*
X141219500Y-65530500D02*
X141250000Y-65500000D01*
X131750000Y-46450000D02*
X136000000Y-46450000D01*
X141219500Y-72822100D02*
X139186800Y-74854800D01*
X122675300Y-59540000D02*
X127000000Y-63864700D01*
X127000000Y-63864700D02*
X127385300Y-64250000D01*
X121500000Y-59540000D02*
X122675300Y-59540000D01*
X121600000Y-101563600D02*
X120913600Y-102250000D01*
X120913600Y-102250000D02*
X115750000Y-102250000D01*
X121600000Y-101563600D02*
X121600000Y-99000000D01*
X139000000Y-102866100D02*
X165250000Y-102866100D01*
X122902500Y-102866100D02*
X121600000Y-101563600D01*
X139000000Y-102866100D02*
X122902500Y-102866100D01*
X108000000Y-83410000D02*
X106574700Y-81984700D01*
X106574700Y-81984700D02*
X106574700Y-75476298D01*
X106574700Y-75476298D02*
X107500000Y-74550998D01*
X107500000Y-74550998D02*
X119724302Y-74550998D01*
X131350000Y-62925300D02*
X131350000Y-62000000D01*
X119724302Y-74550998D02*
X131350000Y-62925300D01*
X124250000Y-46150000D02*
X124250000Y-49900000D01*
X124250000Y-49900000D02*
X131350000Y-57000000D01*
X131350000Y-57000000D02*
X131350000Y-57786100D01*
X131350000Y-57786100D02*
X131350000Y-62000000D01*
X115000000Y-88250000D02*
X112220000Y-91030000D01*
X112220000Y-91030000D02*
X108000000Y-91030000D01*
X119250000Y-88250000D02*
X115000000Y-88250000D01*
X124750000Y-82750000D02*
X119250000Y-88250000D01*
X143500000Y-61000000D02*
X143500000Y-59045000D01*
X143500000Y-59045000D02*
X142455000Y-58000000D01*
X142455000Y-58000000D02*
X142455000Y-49250000D01*
X142455000Y-49250000D02*
X140850000Y-47645000D01*
X140850000Y-47645000D02*
X140850000Y-43000000D01*
X142455000Y-76124400D02*
X142455000Y-62750000D01*
X142455000Y-62750000D02*
X142455000Y-62045000D01*
X142455000Y-62045000D02*
X143500000Y-61000000D01*
X142500000Y-62000000D02*
X143500000Y-61000000D01*
X131350000Y-81000000D02*
X130650000Y-81000000D01*
X130650000Y-81000000D02*
X128900000Y-82750000D01*
X128900000Y-82750000D02*
X124750000Y-82750000D01*
X131350000Y-81000000D02*
X131350000Y-79127358D01*
X141191399Y-77388001D02*
X142455000Y-76124400D01*
X131350000Y-79127358D02*
X133485359Y-76991999D01*
X139353998Y-76991999D02*
X139750000Y-77388001D01*
X133485359Y-76991999D02*
X139353998Y-76991999D01*
X139750000Y-77388001D02*
X141191399Y-77388001D01*
D21*
G36*
X156091365Y-33979029D02*
X154862625Y-35207769D01*
X154814624Y-35159684D01*
X154124996Y-34873326D01*
X153378280Y-34872675D01*
X152688154Y-35157829D01*
X152159684Y-35685376D01*
X151873326Y-36375004D01*
X151872675Y-37121720D01*
X152157829Y-37811846D01*
X152685376Y-38340316D01*
X153375004Y-38626674D01*
X154121720Y-38627325D01*
X154811846Y-38342171D01*
X155340316Y-37814624D01*
X155626674Y-37124996D01*
X155627325Y-36378280D01*
X155342171Y-35688154D01*
X155291856Y-35637750D01*
X156520971Y-34408635D01*
X156548000Y-34544517D01*
X156548000Y-89500000D01*
X156556685Y-89543663D01*
X156556685Y-89588180D01*
X156632805Y-89970863D01*
X156632805Y-89970864D01*
X156660760Y-90038354D01*
X156700295Y-90133800D01*
X156700296Y-90133801D01*
X156917068Y-90458224D01*
X157041775Y-90582931D01*
X157366196Y-90799702D01*
X157366199Y-90799705D01*
X157458395Y-90837893D01*
X157529136Y-90867195D01*
X157529137Y-90867195D01*
X157911819Y-90943315D01*
X157956337Y-90943315D01*
X158000000Y-90952000D01*
X171205483Y-90952000D01*
X171456322Y-91001895D01*
X171631233Y-91118767D01*
X171748105Y-91293679D01*
X171798000Y-91544517D01*
X171798000Y-108455483D01*
X171770971Y-108591365D01*
X171042231Y-107862625D01*
X171090316Y-107814624D01*
X171376674Y-107124996D01*
X171377325Y-106378280D01*
X171092171Y-105688154D01*
X170564624Y-105159684D01*
X169874996Y-104873326D01*
X169128280Y-104872675D01*
X168438154Y-105157829D01*
X167909684Y-105685376D01*
X167623326Y-106375004D01*
X167622675Y-107121720D01*
X167907829Y-107811846D01*
X168435376Y-108340316D01*
X169125004Y-108626674D01*
X169871720Y-108627325D01*
X170561846Y-108342171D01*
X170612250Y-108291856D01*
X171341365Y-109020971D01*
X171205483Y-109048000D01*
X139377000Y-109048000D01*
X139377000Y-103442842D01*
X139382989Y-103440367D01*
X139455382Y-103368100D01*
X164794537Y-103368100D01*
X164866010Y-103439698D01*
X165114746Y-103542982D01*
X165384073Y-103543217D01*
X165632989Y-103440367D01*
X165823598Y-103250090D01*
X165926882Y-103001354D01*
X165927117Y-102732027D01*
X165824267Y-102483111D01*
X165685466Y-102344068D01*
X166491253Y-102011123D01*
X167158779Y-101344761D01*
X167520488Y-100473670D01*
X167521311Y-99530468D01*
X167377000Y-99181209D01*
X167377000Y-96435863D01*
X167386327Y-96439736D01*
X167991020Y-96440264D01*
X168549886Y-96209345D01*
X168977842Y-95782135D01*
X169209736Y-95223673D01*
X169210264Y-94618980D01*
X168979345Y-94060114D01*
X168552135Y-93632158D01*
X167993673Y-93400264D01*
X167388980Y-93399736D01*
X167028585Y-93548649D01*
X166574968Y-93095032D01*
X166412107Y-92986212D01*
X166220000Y-92947999D01*
X166219995Y-92948000D01*
X143657936Y-92948000D01*
X142854968Y-92145032D01*
X142692107Y-92036212D01*
X142500000Y-91997999D01*
X142499995Y-91998000D01*
X140450005Y-91998000D01*
X140450000Y-91997999D01*
X140257893Y-92036212D01*
X140095032Y-92145032D01*
X139292064Y-92948000D01*
X129409385Y-92948000D01*
X129409385Y-92600000D01*
X129383097Y-92460292D01*
X129300530Y-92331980D01*
X129174547Y-92245899D01*
X129025000Y-92215615D01*
X128225000Y-92215615D01*
X128085292Y-92241903D01*
X127999497Y-92297111D01*
X127924547Y-92245899D01*
X127775000Y-92215615D01*
X126975000Y-92215615D01*
X126835292Y-92241903D01*
X126749497Y-92297111D01*
X126674547Y-92245899D01*
X126525000Y-92215615D01*
X125725000Y-92215615D01*
X125718005Y-92216931D01*
X129252665Y-88682271D01*
X129640615Y-89070221D01*
X129640615Y-92100000D01*
X129666903Y-92239708D01*
X129749470Y-92368020D01*
X129875453Y-92454101D01*
X130025000Y-92484385D01*
X132225000Y-92484385D01*
X132364708Y-92458097D01*
X132493020Y-92375530D01*
X132579101Y-92249547D01*
X132609385Y-92100000D01*
X132609385Y-89000000D01*
X132583097Y-88860292D01*
X132500530Y-88731980D01*
X132374547Y-88645899D01*
X132225000Y-88615615D01*
X130045221Y-88615615D01*
X129682271Y-88252665D01*
X130432935Y-87502000D01*
X152882064Y-87502000D01*
X153588737Y-88208672D01*
X153498962Y-88660000D01*
X153592362Y-89129553D01*
X153858342Y-89527620D01*
X154256409Y-89793600D01*
X154725962Y-89887000D01*
X154774038Y-89887000D01*
X155243591Y-89793600D01*
X155641658Y-89527620D01*
X155907638Y-89129553D01*
X156001038Y-88660000D01*
X155907638Y-88190447D01*
X155641658Y-87792380D01*
X155243591Y-87526400D01*
X154774038Y-87433000D01*
X154725962Y-87433000D01*
X154314734Y-87514798D01*
X153444968Y-86645032D01*
X153410498Y-86622000D01*
X153614042Y-86622000D01*
X153858342Y-86987620D01*
X154256409Y-87253600D01*
X154725962Y-87347000D01*
X154774038Y-87347000D01*
X155243591Y-87253600D01*
X155641658Y-86987620D01*
X155907638Y-86589553D01*
X156001038Y-86120000D01*
X155907638Y-85650447D01*
X155641658Y-85252380D01*
X155243591Y-84986400D01*
X154774038Y-84893000D01*
X154725962Y-84893000D01*
X154256409Y-84986400D01*
X153858342Y-85252380D01*
X153614042Y-85618000D01*
X153421936Y-85618000D01*
X154314734Y-84725202D01*
X154725962Y-84807000D01*
X154774038Y-84807000D01*
X155243591Y-84713600D01*
X155641658Y-84447620D01*
X155907638Y-84049553D01*
X156001038Y-83580000D01*
X155907638Y-83110447D01*
X155641658Y-82712380D01*
X155243591Y-82446400D01*
X154774038Y-82353000D01*
X154725962Y-82353000D01*
X154256409Y-82446400D01*
X153858342Y-82712380D01*
X153592362Y-83110447D01*
X153498962Y-83580000D01*
X153588737Y-84031327D01*
X152622064Y-84998000D01*
X151501936Y-84998000D01*
X154314734Y-82185202D01*
X154725962Y-82267000D01*
X154774038Y-82267000D01*
X155243591Y-82173600D01*
X155641658Y-81907620D01*
X155907638Y-81509553D01*
X156001038Y-81040000D01*
X155907638Y-80570447D01*
X155641658Y-80172380D01*
X155361224Y-79985000D01*
X155726309Y-79985000D01*
X155959698Y-79888327D01*
X156138327Y-79709699D01*
X156235000Y-79476310D01*
X156235000Y-78785750D01*
X156076250Y-78627000D01*
X154877000Y-78627000D01*
X154877000Y-78647000D01*
X154623000Y-78647000D01*
X154623000Y-78627000D01*
X153423750Y-78627000D01*
X153265000Y-78785750D01*
X153265000Y-79476310D01*
X153361673Y-79709699D01*
X153540302Y-79888327D01*
X153773691Y-79985000D01*
X154138776Y-79985000D01*
X153858342Y-80172380D01*
X153592362Y-80570447D01*
X153498962Y-81040000D01*
X153588737Y-81491328D01*
X150832064Y-84248000D01*
X128649705Y-84248000D01*
X128649700Y-84247999D01*
X128457593Y-84286212D01*
X128294732Y-84395032D01*
X128294730Y-84395035D01*
X120770032Y-91919732D01*
X120661212Y-92082593D01*
X120660284Y-92087259D01*
X120634698Y-92061673D01*
X120401309Y-91965000D01*
X120160750Y-91965000D01*
X120002000Y-92123750D01*
X120002000Y-93323000D01*
X120022000Y-93323000D01*
X120022000Y-93577000D01*
X120002000Y-93577000D01*
X120002000Y-93597000D01*
X119748000Y-93597000D01*
X119748000Y-93577000D01*
X118998750Y-93577000D01*
X118840000Y-93735750D01*
X118840000Y-94418000D01*
X116827221Y-94418000D01*
X116679345Y-94060114D01*
X116252135Y-93632158D01*
X115693673Y-93400264D01*
X115088980Y-93399736D01*
X114530114Y-93630655D01*
X114102158Y-94057865D01*
X113870264Y-94616327D01*
X113869736Y-95221020D01*
X114100655Y-95779886D01*
X114527865Y-96207842D01*
X115086327Y-96439736D01*
X115691020Y-96440264D01*
X116249886Y-96209345D01*
X116255203Y-96204037D01*
X134113642Y-96204037D01*
X135190000Y-97280395D01*
X136266358Y-96204037D01*
X136150194Y-95922342D01*
X135488667Y-95671938D01*
X134781671Y-95693751D01*
X134229806Y-95922342D01*
X134113642Y-96204037D01*
X116255203Y-96204037D01*
X116677842Y-95782135D01*
X116827383Y-95422000D01*
X125830295Y-95422000D01*
X125830300Y-95422001D01*
X126022407Y-95383788D01*
X126185268Y-95274968D01*
X126479965Y-94980270D01*
X126479968Y-94980268D01*
X126588788Y-94817407D01*
X126596975Y-94776250D01*
X126618757Y-94666743D01*
X126664708Y-94658097D01*
X126750503Y-94602889D01*
X126825453Y-94654101D01*
X126880964Y-94665342D01*
X126911212Y-94817407D01*
X127020032Y-94980268D01*
X127473430Y-95433665D01*
X127473432Y-95433668D01*
X127636293Y-95542488D01*
X127828400Y-95580700D01*
X140168353Y-95580700D01*
X140250655Y-95779886D01*
X140677865Y-96207842D01*
X141236327Y-96439736D01*
X141841020Y-96440264D01*
X142399886Y-96209345D01*
X142405203Y-96204037D01*
X160263642Y-96204037D01*
X161340000Y-97280395D01*
X162416358Y-96204037D01*
X162300194Y-95922342D01*
X161638667Y-95671938D01*
X160931671Y-95693751D01*
X160379806Y-95922342D01*
X160263642Y-96204037D01*
X142405203Y-96204037D01*
X142827842Y-95782135D01*
X143059736Y-95223673D01*
X143060264Y-94618980D01*
X142829345Y-94060114D01*
X142402135Y-93632158D01*
X141843673Y-93400264D01*
X141238980Y-93399736D01*
X140680114Y-93630655D01*
X140252158Y-94057865D01*
X140036719Y-94576700D01*
X129291202Y-94576700D01*
X129293020Y-94575530D01*
X129379101Y-94449547D01*
X129409385Y-94300000D01*
X129409385Y-93952000D01*
X139499995Y-93952000D01*
X139500000Y-93952001D01*
X139692107Y-93913788D01*
X139854968Y-93804968D01*
X140657936Y-93002000D01*
X142292064Y-93002000D01*
X143095032Y-93804968D01*
X143257893Y-93913788D01*
X143450000Y-93952001D01*
X143450005Y-93952000D01*
X166012064Y-93952000D01*
X166318764Y-94258700D01*
X166170264Y-94616327D01*
X166169736Y-95221020D01*
X166400655Y-95779886D01*
X166827865Y-96207842D01*
X166877374Y-96228400D01*
X166873000Y-96250000D01*
X166873000Y-98370121D01*
X166494761Y-97991221D01*
X165623670Y-97629512D01*
X164778515Y-97628775D01*
X164750000Y-97623000D01*
X163123876Y-97623000D01*
X163106249Y-97051671D01*
X162877658Y-96499806D01*
X162595963Y-96383642D01*
X161519605Y-97460000D01*
X162595963Y-98536358D01*
X162877658Y-98420194D01*
X162988639Y-98127000D01*
X163670383Y-98127000D01*
X163141221Y-98655239D01*
X162779512Y-99526330D01*
X162778689Y-100469532D01*
X163138877Y-101341253D01*
X163805239Y-102008779D01*
X164660946Y-102364100D01*
X139486984Y-102364100D01*
X140341253Y-102011123D01*
X141008779Y-101344761D01*
X141370488Y-100473670D01*
X141371311Y-99530468D01*
X141034765Y-98715963D01*
X160263642Y-98715963D01*
X160379806Y-98997658D01*
X161041333Y-99248062D01*
X161748329Y-99226249D01*
X162300194Y-98997658D01*
X162416358Y-98715963D01*
X161340000Y-97639605D01*
X160263642Y-98715963D01*
X141034765Y-98715963D01*
X141011123Y-98658747D01*
X140344761Y-97991221D01*
X139473670Y-97629512D01*
X138779164Y-97628906D01*
X138750000Y-97623000D01*
X136973876Y-97623000D01*
X136959633Y-97161333D01*
X159551938Y-97161333D01*
X159573751Y-97868329D01*
X159802342Y-98420194D01*
X160084037Y-98536358D01*
X161160395Y-97460000D01*
X160084037Y-96383642D01*
X159802342Y-96499806D01*
X159551938Y-97161333D01*
X136959633Y-97161333D01*
X136956249Y-97051671D01*
X136727658Y-96499806D01*
X136445963Y-96383642D01*
X135369605Y-97460000D01*
X136445963Y-98536358D01*
X136727658Y-98420194D01*
X136838639Y-98127000D01*
X137520383Y-98127000D01*
X136991221Y-98655239D01*
X136629512Y-99526330D01*
X136628689Y-100469532D01*
X136988877Y-101341253D01*
X137655239Y-102008779D01*
X138510946Y-102364100D01*
X123110435Y-102364100D01*
X122102000Y-101355664D01*
X122102000Y-99455463D01*
X122173598Y-99383990D01*
X122276882Y-99135254D01*
X122277117Y-98865927D01*
X122215154Y-98715963D01*
X134113642Y-98715963D01*
X134229806Y-98997658D01*
X134891333Y-99248062D01*
X135598329Y-99226249D01*
X136150194Y-98997658D01*
X136266358Y-98715963D01*
X135190000Y-97639605D01*
X134113642Y-98715963D01*
X122215154Y-98715963D01*
X122174267Y-98617011D01*
X121983990Y-98426402D01*
X121735254Y-98323118D01*
X121465927Y-98322883D01*
X121217011Y-98425733D01*
X121026402Y-98616010D01*
X120923118Y-98864746D01*
X120922883Y-99134073D01*
X121025733Y-99382989D01*
X121098000Y-99455382D01*
X121098000Y-101355665D01*
X120705664Y-101748000D01*
X116205463Y-101748000D01*
X116133990Y-101676402D01*
X115885254Y-101573118D01*
X115752608Y-101573002D01*
X115089803Y-100910197D01*
X115051022Y-100883700D01*
X115050294Y-100883542D01*
X115220488Y-100473670D01*
X115221311Y-99530468D01*
X114861123Y-98658747D01*
X114194761Y-97991221D01*
X113323670Y-97629512D01*
X112528731Y-97628818D01*
X112500000Y-97623000D01*
X110823876Y-97623000D01*
X110809633Y-97161333D01*
X133401938Y-97161333D01*
X133423751Y-97868329D01*
X133652342Y-98420194D01*
X133934037Y-98536358D01*
X135010395Y-97460000D01*
X133934037Y-96383642D01*
X133652342Y-96499806D01*
X133401938Y-97161333D01*
X110809633Y-97161333D01*
X110806249Y-97051671D01*
X110577658Y-96499806D01*
X110295963Y-96383642D01*
X109219605Y-97460000D01*
X110295963Y-98536358D01*
X110577658Y-98420194D01*
X110688639Y-98127000D01*
X111370383Y-98127000D01*
X110841221Y-98655239D01*
X110479512Y-99526330D01*
X110478689Y-100469532D01*
X110838877Y-101341253D01*
X111505239Y-102008779D01*
X112376330Y-102370488D01*
X113319532Y-102371311D01*
X114191253Y-102011123D01*
X114761883Y-101441489D01*
X115181407Y-101861013D01*
X115176402Y-101866010D01*
X115073118Y-102114746D01*
X115072883Y-102384073D01*
X115175733Y-102632989D01*
X115366010Y-102823598D01*
X115614746Y-102926882D01*
X115884073Y-102927117D01*
X116132989Y-102824267D01*
X116205382Y-102752000D01*
X120913595Y-102752000D01*
X120913600Y-102752001D01*
X121105707Y-102713788D01*
X121268568Y-102604968D01*
X121600000Y-102273536D01*
X122547530Y-103221065D01*
X122547532Y-103221068D01*
X122590967Y-103250090D01*
X122710392Y-103329888D01*
X122902500Y-103368100D01*
X138544537Y-103368100D01*
X138616010Y-103439698D01*
X138864746Y-103542982D01*
X138873000Y-103542989D01*
X138873000Y-109048000D01*
X106794517Y-109048000D01*
X106658635Y-109020971D01*
X107387375Y-108292231D01*
X107435376Y-108340316D01*
X108125004Y-108626674D01*
X108871720Y-108627325D01*
X109561846Y-108342171D01*
X110090316Y-107814624D01*
X110376674Y-107124996D01*
X110377325Y-106378280D01*
X110092171Y-105688154D01*
X109564624Y-105159684D01*
X108874996Y-104873326D01*
X108128280Y-104872675D01*
X107438154Y-105157829D01*
X106909684Y-105685376D01*
X106623326Y-106375004D01*
X106622675Y-107121720D01*
X106907829Y-107811846D01*
X106958144Y-107862250D01*
X106229029Y-108591365D01*
X106202000Y-108455483D01*
X106202000Y-98715963D01*
X107963642Y-98715963D01*
X108079806Y-98997658D01*
X108741333Y-99248062D01*
X109448329Y-99226249D01*
X110000194Y-98997658D01*
X110116358Y-98715963D01*
X109040000Y-97639605D01*
X107963642Y-98715963D01*
X106202000Y-98715963D01*
X106202000Y-97161333D01*
X107251938Y-97161333D01*
X107273751Y-97868329D01*
X107502342Y-98420194D01*
X107784037Y-98536358D01*
X108860395Y-97460000D01*
X107784037Y-96383642D01*
X107502342Y-96499806D01*
X107251938Y-97161333D01*
X106202000Y-97161333D01*
X106202000Y-96204037D01*
X107963642Y-96204037D01*
X109040000Y-97280395D01*
X110116358Y-96204037D01*
X110000194Y-95922342D01*
X109338667Y-95671938D01*
X108631671Y-95693751D01*
X108079806Y-95922342D01*
X107963642Y-96204037D01*
X106202000Y-96204037D01*
X106202000Y-84861936D01*
X106838737Y-85498672D01*
X106748962Y-85950000D01*
X106842362Y-86419553D01*
X107108342Y-86817620D01*
X107506409Y-87083600D01*
X107975962Y-87177000D01*
X108024038Y-87177000D01*
X108493591Y-87083600D01*
X108891658Y-86817620D01*
X109157638Y-86419553D01*
X109251038Y-85950000D01*
X109157638Y-85480447D01*
X108891658Y-85082380D01*
X108493591Y-84816400D01*
X108024038Y-84723000D01*
X107975962Y-84723000D01*
X107564734Y-84804798D01*
X106587400Y-83827464D01*
X106587400Y-82707336D01*
X106838737Y-82958672D01*
X106748962Y-83410000D01*
X106842362Y-83879553D01*
X107108342Y-84277620D01*
X107506409Y-84543600D01*
X107975962Y-84637000D01*
X108024038Y-84637000D01*
X108493591Y-84543600D01*
X108891658Y-84277620D01*
X109157638Y-83879553D01*
X109251038Y-83410000D01*
X109157638Y-82940447D01*
X108891658Y-82542380D01*
X108493591Y-82276400D01*
X108024038Y-82183000D01*
X107975962Y-82183000D01*
X107564734Y-82264798D01*
X107076700Y-81776764D01*
X107076700Y-81690264D01*
X107108342Y-81737620D01*
X107506409Y-82003600D01*
X107975962Y-82097000D01*
X108024038Y-82097000D01*
X108493591Y-82003600D01*
X108891658Y-81737620D01*
X109157638Y-81339553D01*
X109251038Y-80870000D01*
X109161263Y-80418672D01*
X109377934Y-80202001D01*
X128100950Y-80202001D01*
X128175733Y-80382989D01*
X128366010Y-80573598D01*
X128614746Y-80676882D01*
X128884073Y-80677117D01*
X129132989Y-80574267D01*
X129323598Y-80383990D01*
X129426882Y-80135254D01*
X129427117Y-79865927D01*
X129324267Y-79617011D01*
X129133990Y-79426402D01*
X128885254Y-79323118D01*
X128772023Y-79323019D01*
X128642108Y-79236213D01*
X128450001Y-79198000D01*
X128449996Y-79198001D01*
X109169999Y-79198001D01*
X108977892Y-79236213D01*
X108815031Y-79345033D01*
X108815029Y-79345036D01*
X108435266Y-79724798D01*
X108024038Y-79643000D01*
X107975962Y-79643000D01*
X107506409Y-79736400D01*
X107108342Y-80002380D01*
X107076700Y-80049736D01*
X107076700Y-79150264D01*
X107108342Y-79197620D01*
X107506409Y-79463600D01*
X107975962Y-79557000D01*
X108024038Y-79557000D01*
X108493591Y-79463600D01*
X108891658Y-79197620D01*
X109157638Y-78799553D01*
X109251038Y-78330000D01*
X109157638Y-77860447D01*
X108891658Y-77462380D01*
X108493591Y-77196400D01*
X108024038Y-77103000D01*
X107975962Y-77103000D01*
X107506409Y-77196400D01*
X107108342Y-77462380D01*
X107076700Y-77509736D01*
X107076700Y-76610264D01*
X107108342Y-76657620D01*
X107506409Y-76923600D01*
X107975962Y-77017000D01*
X108024038Y-77017000D01*
X108493591Y-76923600D01*
X108891658Y-76657620D01*
X108982544Y-76521600D01*
X126820737Y-76521600D01*
X126892210Y-76593198D01*
X127140946Y-76696482D01*
X127410273Y-76696717D01*
X127659189Y-76593867D01*
X127849798Y-76403590D01*
X127953082Y-76154854D01*
X127953171Y-76052565D01*
X141485900Y-62519836D01*
X141485900Y-64864910D01*
X141385254Y-64823118D01*
X141115927Y-64822883D01*
X140867011Y-64925733D01*
X140676402Y-65116010D01*
X140573118Y-65364746D01*
X140572883Y-65634073D01*
X140675733Y-65882989D01*
X140717500Y-65924829D01*
X140717500Y-72614164D01*
X139153893Y-74177771D01*
X139052727Y-74177683D01*
X138803811Y-74280533D01*
X138613202Y-74470810D01*
X138509918Y-74719546D01*
X138509683Y-74988873D01*
X138612533Y-75237789D01*
X138802810Y-75428398D01*
X138824985Y-75437606D01*
X138731447Y-75456212D01*
X138568586Y-75565032D01*
X138135618Y-75998000D01*
X133340952Y-75998000D01*
X133340947Y-75997999D01*
X133148840Y-76036212D01*
X132985979Y-76145032D01*
X130485979Y-78645032D01*
X130377159Y-78807893D01*
X130338946Y-79000000D01*
X130338947Y-79000005D01*
X130338947Y-79701117D01*
X128292064Y-81748000D01*
X124500005Y-81748000D01*
X124500000Y-81747999D01*
X124307893Y-81786212D01*
X124145032Y-81895032D01*
X124145030Y-81895035D01*
X118902063Y-87138001D01*
X108849999Y-87138001D01*
X108657891Y-87176213D01*
X108495031Y-87285033D01*
X108435266Y-87344798D01*
X108024038Y-87263000D01*
X107975962Y-87263000D01*
X107506409Y-87356400D01*
X107108342Y-87622380D01*
X106842362Y-88020447D01*
X106748962Y-88490000D01*
X106842362Y-88959553D01*
X107108342Y-89357620D01*
X107506409Y-89623600D01*
X107975962Y-89717000D01*
X108024038Y-89717000D01*
X108493591Y-89623600D01*
X108891658Y-89357620D01*
X109157638Y-88959553D01*
X109251038Y-88490000D01*
X109181817Y-88142001D01*
X114398064Y-88142001D01*
X112012064Y-90528000D01*
X109135958Y-90528000D01*
X108891658Y-90162380D01*
X108493591Y-89896400D01*
X108024038Y-89803000D01*
X107975962Y-89803000D01*
X107506409Y-89896400D01*
X107108342Y-90162380D01*
X106842362Y-90560447D01*
X106748962Y-91030000D01*
X106842362Y-91499553D01*
X107108342Y-91897620D01*
X107506409Y-92163600D01*
X107975962Y-92257000D01*
X108024038Y-92257000D01*
X108493591Y-92163600D01*
X108891658Y-91897620D01*
X109135958Y-91532000D01*
X112219995Y-91532000D01*
X112220000Y-91532001D01*
X112412107Y-91493788D01*
X112574968Y-91384968D01*
X115207935Y-88752000D01*
X115988169Y-88752000D01*
X115920899Y-88850453D01*
X115890615Y-89000000D01*
X115890615Y-92100000D01*
X115916903Y-92239708D01*
X115999470Y-92368020D01*
X116125453Y-92454101D01*
X116275000Y-92484385D01*
X118475000Y-92484385D01*
X118531838Y-92473690D01*
X118840000Y-92473690D01*
X118840000Y-93164250D01*
X118998750Y-93323000D01*
X119748000Y-93323000D01*
X119748000Y-92123750D01*
X119589250Y-91965000D01*
X119348691Y-91965000D01*
X119115302Y-92061673D01*
X118936673Y-92240301D01*
X118840000Y-92473690D01*
X118531838Y-92473690D01*
X118614708Y-92458097D01*
X118743020Y-92375530D01*
X118829101Y-92249547D01*
X118859385Y-92100000D01*
X118859385Y-89000000D01*
X118833097Y-88860292D01*
X118763413Y-88752000D01*
X119249995Y-88752000D01*
X119250000Y-88752001D01*
X119442107Y-88713788D01*
X119604968Y-88604968D01*
X124957935Y-83252000D01*
X128899995Y-83252000D01*
X128900000Y-83252001D01*
X129092107Y-83213788D01*
X129254968Y-83104968D01*
X130572570Y-81787365D01*
X130624470Y-81868020D01*
X130750453Y-81954101D01*
X130900000Y-81984385D01*
X131800000Y-81984385D01*
X131939708Y-81958097D01*
X132068020Y-81875530D01*
X132154101Y-81749547D01*
X132184385Y-81600000D01*
X132184385Y-80400000D01*
X132158097Y-80260292D01*
X132075530Y-80131980D01*
X131949547Y-80045899D01*
X131852000Y-80026145D01*
X131852000Y-79335294D01*
X132669949Y-78517345D01*
X132669736Y-78761020D01*
X132900655Y-79319886D01*
X133327865Y-79747842D01*
X133824646Y-79954124D01*
X133835032Y-79969668D01*
X133967182Y-80101818D01*
X133931980Y-80124470D01*
X133845899Y-80250453D01*
X133815615Y-80400000D01*
X133815615Y-81600000D01*
X133841903Y-81739708D01*
X133924470Y-81868020D01*
X134050453Y-81954101D01*
X134200000Y-81984385D01*
X135100000Y-81984385D01*
X135239708Y-81958097D01*
X135368020Y-81875530D01*
X135454101Y-81749547D01*
X135484385Y-81600000D01*
X135484385Y-80627000D01*
X135629424Y-80627000D01*
X135628689Y-81469532D01*
X135988877Y-82341253D01*
X136655239Y-83008779D01*
X137526330Y-83370488D01*
X138469532Y-83371311D01*
X139341253Y-83011123D01*
X140008779Y-82344761D01*
X140370488Y-81473670D01*
X140371311Y-80530468D01*
X140011123Y-79658747D01*
X139344761Y-78991221D01*
X138473670Y-78629512D01*
X137530468Y-78628689D01*
X136658747Y-78988877D01*
X135991221Y-79655239D01*
X135796989Y-80123000D01*
X135362387Y-80123000D01*
X135249547Y-80045899D01*
X135141937Y-80024107D01*
X135137615Y-80002380D01*
X135113788Y-79882592D01*
X135063875Y-79807893D01*
X135030192Y-79757482D01*
X135049886Y-79749345D01*
X135477842Y-79322135D01*
X135709736Y-78763673D01*
X135710264Y-78158980D01*
X135479345Y-77600114D01*
X135373415Y-77493999D01*
X139146062Y-77493999D01*
X139395030Y-77742966D01*
X139395032Y-77742969D01*
X139492660Y-77808201D01*
X139557892Y-77851789D01*
X139750000Y-77890001D01*
X141191394Y-77890001D01*
X141191399Y-77890002D01*
X141383506Y-77851789D01*
X141546367Y-77742969D01*
X141765645Y-77523690D01*
X153265000Y-77523690D01*
X153265000Y-78214250D01*
X153423750Y-78373000D01*
X154623000Y-78373000D01*
X154623000Y-77173750D01*
X154877000Y-77173750D01*
X154877000Y-78373000D01*
X156076250Y-78373000D01*
X156235000Y-78214250D01*
X156235000Y-77523690D01*
X156138327Y-77290301D01*
X155959698Y-77111673D01*
X155726309Y-77015000D01*
X155035750Y-77015000D01*
X154877000Y-77173750D01*
X154623000Y-77173750D01*
X154464250Y-77015000D01*
X153773691Y-77015000D01*
X153540302Y-77111673D01*
X153361673Y-77290301D01*
X153265000Y-77523690D01*
X141765645Y-77523690D01*
X142809965Y-76479370D01*
X142809968Y-76479368D01*
X142918788Y-76316507D01*
X142937254Y-76223673D01*
X142957001Y-76124400D01*
X142957000Y-76124395D01*
X142957000Y-62252936D01*
X143854965Y-61354970D01*
X143854968Y-61354968D01*
X143926442Y-61248000D01*
X143963788Y-61192108D01*
X143975807Y-61131685D01*
X144002001Y-61000000D01*
X144002000Y-60999995D01*
X144002000Y-59045000D01*
X143963788Y-58852893D01*
X143963788Y-58852892D01*
X143920200Y-58787660D01*
X143854968Y-58690032D01*
X143854965Y-58690030D01*
X142957000Y-57792064D01*
X142957000Y-49250005D01*
X142957001Y-49250000D01*
X142918788Y-49057893D01*
X142891726Y-49017392D01*
X142809968Y-48895032D01*
X142809965Y-48895030D01*
X141352000Y-47437064D01*
X141352000Y-43974600D01*
X141439708Y-43958097D01*
X141568020Y-43875530D01*
X141654101Y-43749547D01*
X141684385Y-43600000D01*
X141684385Y-42400000D01*
X141658097Y-42260292D01*
X141575530Y-42131980D01*
X141449547Y-42045899D01*
X141300000Y-42015615D01*
X140400000Y-42015615D01*
X140260292Y-42041903D01*
X140131980Y-42124470D01*
X140045899Y-42250453D01*
X140015615Y-42400000D01*
X140015615Y-43600000D01*
X140041903Y-43739708D01*
X140124470Y-43868020D01*
X140250453Y-43954101D01*
X140348000Y-43973855D01*
X140348000Y-47644995D01*
X140347999Y-47645000D01*
X140367650Y-47743789D01*
X138874459Y-47123762D01*
X137133181Y-47122242D01*
X137075628Y-47146022D01*
X136629344Y-46699738D01*
X136676882Y-46585254D01*
X136677117Y-46315927D01*
X136574267Y-46067011D01*
X136383990Y-45876402D01*
X136135254Y-45773118D01*
X135865927Y-45772883D01*
X135617011Y-45875733D01*
X135544618Y-45948000D01*
X132205463Y-45948000D01*
X132133990Y-45876402D01*
X131885254Y-45773118D01*
X131615927Y-45772883D01*
X131367011Y-45875733D01*
X131176402Y-46066010D01*
X131073118Y-46314746D01*
X131072883Y-46584073D01*
X131175733Y-46832989D01*
X131366010Y-47023598D01*
X131614746Y-47126882D01*
X131884073Y-47127117D01*
X132132989Y-47024267D01*
X132205382Y-46952000D01*
X135544537Y-46952000D01*
X135616010Y-47023598D01*
X135864746Y-47126882D01*
X136134073Y-47127117D01*
X136178963Y-47108569D01*
X136467634Y-47397240D01*
X135523868Y-47787197D01*
X134291524Y-49017392D01*
X133623762Y-50625541D01*
X133622242Y-52366819D01*
X134287197Y-53976132D01*
X135517392Y-55208476D01*
X137125541Y-55876238D01*
X138866819Y-55877758D01*
X140476132Y-55212803D01*
X141708476Y-53982608D01*
X141953000Y-53393729D01*
X141953000Y-56359382D01*
X141829345Y-56060114D01*
X141402135Y-55632158D01*
X140843673Y-55400264D01*
X140238980Y-55399736D01*
X139680114Y-55630655D01*
X139252158Y-56057865D01*
X139020264Y-56616327D01*
X139019736Y-57221020D01*
X139250655Y-57779886D01*
X139677865Y-58207842D01*
X140236327Y-58439736D01*
X140841020Y-58440264D01*
X141201416Y-58291351D01*
X142233004Y-59322939D01*
X142168527Y-59322883D01*
X141919611Y-59425733D01*
X141729002Y-59616010D01*
X141625718Y-59864746D01*
X141625629Y-59967036D01*
X140996032Y-60596632D01*
X140887212Y-60759493D01*
X140848999Y-60951600D01*
X140849000Y-60951605D01*
X140849000Y-61736864D01*
X140370714Y-62215150D01*
X140371311Y-61530468D01*
X140011123Y-60658747D01*
X139344761Y-59991221D01*
X138473670Y-59629512D01*
X137530468Y-59628689D01*
X136658747Y-59988877D01*
X135991221Y-60655239D01*
X135796989Y-61123000D01*
X135362387Y-61123000D01*
X135249547Y-61045899D01*
X135152000Y-61026145D01*
X135152000Y-60647409D01*
X135477842Y-60322135D01*
X135709736Y-59763673D01*
X135710264Y-59158980D01*
X135479345Y-58600114D01*
X135052135Y-58172158D01*
X134493673Y-57940264D01*
X133888980Y-57939736D01*
X133330114Y-58170655D01*
X132902158Y-58597865D01*
X132670264Y-59156327D01*
X132669736Y-59761020D01*
X132900655Y-60319886D01*
X133327865Y-60747842D01*
X133886327Y-60979736D01*
X134148000Y-60979964D01*
X134148000Y-61025400D01*
X134060292Y-61041903D01*
X133931980Y-61124470D01*
X133845899Y-61250453D01*
X133815615Y-61400000D01*
X133815615Y-62600000D01*
X133841903Y-62739708D01*
X133924470Y-62868020D01*
X134050453Y-62954101D01*
X134200000Y-62984385D01*
X135100000Y-62984385D01*
X135239708Y-62958097D01*
X135368020Y-62875530D01*
X135454101Y-62749547D01*
X135484385Y-62600000D01*
X135484385Y-61627000D01*
X135629424Y-61627000D01*
X135628689Y-62469532D01*
X135988877Y-63341253D01*
X136655239Y-64008779D01*
X137526330Y-64370488D01*
X138214775Y-64371089D01*
X127243293Y-75342571D01*
X127142127Y-75342483D01*
X126893211Y-75445333D01*
X126820818Y-75517600D01*
X109196854Y-75517600D01*
X109157638Y-75320447D01*
X108978934Y-75052998D01*
X119724297Y-75052998D01*
X119724302Y-75052999D01*
X119916409Y-75014786D01*
X120079270Y-74905966D01*
X131704965Y-63280270D01*
X131704968Y-63280268D01*
X131813788Y-63117407D01*
X131816262Y-63104968D01*
X131841813Y-62976517D01*
X131939708Y-62958097D01*
X132068020Y-62875530D01*
X132154101Y-62749547D01*
X132184385Y-62600000D01*
X132184385Y-61400000D01*
X132158097Y-61260292D01*
X132075530Y-61131980D01*
X131949547Y-61045899D01*
X131852000Y-61026145D01*
X131852000Y-57000000D01*
X131813788Y-56807893D01*
X131813788Y-56807892D01*
X131760334Y-56727893D01*
X131704968Y-56645032D01*
X131704965Y-56645030D01*
X128186663Y-53126727D01*
X128822211Y-53127282D01*
X129420418Y-52880108D01*
X129878499Y-52422825D01*
X130126717Y-51825050D01*
X130127282Y-51177789D01*
X129880108Y-50579582D01*
X129422825Y-50121501D01*
X128825050Y-49873283D01*
X128177789Y-49872718D01*
X127579582Y-50119892D01*
X127121501Y-50577175D01*
X126873283Y-51174950D01*
X126872726Y-51812791D01*
X124752000Y-49692064D01*
X124752000Y-46984385D01*
X124850000Y-46984385D01*
X124989708Y-46958097D01*
X125118020Y-46875530D01*
X125204101Y-46749547D01*
X125234385Y-46600000D01*
X125234385Y-45700000D01*
X125208097Y-45560292D01*
X125125530Y-45431980D01*
X124999547Y-45345899D01*
X124850000Y-45315615D01*
X123650000Y-45315615D01*
X123510292Y-45341903D01*
X123381980Y-45424470D01*
X123295899Y-45550453D01*
X123265615Y-45700000D01*
X123265615Y-46600000D01*
X123291903Y-46739708D01*
X123374470Y-46868020D01*
X123500453Y-46954101D01*
X123650000Y-46984385D01*
X123748000Y-46984385D01*
X123748000Y-49899995D01*
X123747999Y-49900000D01*
X123786212Y-50092107D01*
X123895032Y-50254968D01*
X130848000Y-57207935D01*
X130848000Y-58547418D01*
X130422825Y-58121501D01*
X129825050Y-57873283D01*
X129177789Y-57872718D01*
X128579582Y-58119892D01*
X128121501Y-58577175D01*
X127873283Y-59174950D01*
X127872718Y-59822211D01*
X128119892Y-60420418D01*
X128577175Y-60878499D01*
X129174950Y-61126717D01*
X129822211Y-61127282D01*
X130420418Y-60880108D01*
X130848000Y-60453271D01*
X130848000Y-61025400D01*
X130760292Y-61041903D01*
X130631980Y-61124470D01*
X130545899Y-61250453D01*
X130515615Y-61400000D01*
X130515615Y-62600000D01*
X130541903Y-62739708D01*
X130624470Y-62868020D01*
X130667764Y-62897601D01*
X119516366Y-74048998D01*
X109234385Y-74048998D01*
X109234385Y-72400000D01*
X109222606Y-72337400D01*
X118599095Y-72337400D01*
X118599100Y-72337401D01*
X118791207Y-72299188D01*
X118954068Y-72190368D01*
X120595714Y-70548721D01*
X120608342Y-70567620D01*
X121006409Y-70833600D01*
X121475962Y-70927000D01*
X121524038Y-70927000D01*
X121993591Y-70833600D01*
X122391658Y-70567620D01*
X122657638Y-70169553D01*
X122751038Y-69700000D01*
X122657638Y-69230447D01*
X122391658Y-68832380D01*
X121993591Y-68566400D01*
X121524038Y-68473000D01*
X121475962Y-68473000D01*
X121006409Y-68566400D01*
X120826600Y-68686545D01*
X120826600Y-68173455D01*
X121006409Y-68293600D01*
X121475962Y-68387000D01*
X121524038Y-68387000D01*
X121993591Y-68293600D01*
X122391658Y-68027620D01*
X122657638Y-67629553D01*
X122751038Y-67160000D01*
X122657638Y-66690447D01*
X122391658Y-66292380D01*
X121993591Y-66026400D01*
X121524038Y-65933000D01*
X121475962Y-65933000D01*
X121006409Y-66026400D01*
X120826600Y-66146545D01*
X120826600Y-65633455D01*
X121006409Y-65753600D01*
X121475962Y-65847000D01*
X121524038Y-65847000D01*
X121993591Y-65753600D01*
X122391658Y-65487620D01*
X122657638Y-65089553D01*
X122751038Y-64620000D01*
X122657638Y-64150447D01*
X122391658Y-63752380D01*
X121993591Y-63486400D01*
X121524038Y-63393000D01*
X121475962Y-63393000D01*
X121006409Y-63486400D01*
X120826600Y-63606545D01*
X120826600Y-63093455D01*
X121006409Y-63213600D01*
X121475962Y-63307000D01*
X121524038Y-63307000D01*
X121993591Y-63213600D01*
X122391658Y-62947620D01*
X122657638Y-62549553D01*
X122751038Y-62080000D01*
X122657638Y-61610447D01*
X122391658Y-61212380D01*
X121993591Y-60946400D01*
X121524038Y-60853000D01*
X121475962Y-60853000D01*
X121006409Y-60946400D01*
X120826600Y-61066545D01*
X120826600Y-60553455D01*
X121006409Y-60673600D01*
X121475962Y-60767000D01*
X121524038Y-60767000D01*
X121993591Y-60673600D01*
X122391658Y-60407620D01*
X122568428Y-60143064D01*
X126645030Y-64219665D01*
X126645032Y-64219668D01*
X126708271Y-64282907D01*
X126708183Y-64384073D01*
X126811033Y-64632989D01*
X127001310Y-64823598D01*
X127250046Y-64926882D01*
X127519373Y-64927117D01*
X127768289Y-64824267D01*
X127958898Y-64633990D01*
X128062182Y-64385254D01*
X128062417Y-64115927D01*
X127959567Y-63867011D01*
X127769290Y-63676402D01*
X127520554Y-63573118D01*
X127418265Y-63573029D01*
X127354968Y-63509732D01*
X127354965Y-63509730D01*
X123030268Y-59185032D01*
X122867407Y-59076212D01*
X122675300Y-59037999D01*
X122675295Y-59038000D01*
X122635958Y-59038000D01*
X122391658Y-58672380D01*
X121993591Y-58406400D01*
X121524038Y-58313000D01*
X121475962Y-58313000D01*
X121006409Y-58406400D01*
X120826600Y-58526545D01*
X120826600Y-58234385D01*
X122350000Y-58234385D01*
X122489708Y-58208097D01*
X122618020Y-58125530D01*
X122704101Y-57999547D01*
X122734385Y-57850000D01*
X122734385Y-56150000D01*
X122708097Y-56010292D01*
X122625530Y-55881980D01*
X122499547Y-55795899D01*
X122350000Y-55765615D01*
X120826600Y-55765615D01*
X120826600Y-42860694D01*
X123169949Y-40517345D01*
X123169736Y-40761020D01*
X123400655Y-41319886D01*
X123748000Y-41667838D01*
X123748000Y-42015615D01*
X123650000Y-42015615D01*
X123510292Y-42041903D01*
X123381980Y-42124470D01*
X123295899Y-42250453D01*
X123265615Y-42400000D01*
X123265615Y-43300000D01*
X123291903Y-43439708D01*
X123374470Y-43568020D01*
X123500453Y-43654101D01*
X123650000Y-43684385D01*
X124850000Y-43684385D01*
X124989708Y-43658097D01*
X125118020Y-43575530D01*
X125204101Y-43449547D01*
X125234385Y-43300000D01*
X125234385Y-42400000D01*
X125208097Y-42260292D01*
X125125530Y-42131980D01*
X124999547Y-42045899D01*
X124850000Y-42015615D01*
X124752000Y-42015615D01*
X124752000Y-41980055D01*
X124991020Y-41980264D01*
X125549886Y-41749345D01*
X125575910Y-41723367D01*
X126241748Y-42256037D01*
X126129512Y-42526330D01*
X126128689Y-43469532D01*
X126488877Y-44341253D01*
X127155239Y-45008779D01*
X128026330Y-45370488D01*
X128969532Y-45371311D01*
X129841253Y-45011123D01*
X130508779Y-44344761D01*
X130870488Y-43473670D01*
X130871311Y-42530468D01*
X130511123Y-41658747D01*
X129844761Y-40991221D01*
X128973670Y-40629512D01*
X128030468Y-40628689D01*
X127158747Y-40988877D01*
X126491221Y-41655239D01*
X126483398Y-41674079D01*
X125994206Y-41282726D01*
X126209736Y-40763673D01*
X126210264Y-40158980D01*
X125979345Y-39600114D01*
X125552135Y-39172158D01*
X124993673Y-38940264D01*
X124747244Y-38940049D01*
X125265293Y-38422000D01*
X129602779Y-38422000D01*
X129750655Y-38779886D01*
X130177865Y-39207842D01*
X130736327Y-39439736D01*
X131341020Y-39440264D01*
X131899886Y-39209345D01*
X132327842Y-38782135D01*
X132477383Y-38422000D01*
X143373000Y-38422000D01*
X143373000Y-38946339D01*
X142830114Y-39170655D01*
X142402158Y-39597865D01*
X142170264Y-40156327D01*
X142169736Y-40761020D01*
X142400655Y-41319886D01*
X142827865Y-41747842D01*
X143386327Y-41979736D01*
X143648000Y-41979964D01*
X143648000Y-42025400D01*
X143560292Y-42041903D01*
X143431980Y-42124470D01*
X143345899Y-42250453D01*
X143315615Y-42400000D01*
X143315615Y-43600000D01*
X143341903Y-43739708D01*
X143424470Y-43868020D01*
X143550453Y-43954101D01*
X143700000Y-43984385D01*
X144600000Y-43984385D01*
X144739708Y-43958097D01*
X144868020Y-43875530D01*
X144954101Y-43749547D01*
X144984385Y-43600000D01*
X144984385Y-42627000D01*
X145129424Y-42627000D01*
X145128689Y-43469532D01*
X145488877Y-44341253D01*
X146155239Y-45008779D01*
X147026330Y-45370488D01*
X147123000Y-45370572D01*
X147123000Y-49895356D01*
X146579582Y-50119892D01*
X146121501Y-50577175D01*
X145873283Y-51174950D01*
X145872718Y-51822211D01*
X146119892Y-52420418D01*
X146577175Y-52878499D01*
X147123000Y-53105145D01*
X147123000Y-57997003D01*
X146825050Y-57873283D01*
X146177789Y-57872718D01*
X145579582Y-58119892D01*
X145121501Y-58577175D01*
X144873283Y-59174950D01*
X144872718Y-59822211D01*
X145119892Y-60420418D01*
X145577175Y-60878499D01*
X146174950Y-61126717D01*
X146822211Y-61127282D01*
X147420418Y-60880108D01*
X147878499Y-60422825D01*
X148126717Y-59825050D01*
X148127282Y-59177789D01*
X147880108Y-58579582D01*
X147610261Y-58309264D01*
X147616994Y-58299410D01*
X147627000Y-58250000D01*
X147627000Y-53127112D01*
X147822211Y-53127282D01*
X148420418Y-52880108D01*
X148878499Y-52422825D01*
X149126717Y-51825050D01*
X149127282Y-51177789D01*
X148880108Y-50579582D01*
X148422825Y-50121501D01*
X147825050Y-49873283D01*
X147627000Y-49873110D01*
X147627000Y-45371012D01*
X147969532Y-45371311D01*
X148841253Y-45011123D01*
X149508779Y-44344761D01*
X149870488Y-43473670D01*
X149871311Y-42530468D01*
X149511123Y-41658747D01*
X148844761Y-40991221D01*
X147973670Y-40629512D01*
X147030468Y-40628689D01*
X146158747Y-40988877D01*
X145491221Y-41655239D01*
X145296989Y-42123000D01*
X144862387Y-42123000D01*
X144749547Y-42045899D01*
X144652000Y-42026145D01*
X144652000Y-41647409D01*
X144977842Y-41322135D01*
X145209736Y-40763673D01*
X145210264Y-40158980D01*
X144979345Y-39600114D01*
X144552135Y-39172158D01*
X143993673Y-38940264D01*
X143877000Y-38940162D01*
X143877000Y-38422000D01*
X148602779Y-38422000D01*
X148750655Y-38779886D01*
X149177865Y-39207842D01*
X149736327Y-39439736D01*
X150341020Y-39440264D01*
X150899886Y-39209345D01*
X151327842Y-38782135D01*
X151559736Y-38223673D01*
X151560264Y-37618980D01*
X151329345Y-37060114D01*
X150902135Y-36632158D01*
X150343673Y-36400264D01*
X149738980Y-36399736D01*
X149180114Y-36630655D01*
X148752158Y-37057865D01*
X148602617Y-37418000D01*
X132477221Y-37418000D01*
X132329345Y-37060114D01*
X131902135Y-36632158D01*
X131343673Y-36400264D01*
X130738980Y-36399736D01*
X130180114Y-36630655D01*
X129752158Y-37057865D01*
X129602617Y-37418000D01*
X125057363Y-37418000D01*
X125057358Y-37417999D01*
X124865251Y-37456212D01*
X124702390Y-37565032D01*
X124702388Y-37565035D01*
X119969632Y-42297790D01*
X119860812Y-42460651D01*
X119822599Y-42652758D01*
X119822600Y-42652763D01*
X119822600Y-69901965D01*
X119452000Y-70272565D01*
X119452000Y-34544517D01*
X119479029Y-34408635D01*
X120707769Y-35637375D01*
X120659684Y-35685376D01*
X120373326Y-36375004D01*
X120372675Y-37121720D01*
X120657829Y-37811846D01*
X121185376Y-38340316D01*
X121875004Y-38626674D01*
X122621720Y-38627325D01*
X123311846Y-38342171D01*
X123840316Y-37814624D01*
X124126674Y-37124996D01*
X124127325Y-36378280D01*
X123842171Y-35688154D01*
X123314624Y-35159684D01*
X122624996Y-34873326D01*
X121878280Y-34872675D01*
X121188154Y-35157829D01*
X121137750Y-35208144D01*
X119908635Y-33979029D01*
X120044517Y-33952000D01*
X155955483Y-33952000D01*
X156091365Y-33979029D01*
X156091365Y-33979029D01*
G37*
X156091365Y-33979029D02*
X154862625Y-35207769D01*
X154814624Y-35159684D01*
X154124996Y-34873326D01*
X153378280Y-34872675D01*
X152688154Y-35157829D01*
X152159684Y-35685376D01*
X151873326Y-36375004D01*
X151872675Y-37121720D01*
X152157829Y-37811846D01*
X152685376Y-38340316D01*
X153375004Y-38626674D01*
X154121720Y-38627325D01*
X154811846Y-38342171D01*
X155340316Y-37814624D01*
X155626674Y-37124996D01*
X155627325Y-36378280D01*
X155342171Y-35688154D01*
X155291856Y-35637750D01*
X156520971Y-34408635D01*
X156548000Y-34544517D01*
X156548000Y-89500000D01*
X156556685Y-89543663D01*
X156556685Y-89588180D01*
X156632805Y-89970863D01*
X156632805Y-89970864D01*
X156660760Y-90038354D01*
X156700295Y-90133800D01*
X156700296Y-90133801D01*
X156917068Y-90458224D01*
X157041775Y-90582931D01*
X157366196Y-90799702D01*
X157366199Y-90799705D01*
X157458395Y-90837893D01*
X157529136Y-90867195D01*
X157529137Y-90867195D01*
X157911819Y-90943315D01*
X157956337Y-90943315D01*
X158000000Y-90952000D01*
X171205483Y-90952000D01*
X171456322Y-91001895D01*
X171631233Y-91118767D01*
X171748105Y-91293679D01*
X171798000Y-91544517D01*
X171798000Y-108455483D01*
X171770971Y-108591365D01*
X171042231Y-107862625D01*
X171090316Y-107814624D01*
X171376674Y-107124996D01*
X171377325Y-106378280D01*
X171092171Y-105688154D01*
X170564624Y-105159684D01*
X169874996Y-104873326D01*
X169128280Y-104872675D01*
X168438154Y-105157829D01*
X167909684Y-105685376D01*
X167623326Y-106375004D01*
X167622675Y-107121720D01*
X167907829Y-107811846D01*
X168435376Y-108340316D01*
X169125004Y-108626674D01*
X169871720Y-108627325D01*
X170561846Y-108342171D01*
X170612250Y-108291856D01*
X171341365Y-109020971D01*
X171205483Y-109048000D01*
X139377000Y-109048000D01*
X139377000Y-103442842D01*
X139382989Y-103440367D01*
X139455382Y-103368100D01*
X164794537Y-103368100D01*
X164866010Y-103439698D01*
X165114746Y-103542982D01*
X165384073Y-103543217D01*
X165632989Y-103440367D01*
X165823598Y-103250090D01*
X165926882Y-103001354D01*
X165927117Y-102732027D01*
X165824267Y-102483111D01*
X165685466Y-102344068D01*
X166491253Y-102011123D01*
X167158779Y-101344761D01*
X167520488Y-100473670D01*
X167521311Y-99530468D01*
X167377000Y-99181209D01*
X167377000Y-96435863D01*
X167386327Y-96439736D01*
X167991020Y-96440264D01*
X168549886Y-96209345D01*
X168977842Y-95782135D01*
X169209736Y-95223673D01*
X169210264Y-94618980D01*
X168979345Y-94060114D01*
X168552135Y-93632158D01*
X167993673Y-93400264D01*
X167388980Y-93399736D01*
X167028585Y-93548649D01*
X166574968Y-93095032D01*
X166412107Y-92986212D01*
X166220000Y-92947999D01*
X166219995Y-92948000D01*
X143657936Y-92948000D01*
X142854968Y-92145032D01*
X142692107Y-92036212D01*
X142500000Y-91997999D01*
X142499995Y-91998000D01*
X140450005Y-91998000D01*
X140450000Y-91997999D01*
X140257893Y-92036212D01*
X140095032Y-92145032D01*
X139292064Y-92948000D01*
X129409385Y-92948000D01*
X129409385Y-92600000D01*
X129383097Y-92460292D01*
X129300530Y-92331980D01*
X129174547Y-92245899D01*
X129025000Y-92215615D01*
X128225000Y-92215615D01*
X128085292Y-92241903D01*
X127999497Y-92297111D01*
X127924547Y-92245899D01*
X127775000Y-92215615D01*
X126975000Y-92215615D01*
X126835292Y-92241903D01*
X126749497Y-92297111D01*
X126674547Y-92245899D01*
X126525000Y-92215615D01*
X125725000Y-92215615D01*
X125718005Y-92216931D01*
X129252665Y-88682271D01*
X129640615Y-89070221D01*
X129640615Y-92100000D01*
X129666903Y-92239708D01*
X129749470Y-92368020D01*
X129875453Y-92454101D01*
X130025000Y-92484385D01*
X132225000Y-92484385D01*
X132364708Y-92458097D01*
X132493020Y-92375530D01*
X132579101Y-92249547D01*
X132609385Y-92100000D01*
X132609385Y-89000000D01*
X132583097Y-88860292D01*
X132500530Y-88731980D01*
X132374547Y-88645899D01*
X132225000Y-88615615D01*
X130045221Y-88615615D01*
X129682271Y-88252665D01*
X130432935Y-87502000D01*
X152882064Y-87502000D01*
X153588737Y-88208672D01*
X153498962Y-88660000D01*
X153592362Y-89129553D01*
X153858342Y-89527620D01*
X154256409Y-89793600D01*
X154725962Y-89887000D01*
X154774038Y-89887000D01*
X155243591Y-89793600D01*
X155641658Y-89527620D01*
X155907638Y-89129553D01*
X156001038Y-88660000D01*
X155907638Y-88190447D01*
X155641658Y-87792380D01*
X155243591Y-87526400D01*
X154774038Y-87433000D01*
X154725962Y-87433000D01*
X154314734Y-87514798D01*
X153444968Y-86645032D01*
X153410498Y-86622000D01*
X153614042Y-86622000D01*
X153858342Y-86987620D01*
X154256409Y-87253600D01*
X154725962Y-87347000D01*
X154774038Y-87347000D01*
X155243591Y-87253600D01*
X155641658Y-86987620D01*
X155907638Y-86589553D01*
X156001038Y-86120000D01*
X155907638Y-85650447D01*
X155641658Y-85252380D01*
X155243591Y-84986400D01*
X154774038Y-84893000D01*
X154725962Y-84893000D01*
X154256409Y-84986400D01*
X153858342Y-85252380D01*
X153614042Y-85618000D01*
X153421936Y-85618000D01*
X154314734Y-84725202D01*
X154725962Y-84807000D01*
X154774038Y-84807000D01*
X155243591Y-84713600D01*
X155641658Y-84447620D01*
X155907638Y-84049553D01*
X156001038Y-83580000D01*
X155907638Y-83110447D01*
X155641658Y-82712380D01*
X155243591Y-82446400D01*
X154774038Y-82353000D01*
X154725962Y-82353000D01*
X154256409Y-82446400D01*
X153858342Y-82712380D01*
X153592362Y-83110447D01*
X153498962Y-83580000D01*
X153588737Y-84031327D01*
X152622064Y-84998000D01*
X151501936Y-84998000D01*
X154314734Y-82185202D01*
X154725962Y-82267000D01*
X154774038Y-82267000D01*
X155243591Y-82173600D01*
X155641658Y-81907620D01*
X155907638Y-81509553D01*
X156001038Y-81040000D01*
X155907638Y-80570447D01*
X155641658Y-80172380D01*
X155361224Y-79985000D01*
X155726309Y-79985000D01*
X155959698Y-79888327D01*
X156138327Y-79709699D01*
X156235000Y-79476310D01*
X156235000Y-78785750D01*
X156076250Y-78627000D01*
X154877000Y-78627000D01*
X154877000Y-78647000D01*
X154623000Y-78647000D01*
X154623000Y-78627000D01*
X153423750Y-78627000D01*
X153265000Y-78785750D01*
X153265000Y-79476310D01*
X153361673Y-79709699D01*
X153540302Y-79888327D01*
X153773691Y-79985000D01*
X154138776Y-79985000D01*
X153858342Y-80172380D01*
X153592362Y-80570447D01*
X153498962Y-81040000D01*
X153588737Y-81491328D01*
X150832064Y-84248000D01*
X128649705Y-84248000D01*
X128649700Y-84247999D01*
X128457593Y-84286212D01*
X128294732Y-84395032D01*
X128294730Y-84395035D01*
X120770032Y-91919732D01*
X120661212Y-92082593D01*
X120660284Y-92087259D01*
X120634698Y-92061673D01*
X120401309Y-91965000D01*
X120160750Y-91965000D01*
X120002000Y-92123750D01*
X120002000Y-93323000D01*
X120022000Y-93323000D01*
X120022000Y-93577000D01*
X120002000Y-93577000D01*
X120002000Y-93597000D01*
X119748000Y-93597000D01*
X119748000Y-93577000D01*
X118998750Y-93577000D01*
X118840000Y-93735750D01*
X118840000Y-94418000D01*
X116827221Y-94418000D01*
X116679345Y-94060114D01*
X116252135Y-93632158D01*
X115693673Y-93400264D01*
X115088980Y-93399736D01*
X114530114Y-93630655D01*
X114102158Y-94057865D01*
X113870264Y-94616327D01*
X113869736Y-95221020D01*
X114100655Y-95779886D01*
X114527865Y-96207842D01*
X115086327Y-96439736D01*
X115691020Y-96440264D01*
X116249886Y-96209345D01*
X116255203Y-96204037D01*
X134113642Y-96204037D01*
X135190000Y-97280395D01*
X136266358Y-96204037D01*
X136150194Y-95922342D01*
X135488667Y-95671938D01*
X134781671Y-95693751D01*
X134229806Y-95922342D01*
X134113642Y-96204037D01*
X116255203Y-96204037D01*
X116677842Y-95782135D01*
X116827383Y-95422000D01*
X125830295Y-95422000D01*
X125830300Y-95422001D01*
X126022407Y-95383788D01*
X126185268Y-95274968D01*
X126479965Y-94980270D01*
X126479968Y-94980268D01*
X126588788Y-94817407D01*
X126596975Y-94776250D01*
X126618757Y-94666743D01*
X126664708Y-94658097D01*
X126750503Y-94602889D01*
X126825453Y-94654101D01*
X126880964Y-94665342D01*
X126911212Y-94817407D01*
X127020032Y-94980268D01*
X127473430Y-95433665D01*
X127473432Y-95433668D01*
X127636293Y-95542488D01*
X127828400Y-95580700D01*
X140168353Y-95580700D01*
X140250655Y-95779886D01*
X140677865Y-96207842D01*
X141236327Y-96439736D01*
X141841020Y-96440264D01*
X142399886Y-96209345D01*
X142405203Y-96204037D01*
X160263642Y-96204037D01*
X161340000Y-97280395D01*
X162416358Y-96204037D01*
X162300194Y-95922342D01*
X161638667Y-95671938D01*
X160931671Y-95693751D01*
X160379806Y-95922342D01*
X160263642Y-96204037D01*
X142405203Y-96204037D01*
X142827842Y-95782135D01*
X143059736Y-95223673D01*
X143060264Y-94618980D01*
X142829345Y-94060114D01*
X142402135Y-93632158D01*
X141843673Y-93400264D01*
X141238980Y-93399736D01*
X140680114Y-93630655D01*
X140252158Y-94057865D01*
X140036719Y-94576700D01*
X129291202Y-94576700D01*
X129293020Y-94575530D01*
X129379101Y-94449547D01*
X129409385Y-94300000D01*
X129409385Y-93952000D01*
X139499995Y-93952000D01*
X139500000Y-93952001D01*
X139692107Y-93913788D01*
X139854968Y-93804968D01*
X140657936Y-93002000D01*
X142292064Y-93002000D01*
X143095032Y-93804968D01*
X143257893Y-93913788D01*
X143450000Y-93952001D01*
X143450005Y-93952000D01*
X166012064Y-93952000D01*
X166318764Y-94258700D01*
X166170264Y-94616327D01*
X166169736Y-95221020D01*
X166400655Y-95779886D01*
X166827865Y-96207842D01*
X166877374Y-96228400D01*
X166873000Y-96250000D01*
X166873000Y-98370121D01*
X166494761Y-97991221D01*
X165623670Y-97629512D01*
X164778515Y-97628775D01*
X164750000Y-97623000D01*
X163123876Y-97623000D01*
X163106249Y-97051671D01*
X162877658Y-96499806D01*
X162595963Y-96383642D01*
X161519605Y-97460000D01*
X162595963Y-98536358D01*
X162877658Y-98420194D01*
X162988639Y-98127000D01*
X163670383Y-98127000D01*
X163141221Y-98655239D01*
X162779512Y-99526330D01*
X162778689Y-100469532D01*
X163138877Y-101341253D01*
X163805239Y-102008779D01*
X164660946Y-102364100D01*
X139486984Y-102364100D01*
X140341253Y-102011123D01*
X141008779Y-101344761D01*
X141370488Y-100473670D01*
X141371311Y-99530468D01*
X141034765Y-98715963D01*
X160263642Y-98715963D01*
X160379806Y-98997658D01*
X161041333Y-99248062D01*
X161748329Y-99226249D01*
X162300194Y-98997658D01*
X162416358Y-98715963D01*
X161340000Y-97639605D01*
X160263642Y-98715963D01*
X141034765Y-98715963D01*
X141011123Y-98658747D01*
X140344761Y-97991221D01*
X139473670Y-97629512D01*
X138779164Y-97628906D01*
X138750000Y-97623000D01*
X136973876Y-97623000D01*
X136959633Y-97161333D01*
X159551938Y-97161333D01*
X159573751Y-97868329D01*
X159802342Y-98420194D01*
X160084037Y-98536358D01*
X161160395Y-97460000D01*
X160084037Y-96383642D01*
X159802342Y-96499806D01*
X159551938Y-97161333D01*
X136959633Y-97161333D01*
X136956249Y-97051671D01*
X136727658Y-96499806D01*
X136445963Y-96383642D01*
X135369605Y-97460000D01*
X136445963Y-98536358D01*
X136727658Y-98420194D01*
X136838639Y-98127000D01*
X137520383Y-98127000D01*
X136991221Y-98655239D01*
X136629512Y-99526330D01*
X136628689Y-100469532D01*
X136988877Y-101341253D01*
X137655239Y-102008779D01*
X138510946Y-102364100D01*
X123110435Y-102364100D01*
X122102000Y-101355664D01*
X122102000Y-99455463D01*
X122173598Y-99383990D01*
X122276882Y-99135254D01*
X122277117Y-98865927D01*
X122215154Y-98715963D01*
X134113642Y-98715963D01*
X134229806Y-98997658D01*
X134891333Y-99248062D01*
X135598329Y-99226249D01*
X136150194Y-98997658D01*
X136266358Y-98715963D01*
X135190000Y-97639605D01*
X134113642Y-98715963D01*
X122215154Y-98715963D01*
X122174267Y-98617011D01*
X121983990Y-98426402D01*
X121735254Y-98323118D01*
X121465927Y-98322883D01*
X121217011Y-98425733D01*
X121026402Y-98616010D01*
X120923118Y-98864746D01*
X120922883Y-99134073D01*
X121025733Y-99382989D01*
X121098000Y-99455382D01*
X121098000Y-101355665D01*
X120705664Y-101748000D01*
X116205463Y-101748000D01*
X116133990Y-101676402D01*
X115885254Y-101573118D01*
X115752608Y-101573002D01*
X115089803Y-100910197D01*
X115051022Y-100883700D01*
X115050294Y-100883542D01*
X115220488Y-100473670D01*
X115221311Y-99530468D01*
X114861123Y-98658747D01*
X114194761Y-97991221D01*
X113323670Y-97629512D01*
X112528731Y-97628818D01*
X112500000Y-97623000D01*
X110823876Y-97623000D01*
X110809633Y-97161333D01*
X133401938Y-97161333D01*
X133423751Y-97868329D01*
X133652342Y-98420194D01*
X133934037Y-98536358D01*
X135010395Y-97460000D01*
X133934037Y-96383642D01*
X133652342Y-96499806D01*
X133401938Y-97161333D01*
X110809633Y-97161333D01*
X110806249Y-97051671D01*
X110577658Y-96499806D01*
X110295963Y-96383642D01*
X109219605Y-97460000D01*
X110295963Y-98536358D01*
X110577658Y-98420194D01*
X110688639Y-98127000D01*
X111370383Y-98127000D01*
X110841221Y-98655239D01*
X110479512Y-99526330D01*
X110478689Y-100469532D01*
X110838877Y-101341253D01*
X111505239Y-102008779D01*
X112376330Y-102370488D01*
X113319532Y-102371311D01*
X114191253Y-102011123D01*
X114761883Y-101441489D01*
X115181407Y-101861013D01*
X115176402Y-101866010D01*
X115073118Y-102114746D01*
X115072883Y-102384073D01*
X115175733Y-102632989D01*
X115366010Y-102823598D01*
X115614746Y-102926882D01*
X115884073Y-102927117D01*
X116132989Y-102824267D01*
X116205382Y-102752000D01*
X120913595Y-102752000D01*
X120913600Y-102752001D01*
X121105707Y-102713788D01*
X121268568Y-102604968D01*
X121600000Y-102273536D01*
X122547530Y-103221065D01*
X122547532Y-103221068D01*
X122590967Y-103250090D01*
X122710392Y-103329888D01*
X122902500Y-103368100D01*
X138544537Y-103368100D01*
X138616010Y-103439698D01*
X138864746Y-103542982D01*
X138873000Y-103542989D01*
X138873000Y-109048000D01*
X106794517Y-109048000D01*
X106658635Y-109020971D01*
X107387375Y-108292231D01*
X107435376Y-108340316D01*
X108125004Y-108626674D01*
X108871720Y-108627325D01*
X109561846Y-108342171D01*
X110090316Y-107814624D01*
X110376674Y-107124996D01*
X110377325Y-106378280D01*
X110092171Y-105688154D01*
X109564624Y-105159684D01*
X108874996Y-104873326D01*
X108128280Y-104872675D01*
X107438154Y-105157829D01*
X106909684Y-105685376D01*
X106623326Y-106375004D01*
X106622675Y-107121720D01*
X106907829Y-107811846D01*
X106958144Y-107862250D01*
X106229029Y-108591365D01*
X106202000Y-108455483D01*
X106202000Y-98715963D01*
X107963642Y-98715963D01*
X108079806Y-98997658D01*
X108741333Y-99248062D01*
X109448329Y-99226249D01*
X110000194Y-98997658D01*
X110116358Y-98715963D01*
X109040000Y-97639605D01*
X107963642Y-98715963D01*
X106202000Y-98715963D01*
X106202000Y-97161333D01*
X107251938Y-97161333D01*
X107273751Y-97868329D01*
X107502342Y-98420194D01*
X107784037Y-98536358D01*
X108860395Y-97460000D01*
X107784037Y-96383642D01*
X107502342Y-96499806D01*
X107251938Y-97161333D01*
X106202000Y-97161333D01*
X106202000Y-96204037D01*
X107963642Y-96204037D01*
X109040000Y-97280395D01*
X110116358Y-96204037D01*
X110000194Y-95922342D01*
X109338667Y-95671938D01*
X108631671Y-95693751D01*
X108079806Y-95922342D01*
X107963642Y-96204037D01*
X106202000Y-96204037D01*
X106202000Y-84861936D01*
X106838737Y-85498672D01*
X106748962Y-85950000D01*
X106842362Y-86419553D01*
X107108342Y-86817620D01*
X107506409Y-87083600D01*
X107975962Y-87177000D01*
X108024038Y-87177000D01*
X108493591Y-87083600D01*
X108891658Y-86817620D01*
X109157638Y-86419553D01*
X109251038Y-85950000D01*
X109157638Y-85480447D01*
X108891658Y-85082380D01*
X108493591Y-84816400D01*
X108024038Y-84723000D01*
X107975962Y-84723000D01*
X107564734Y-84804798D01*
X106587400Y-83827464D01*
X106587400Y-82707336D01*
X106838737Y-82958672D01*
X106748962Y-83410000D01*
X106842362Y-83879553D01*
X107108342Y-84277620D01*
X107506409Y-84543600D01*
X107975962Y-84637000D01*
X108024038Y-84637000D01*
X108493591Y-84543600D01*
X108891658Y-84277620D01*
X109157638Y-83879553D01*
X109251038Y-83410000D01*
X109157638Y-82940447D01*
X108891658Y-82542380D01*
X108493591Y-82276400D01*
X108024038Y-82183000D01*
X107975962Y-82183000D01*
X107564734Y-82264798D01*
X107076700Y-81776764D01*
X107076700Y-81690264D01*
X107108342Y-81737620D01*
X107506409Y-82003600D01*
X107975962Y-82097000D01*
X108024038Y-82097000D01*
X108493591Y-82003600D01*
X108891658Y-81737620D01*
X109157638Y-81339553D01*
X109251038Y-80870000D01*
X109161263Y-80418672D01*
X109377934Y-80202001D01*
X128100950Y-80202001D01*
X128175733Y-80382989D01*
X128366010Y-80573598D01*
X128614746Y-80676882D01*
X128884073Y-80677117D01*
X129132989Y-80574267D01*
X129323598Y-80383990D01*
X129426882Y-80135254D01*
X129427117Y-79865927D01*
X129324267Y-79617011D01*
X129133990Y-79426402D01*
X128885254Y-79323118D01*
X128772023Y-79323019D01*
X128642108Y-79236213D01*
X128450001Y-79198000D01*
X128449996Y-79198001D01*
X109169999Y-79198001D01*
X108977892Y-79236213D01*
X108815031Y-79345033D01*
X108815029Y-79345036D01*
X108435266Y-79724798D01*
X108024038Y-79643000D01*
X107975962Y-79643000D01*
X107506409Y-79736400D01*
X107108342Y-80002380D01*
X107076700Y-80049736D01*
X107076700Y-79150264D01*
X107108342Y-79197620D01*
X107506409Y-79463600D01*
X107975962Y-79557000D01*
X108024038Y-79557000D01*
X108493591Y-79463600D01*
X108891658Y-79197620D01*
X109157638Y-78799553D01*
X109251038Y-78330000D01*
X109157638Y-77860447D01*
X108891658Y-77462380D01*
X108493591Y-77196400D01*
X108024038Y-77103000D01*
X107975962Y-77103000D01*
X107506409Y-77196400D01*
X107108342Y-77462380D01*
X107076700Y-77509736D01*
X107076700Y-76610264D01*
X107108342Y-76657620D01*
X107506409Y-76923600D01*
X107975962Y-77017000D01*
X108024038Y-77017000D01*
X108493591Y-76923600D01*
X108891658Y-76657620D01*
X108982544Y-76521600D01*
X126820737Y-76521600D01*
X126892210Y-76593198D01*
X127140946Y-76696482D01*
X127410273Y-76696717D01*
X127659189Y-76593867D01*
X127849798Y-76403590D01*
X127953082Y-76154854D01*
X127953171Y-76052565D01*
X141485900Y-62519836D01*
X141485900Y-64864910D01*
X141385254Y-64823118D01*
X141115927Y-64822883D01*
X140867011Y-64925733D01*
X140676402Y-65116010D01*
X140573118Y-65364746D01*
X140572883Y-65634073D01*
X140675733Y-65882989D01*
X140717500Y-65924829D01*
X140717500Y-72614164D01*
X139153893Y-74177771D01*
X139052727Y-74177683D01*
X138803811Y-74280533D01*
X138613202Y-74470810D01*
X138509918Y-74719546D01*
X138509683Y-74988873D01*
X138612533Y-75237789D01*
X138802810Y-75428398D01*
X138824985Y-75437606D01*
X138731447Y-75456212D01*
X138568586Y-75565032D01*
X138135618Y-75998000D01*
X133340952Y-75998000D01*
X133340947Y-75997999D01*
X133148840Y-76036212D01*
X132985979Y-76145032D01*
X130485979Y-78645032D01*
X130377159Y-78807893D01*
X130338946Y-79000000D01*
X130338947Y-79000005D01*
X130338947Y-79701117D01*
X128292064Y-81748000D01*
X124500005Y-81748000D01*
X124500000Y-81747999D01*
X124307893Y-81786212D01*
X124145032Y-81895032D01*
X124145030Y-81895035D01*
X118902063Y-87138001D01*
X108849999Y-87138001D01*
X108657891Y-87176213D01*
X108495031Y-87285033D01*
X108435266Y-87344798D01*
X108024038Y-87263000D01*
X107975962Y-87263000D01*
X107506409Y-87356400D01*
X107108342Y-87622380D01*
X106842362Y-88020447D01*
X106748962Y-88490000D01*
X106842362Y-88959553D01*
X107108342Y-89357620D01*
X107506409Y-89623600D01*
X107975962Y-89717000D01*
X108024038Y-89717000D01*
X108493591Y-89623600D01*
X108891658Y-89357620D01*
X109157638Y-88959553D01*
X109251038Y-88490000D01*
X109181817Y-88142001D01*
X114398064Y-88142001D01*
X112012064Y-90528000D01*
X109135958Y-90528000D01*
X108891658Y-90162380D01*
X108493591Y-89896400D01*
X108024038Y-89803000D01*
X107975962Y-89803000D01*
X107506409Y-89896400D01*
X107108342Y-90162380D01*
X106842362Y-90560447D01*
X106748962Y-91030000D01*
X106842362Y-91499553D01*
X107108342Y-91897620D01*
X107506409Y-92163600D01*
X107975962Y-92257000D01*
X108024038Y-92257000D01*
X108493591Y-92163600D01*
X108891658Y-91897620D01*
X109135958Y-91532000D01*
X112219995Y-91532000D01*
X112220000Y-91532001D01*
X112412107Y-91493788D01*
X112574968Y-91384968D01*
X115207935Y-88752000D01*
X115988169Y-88752000D01*
X115920899Y-88850453D01*
X115890615Y-89000000D01*
X115890615Y-92100000D01*
X115916903Y-92239708D01*
X115999470Y-92368020D01*
X116125453Y-92454101D01*
X116275000Y-92484385D01*
X118475000Y-92484385D01*
X118531838Y-92473690D01*
X118840000Y-92473690D01*
X118840000Y-93164250D01*
X118998750Y-93323000D01*
X119748000Y-93323000D01*
X119748000Y-92123750D01*
X119589250Y-91965000D01*
X119348691Y-91965000D01*
X119115302Y-92061673D01*
X118936673Y-92240301D01*
X118840000Y-92473690D01*
X118531838Y-92473690D01*
X118614708Y-92458097D01*
X118743020Y-92375530D01*
X118829101Y-92249547D01*
X118859385Y-92100000D01*
X118859385Y-89000000D01*
X118833097Y-88860292D01*
X118763413Y-88752000D01*
X119249995Y-88752000D01*
X119250000Y-88752001D01*
X119442107Y-88713788D01*
X119604968Y-88604968D01*
X124957935Y-83252000D01*
X128899995Y-83252000D01*
X128900000Y-83252001D01*
X129092107Y-83213788D01*
X129254968Y-83104968D01*
X130572570Y-81787365D01*
X130624470Y-81868020D01*
X130750453Y-81954101D01*
X130900000Y-81984385D01*
X131800000Y-81984385D01*
X131939708Y-81958097D01*
X132068020Y-81875530D01*
X132154101Y-81749547D01*
X132184385Y-81600000D01*
X132184385Y-80400000D01*
X132158097Y-80260292D01*
X132075530Y-80131980D01*
X131949547Y-80045899D01*
X131852000Y-80026145D01*
X131852000Y-79335294D01*
X132669949Y-78517345D01*
X132669736Y-78761020D01*
X132900655Y-79319886D01*
X133327865Y-79747842D01*
X133824646Y-79954124D01*
X133835032Y-79969668D01*
X133967182Y-80101818D01*
X133931980Y-80124470D01*
X133845899Y-80250453D01*
X133815615Y-80400000D01*
X133815615Y-81600000D01*
X133841903Y-81739708D01*
X133924470Y-81868020D01*
X134050453Y-81954101D01*
X134200000Y-81984385D01*
X135100000Y-81984385D01*
X135239708Y-81958097D01*
X135368020Y-81875530D01*
X135454101Y-81749547D01*
X135484385Y-81600000D01*
X135484385Y-80627000D01*
X135629424Y-80627000D01*
X135628689Y-81469532D01*
X135988877Y-82341253D01*
X136655239Y-83008779D01*
X137526330Y-83370488D01*
X138469532Y-83371311D01*
X139341253Y-83011123D01*
X140008779Y-82344761D01*
X140370488Y-81473670D01*
X140371311Y-80530468D01*
X140011123Y-79658747D01*
X139344761Y-78991221D01*
X138473670Y-78629512D01*
X137530468Y-78628689D01*
X136658747Y-78988877D01*
X135991221Y-79655239D01*
X135796989Y-80123000D01*
X135362387Y-80123000D01*
X135249547Y-80045899D01*
X135141937Y-80024107D01*
X135137615Y-80002380D01*
X135113788Y-79882592D01*
X135063875Y-79807893D01*
X135030192Y-79757482D01*
X135049886Y-79749345D01*
X135477842Y-79322135D01*
X135709736Y-78763673D01*
X135710264Y-78158980D01*
X135479345Y-77600114D01*
X135373415Y-77493999D01*
X139146062Y-77493999D01*
X139395030Y-77742966D01*
X139395032Y-77742969D01*
X139492660Y-77808201D01*
X139557892Y-77851789D01*
X139750000Y-77890001D01*
X141191394Y-77890001D01*
X141191399Y-77890002D01*
X141383506Y-77851789D01*
X141546367Y-77742969D01*
X141765645Y-77523690D01*
X153265000Y-77523690D01*
X153265000Y-78214250D01*
X153423750Y-78373000D01*
X154623000Y-78373000D01*
X154623000Y-77173750D01*
X154877000Y-77173750D01*
X154877000Y-78373000D01*
X156076250Y-78373000D01*
X156235000Y-78214250D01*
X156235000Y-77523690D01*
X156138327Y-77290301D01*
X155959698Y-77111673D01*
X155726309Y-77015000D01*
X155035750Y-77015000D01*
X154877000Y-77173750D01*
X154623000Y-77173750D01*
X154464250Y-77015000D01*
X153773691Y-77015000D01*
X153540302Y-77111673D01*
X153361673Y-77290301D01*
X153265000Y-77523690D01*
X141765645Y-77523690D01*
X142809965Y-76479370D01*
X142809968Y-76479368D01*
X142918788Y-76316507D01*
X142937254Y-76223673D01*
X142957001Y-76124400D01*
X142957000Y-76124395D01*
X142957000Y-62252936D01*
X143854965Y-61354970D01*
X143854968Y-61354968D01*
X143926442Y-61248000D01*
X143963788Y-61192108D01*
X143975807Y-61131685D01*
X144002001Y-61000000D01*
X144002000Y-60999995D01*
X144002000Y-59045000D01*
X143963788Y-58852893D01*
X143963788Y-58852892D01*
X143920200Y-58787660D01*
X143854968Y-58690032D01*
X143854965Y-58690030D01*
X142957000Y-57792064D01*
X142957000Y-49250005D01*
X142957001Y-49250000D01*
X142918788Y-49057893D01*
X142891726Y-49017392D01*
X142809968Y-48895032D01*
X142809965Y-48895030D01*
X141352000Y-47437064D01*
X141352000Y-43974600D01*
X141439708Y-43958097D01*
X141568020Y-43875530D01*
X141654101Y-43749547D01*
X141684385Y-43600000D01*
X141684385Y-42400000D01*
X141658097Y-42260292D01*
X141575530Y-42131980D01*
X141449547Y-42045899D01*
X141300000Y-42015615D01*
X140400000Y-42015615D01*
X140260292Y-42041903D01*
X140131980Y-42124470D01*
X140045899Y-42250453D01*
X140015615Y-42400000D01*
X140015615Y-43600000D01*
X140041903Y-43739708D01*
X140124470Y-43868020D01*
X140250453Y-43954101D01*
X140348000Y-43973855D01*
X140348000Y-47644995D01*
X140347999Y-47645000D01*
X140367650Y-47743789D01*
X138874459Y-47123762D01*
X137133181Y-47122242D01*
X137075628Y-47146022D01*
X136629344Y-46699738D01*
X136676882Y-46585254D01*
X136677117Y-46315927D01*
X136574267Y-46067011D01*
X136383990Y-45876402D01*
X136135254Y-45773118D01*
X135865927Y-45772883D01*
X135617011Y-45875733D01*
X135544618Y-45948000D01*
X132205463Y-45948000D01*
X132133990Y-45876402D01*
X131885254Y-45773118D01*
X131615927Y-45772883D01*
X131367011Y-45875733D01*
X131176402Y-46066010D01*
X131073118Y-46314746D01*
X131072883Y-46584073D01*
X131175733Y-46832989D01*
X131366010Y-47023598D01*
X131614746Y-47126882D01*
X131884073Y-47127117D01*
X132132989Y-47024267D01*
X132205382Y-46952000D01*
X135544537Y-46952000D01*
X135616010Y-47023598D01*
X135864746Y-47126882D01*
X136134073Y-47127117D01*
X136178963Y-47108569D01*
X136467634Y-47397240D01*
X135523868Y-47787197D01*
X134291524Y-49017392D01*
X133623762Y-50625541D01*
X133622242Y-52366819D01*
X134287197Y-53976132D01*
X135517392Y-55208476D01*
X137125541Y-55876238D01*
X138866819Y-55877758D01*
X140476132Y-55212803D01*
X141708476Y-53982608D01*
X141953000Y-53393729D01*
X141953000Y-56359382D01*
X141829345Y-56060114D01*
X141402135Y-55632158D01*
X140843673Y-55400264D01*
X140238980Y-55399736D01*
X139680114Y-55630655D01*
X139252158Y-56057865D01*
X139020264Y-56616327D01*
X139019736Y-57221020D01*
X139250655Y-57779886D01*
X139677865Y-58207842D01*
X140236327Y-58439736D01*
X140841020Y-58440264D01*
X141201416Y-58291351D01*
X142233004Y-59322939D01*
X142168527Y-59322883D01*
X141919611Y-59425733D01*
X141729002Y-59616010D01*
X141625718Y-59864746D01*
X141625629Y-59967036D01*
X140996032Y-60596632D01*
X140887212Y-60759493D01*
X140848999Y-60951600D01*
X140849000Y-60951605D01*
X140849000Y-61736864D01*
X140370714Y-62215150D01*
X140371311Y-61530468D01*
X140011123Y-60658747D01*
X139344761Y-59991221D01*
X138473670Y-59629512D01*
X137530468Y-59628689D01*
X136658747Y-59988877D01*
X135991221Y-60655239D01*
X135796989Y-61123000D01*
X135362387Y-61123000D01*
X135249547Y-61045899D01*
X135152000Y-61026145D01*
X135152000Y-60647409D01*
X135477842Y-60322135D01*
X135709736Y-59763673D01*
X135710264Y-59158980D01*
X135479345Y-58600114D01*
X135052135Y-58172158D01*
X134493673Y-57940264D01*
X133888980Y-57939736D01*
X133330114Y-58170655D01*
X132902158Y-58597865D01*
X132670264Y-59156327D01*
X132669736Y-59761020D01*
X132900655Y-60319886D01*
X133327865Y-60747842D01*
X133886327Y-60979736D01*
X134148000Y-60979964D01*
X134148000Y-61025400D01*
X134060292Y-61041903D01*
X133931980Y-61124470D01*
X133845899Y-61250453D01*
X133815615Y-61400000D01*
X133815615Y-62600000D01*
X133841903Y-62739708D01*
X133924470Y-62868020D01*
X134050453Y-62954101D01*
X134200000Y-62984385D01*
X135100000Y-62984385D01*
X135239708Y-62958097D01*
X135368020Y-62875530D01*
X135454101Y-62749547D01*
X135484385Y-62600000D01*
X135484385Y-61627000D01*
X135629424Y-61627000D01*
X135628689Y-62469532D01*
X135988877Y-63341253D01*
X136655239Y-64008779D01*
X137526330Y-64370488D01*
X138214775Y-64371089D01*
X127243293Y-75342571D01*
X127142127Y-75342483D01*
X126893211Y-75445333D01*
X126820818Y-75517600D01*
X109196854Y-75517600D01*
X109157638Y-75320447D01*
X108978934Y-75052998D01*
X119724297Y-75052998D01*
X119724302Y-75052999D01*
X119916409Y-75014786D01*
X120079270Y-74905966D01*
X131704965Y-63280270D01*
X131704968Y-63280268D01*
X131813788Y-63117407D01*
X131816262Y-63104968D01*
X131841813Y-62976517D01*
X131939708Y-62958097D01*
X132068020Y-62875530D01*
X132154101Y-62749547D01*
X132184385Y-62600000D01*
X132184385Y-61400000D01*
X132158097Y-61260292D01*
X132075530Y-61131980D01*
X131949547Y-61045899D01*
X131852000Y-61026145D01*
X131852000Y-57000000D01*
X131813788Y-56807893D01*
X131813788Y-56807892D01*
X131760334Y-56727893D01*
X131704968Y-56645032D01*
X131704965Y-56645030D01*
X128186663Y-53126727D01*
X128822211Y-53127282D01*
X129420418Y-52880108D01*
X129878499Y-52422825D01*
X130126717Y-51825050D01*
X130127282Y-51177789D01*
X129880108Y-50579582D01*
X129422825Y-50121501D01*
X128825050Y-49873283D01*
X128177789Y-49872718D01*
X127579582Y-50119892D01*
X127121501Y-50577175D01*
X126873283Y-51174950D01*
X126872726Y-51812791D01*
X124752000Y-49692064D01*
X124752000Y-46984385D01*
X124850000Y-46984385D01*
X124989708Y-46958097D01*
X125118020Y-46875530D01*
X125204101Y-46749547D01*
X125234385Y-46600000D01*
X125234385Y-45700000D01*
X125208097Y-45560292D01*
X125125530Y-45431980D01*
X124999547Y-45345899D01*
X124850000Y-45315615D01*
X123650000Y-45315615D01*
X123510292Y-45341903D01*
X123381980Y-45424470D01*
X123295899Y-45550453D01*
X123265615Y-45700000D01*
X123265615Y-46600000D01*
X123291903Y-46739708D01*
X123374470Y-46868020D01*
X123500453Y-46954101D01*
X123650000Y-46984385D01*
X123748000Y-46984385D01*
X123748000Y-49899995D01*
X123747999Y-49900000D01*
X123786212Y-50092107D01*
X123895032Y-50254968D01*
X130848000Y-57207935D01*
X130848000Y-58547418D01*
X130422825Y-58121501D01*
X129825050Y-57873283D01*
X129177789Y-57872718D01*
X128579582Y-58119892D01*
X128121501Y-58577175D01*
X127873283Y-59174950D01*
X127872718Y-59822211D01*
X128119892Y-60420418D01*
X128577175Y-60878499D01*
X129174950Y-61126717D01*
X129822211Y-61127282D01*
X130420418Y-60880108D01*
X130848000Y-60453271D01*
X130848000Y-61025400D01*
X130760292Y-61041903D01*
X130631980Y-61124470D01*
X130545899Y-61250453D01*
X130515615Y-61400000D01*
X130515615Y-62600000D01*
X130541903Y-62739708D01*
X130624470Y-62868020D01*
X130667764Y-62897601D01*
X119516366Y-74048998D01*
X109234385Y-74048998D01*
X109234385Y-72400000D01*
X109222606Y-72337400D01*
X118599095Y-72337400D01*
X118599100Y-72337401D01*
X118791207Y-72299188D01*
X118954068Y-72190368D01*
X120595714Y-70548721D01*
X120608342Y-70567620D01*
X121006409Y-70833600D01*
X121475962Y-70927000D01*
X121524038Y-70927000D01*
X121993591Y-70833600D01*
X122391658Y-70567620D01*
X122657638Y-70169553D01*
X122751038Y-69700000D01*
X122657638Y-69230447D01*
X122391658Y-68832380D01*
X121993591Y-68566400D01*
X121524038Y-68473000D01*
X121475962Y-68473000D01*
X121006409Y-68566400D01*
X120826600Y-68686545D01*
X120826600Y-68173455D01*
X121006409Y-68293600D01*
X121475962Y-68387000D01*
X121524038Y-68387000D01*
X121993591Y-68293600D01*
X122391658Y-68027620D01*
X122657638Y-67629553D01*
X122751038Y-67160000D01*
X122657638Y-66690447D01*
X122391658Y-66292380D01*
X121993591Y-66026400D01*
X121524038Y-65933000D01*
X121475962Y-65933000D01*
X121006409Y-66026400D01*
X120826600Y-66146545D01*
X120826600Y-65633455D01*
X121006409Y-65753600D01*
X121475962Y-65847000D01*
X121524038Y-65847000D01*
X121993591Y-65753600D01*
X122391658Y-65487620D01*
X122657638Y-65089553D01*
X122751038Y-64620000D01*
X122657638Y-64150447D01*
X122391658Y-63752380D01*
X121993591Y-63486400D01*
X121524038Y-63393000D01*
X121475962Y-63393000D01*
X121006409Y-63486400D01*
X120826600Y-63606545D01*
X120826600Y-63093455D01*
X121006409Y-63213600D01*
X121475962Y-63307000D01*
X121524038Y-63307000D01*
X121993591Y-63213600D01*
X122391658Y-62947620D01*
X122657638Y-62549553D01*
X122751038Y-62080000D01*
X122657638Y-61610447D01*
X122391658Y-61212380D01*
X121993591Y-60946400D01*
X121524038Y-60853000D01*
X121475962Y-60853000D01*
X121006409Y-60946400D01*
X120826600Y-61066545D01*
X120826600Y-60553455D01*
X121006409Y-60673600D01*
X121475962Y-60767000D01*
X121524038Y-60767000D01*
X121993591Y-60673600D01*
X122391658Y-60407620D01*
X122568428Y-60143064D01*
X126645030Y-64219665D01*
X126645032Y-64219668D01*
X126708271Y-64282907D01*
X126708183Y-64384073D01*
X126811033Y-64632989D01*
X127001310Y-64823598D01*
X127250046Y-64926882D01*
X127519373Y-64927117D01*
X127768289Y-64824267D01*
X127958898Y-64633990D01*
X128062182Y-64385254D01*
X128062417Y-64115927D01*
X127959567Y-63867011D01*
X127769290Y-63676402D01*
X127520554Y-63573118D01*
X127418265Y-63573029D01*
X127354968Y-63509732D01*
X127354965Y-63509730D01*
X123030268Y-59185032D01*
X122867407Y-59076212D01*
X122675300Y-59037999D01*
X122675295Y-59038000D01*
X122635958Y-59038000D01*
X122391658Y-58672380D01*
X121993591Y-58406400D01*
X121524038Y-58313000D01*
X121475962Y-58313000D01*
X121006409Y-58406400D01*
X120826600Y-58526545D01*
X120826600Y-58234385D01*
X122350000Y-58234385D01*
X122489708Y-58208097D01*
X122618020Y-58125530D01*
X122704101Y-57999547D01*
X122734385Y-57850000D01*
X122734385Y-56150000D01*
X122708097Y-56010292D01*
X122625530Y-55881980D01*
X122499547Y-55795899D01*
X122350000Y-55765615D01*
X120826600Y-55765615D01*
X120826600Y-42860694D01*
X123169949Y-40517345D01*
X123169736Y-40761020D01*
X123400655Y-41319886D01*
X123748000Y-41667838D01*
X123748000Y-42015615D01*
X123650000Y-42015615D01*
X123510292Y-42041903D01*
X123381980Y-42124470D01*
X123295899Y-42250453D01*
X123265615Y-42400000D01*
X123265615Y-43300000D01*
X123291903Y-43439708D01*
X123374470Y-43568020D01*
X123500453Y-43654101D01*
X123650000Y-43684385D01*
X124850000Y-43684385D01*
X124989708Y-43658097D01*
X125118020Y-43575530D01*
X125204101Y-43449547D01*
X125234385Y-43300000D01*
X125234385Y-42400000D01*
X125208097Y-42260292D01*
X125125530Y-42131980D01*
X124999547Y-42045899D01*
X124850000Y-42015615D01*
X124752000Y-42015615D01*
X124752000Y-41980055D01*
X124991020Y-41980264D01*
X125549886Y-41749345D01*
X125575910Y-41723367D01*
X126241748Y-42256037D01*
X126129512Y-42526330D01*
X126128689Y-43469532D01*
X126488877Y-44341253D01*
X127155239Y-45008779D01*
X128026330Y-45370488D01*
X128969532Y-45371311D01*
X129841253Y-45011123D01*
X130508779Y-44344761D01*
X130870488Y-43473670D01*
X130871311Y-42530468D01*
X130511123Y-41658747D01*
X129844761Y-40991221D01*
X128973670Y-40629512D01*
X128030468Y-40628689D01*
X127158747Y-40988877D01*
X126491221Y-41655239D01*
X126483398Y-41674079D01*
X125994206Y-41282726D01*
X126209736Y-40763673D01*
X126210264Y-40158980D01*
X125979345Y-39600114D01*
X125552135Y-39172158D01*
X124993673Y-38940264D01*
X124747244Y-38940049D01*
X125265293Y-38422000D01*
X129602779Y-38422000D01*
X129750655Y-38779886D01*
X130177865Y-39207842D01*
X130736327Y-39439736D01*
X131341020Y-39440264D01*
X131899886Y-39209345D01*
X132327842Y-38782135D01*
X132477383Y-38422000D01*
X143373000Y-38422000D01*
X143373000Y-38946339D01*
X142830114Y-39170655D01*
X142402158Y-39597865D01*
X142170264Y-40156327D01*
X142169736Y-40761020D01*
X142400655Y-41319886D01*
X142827865Y-41747842D01*
X143386327Y-41979736D01*
X143648000Y-41979964D01*
X143648000Y-42025400D01*
X143560292Y-42041903D01*
X143431980Y-42124470D01*
X143345899Y-42250453D01*
X143315615Y-42400000D01*
X143315615Y-43600000D01*
X143341903Y-43739708D01*
X143424470Y-43868020D01*
X143550453Y-43954101D01*
X143700000Y-43984385D01*
X144600000Y-43984385D01*
X144739708Y-43958097D01*
X144868020Y-43875530D01*
X144954101Y-43749547D01*
X144984385Y-43600000D01*
X144984385Y-42627000D01*
X145129424Y-42627000D01*
X145128689Y-43469532D01*
X145488877Y-44341253D01*
X146155239Y-45008779D01*
X147026330Y-45370488D01*
X147123000Y-45370572D01*
X147123000Y-49895356D01*
X146579582Y-50119892D01*
X146121501Y-50577175D01*
X145873283Y-51174950D01*
X145872718Y-51822211D01*
X146119892Y-52420418D01*
X146577175Y-52878499D01*
X147123000Y-53105145D01*
X147123000Y-57997003D01*
X146825050Y-57873283D01*
X146177789Y-57872718D01*
X145579582Y-58119892D01*
X145121501Y-58577175D01*
X144873283Y-59174950D01*
X144872718Y-59822211D01*
X145119892Y-60420418D01*
X145577175Y-60878499D01*
X146174950Y-61126717D01*
X146822211Y-61127282D01*
X147420418Y-60880108D01*
X147878499Y-60422825D01*
X148126717Y-59825050D01*
X148127282Y-59177789D01*
X147880108Y-58579582D01*
X147610261Y-58309264D01*
X147616994Y-58299410D01*
X147627000Y-58250000D01*
X147627000Y-53127112D01*
X147822211Y-53127282D01*
X148420418Y-52880108D01*
X148878499Y-52422825D01*
X149126717Y-51825050D01*
X149127282Y-51177789D01*
X148880108Y-50579582D01*
X148422825Y-50121501D01*
X147825050Y-49873283D01*
X147627000Y-49873110D01*
X147627000Y-45371012D01*
X147969532Y-45371311D01*
X148841253Y-45011123D01*
X149508779Y-44344761D01*
X149870488Y-43473670D01*
X149871311Y-42530468D01*
X149511123Y-41658747D01*
X148844761Y-40991221D01*
X147973670Y-40629512D01*
X147030468Y-40628689D01*
X146158747Y-40988877D01*
X145491221Y-41655239D01*
X145296989Y-42123000D01*
X144862387Y-42123000D01*
X144749547Y-42045899D01*
X144652000Y-42026145D01*
X144652000Y-41647409D01*
X144977842Y-41322135D01*
X145209736Y-40763673D01*
X145210264Y-40158980D01*
X144979345Y-39600114D01*
X144552135Y-39172158D01*
X143993673Y-38940264D01*
X143877000Y-38940162D01*
X143877000Y-38422000D01*
X148602779Y-38422000D01*
X148750655Y-38779886D01*
X149177865Y-39207842D01*
X149736327Y-39439736D01*
X150341020Y-39440264D01*
X150899886Y-39209345D01*
X151327842Y-38782135D01*
X151559736Y-38223673D01*
X151560264Y-37618980D01*
X151329345Y-37060114D01*
X150902135Y-36632158D01*
X150343673Y-36400264D01*
X149738980Y-36399736D01*
X149180114Y-36630655D01*
X148752158Y-37057865D01*
X148602617Y-37418000D01*
X132477221Y-37418000D01*
X132329345Y-37060114D01*
X131902135Y-36632158D01*
X131343673Y-36400264D01*
X130738980Y-36399736D01*
X130180114Y-36630655D01*
X129752158Y-37057865D01*
X129602617Y-37418000D01*
X125057363Y-37418000D01*
X125057358Y-37417999D01*
X124865251Y-37456212D01*
X124702390Y-37565032D01*
X124702388Y-37565035D01*
X119969632Y-42297790D01*
X119860812Y-42460651D01*
X119822599Y-42652758D01*
X119822600Y-42652763D01*
X119822600Y-69901965D01*
X119452000Y-70272565D01*
X119452000Y-34544517D01*
X119479029Y-34408635D01*
X120707769Y-35637375D01*
X120659684Y-35685376D01*
X120373326Y-36375004D01*
X120372675Y-37121720D01*
X120657829Y-37811846D01*
X121185376Y-38340316D01*
X121875004Y-38626674D01*
X122621720Y-38627325D01*
X123311846Y-38342171D01*
X123840316Y-37814624D01*
X124126674Y-37124996D01*
X124127325Y-36378280D01*
X123842171Y-35688154D01*
X123314624Y-35159684D01*
X122624996Y-34873326D01*
X121878280Y-34872675D01*
X121188154Y-35157829D01*
X121137750Y-35208144D01*
X119908635Y-33979029D01*
X120044517Y-33952000D01*
X155955483Y-33952000D01*
X156091365Y-33979029D01*
M02*
