G04 #@! TF.FileFunction,Soldermask,Top*
%FSLAX46Y46*%
G04 Gerber Fmt 4.6, Leading zero omitted, Abs format (unit mm)*
G04 Created by KiCad (PCBNEW 4.0.5) date Sun Feb 26 14:27:26 2017*
%MOMM*%
%LPD*%
G01*
G04 APERTURE LIST*
%ADD10C,0.100000*%
%ADD11R,2.100000X2.100000*%
%ADD12O,2.100000X2.100000*%
%ADD13R,1.850000X1.000000*%
%ADD14R,1.850000X3.300000*%
%ADD15R,1.850000X1.200000*%
%ADD16C,2.686000*%
%ADD17C,2.900000*%
%ADD18C,8.400000*%
G04 APERTURE END LIST*
D10*
D11*
X108000000Y-73250000D03*
D12*
X108000000Y-75790000D03*
X108000000Y-78330000D03*
X108000000Y-80870000D03*
X108000000Y-83410000D03*
X108000000Y-85950000D03*
X108000000Y-88490000D03*
X108000000Y-91030000D03*
D11*
X121500000Y-57000000D03*
D12*
X121500000Y-59540000D03*
X121500000Y-62080000D03*
X121500000Y-64620000D03*
X121500000Y-67160000D03*
X121500000Y-69700000D03*
D13*
X118525000Y-81000000D03*
D14*
X115475000Y-81000000D03*
D15*
X118525000Y-82050000D03*
X118525000Y-79950000D03*
D13*
X166775000Y-104500000D03*
D14*
X163725000Y-104500000D03*
D15*
X166775000Y-105550000D03*
X166775000Y-103450000D03*
D13*
X140525000Y-104500000D03*
D14*
X137475000Y-104500000D03*
D15*
X140525000Y-105550000D03*
X140525000Y-103450000D03*
D13*
X114275000Y-104500000D03*
D14*
X111225000Y-104500000D03*
D15*
X114275000Y-105550000D03*
X114275000Y-103450000D03*
D13*
X139525000Y-85500000D03*
D14*
X136475000Y-85500000D03*
D15*
X139525000Y-86550000D03*
X139525000Y-84450000D03*
D13*
X139525000Y-66500000D03*
D14*
X136475000Y-66500000D03*
D15*
X139525000Y-67550000D03*
X139525000Y-65450000D03*
D13*
X149025000Y-47500000D03*
D14*
X145975000Y-47500000D03*
D15*
X149025000Y-48550000D03*
X149025000Y-46450000D03*
D13*
X130025000Y-47500000D03*
D14*
X126975000Y-47500000D03*
D15*
X130025000Y-48550000D03*
X130025000Y-46450000D03*
D11*
X154750000Y-78500000D03*
D12*
X154750000Y-81040000D03*
X154750000Y-83580000D03*
X154750000Y-86120000D03*
X154750000Y-88660000D03*
D16*
X140540000Y-56920000D03*
X134190000Y-59460000D03*
X150040000Y-37920000D03*
X143690000Y-40460000D03*
X131040000Y-37920000D03*
X124690000Y-40460000D03*
X141540000Y-94920000D03*
X135190000Y-97460000D03*
X167690000Y-94920000D03*
X161340000Y-97460000D03*
X115390000Y-94920000D03*
X109040000Y-97460000D03*
X140540000Y-75920000D03*
X134190000Y-78460000D03*
D17*
X129500000Y-59500000D03*
X146500000Y-59500000D03*
X147500000Y-51500000D03*
D18*
X138000000Y-51500000D03*
D17*
X128500000Y-51500000D03*
M02*
