M48
;DRILL file {KiCad 4.0.5} date Sun Feb 26 14:27:22 2017
;FORMAT={-:-/ absolute / inch / decimal}
FMAT,2
INCH,TZ
T1C0.016
T2C0.024
T3C0.039
T4C0.059
%
G90
G05
M72
T1
X4.5571Y-4.0256
X4.7874Y-3.8976
X5.0109Y-2.9929
X5.0152Y-2.5295
X5.0689Y-3.1496
X5.187Y-1.8287
X5.3543Y-1.8287
X5.4724Y-4.0498
X5.4798Y-2.947
X5.561Y-2.5787
X5.6025Y-2.3622
X6.5059Y-4.0498
T2
X4.6555Y-3.9173
X5.3839Y-3.0807
X5.5906Y-3.0906
X5.6693Y-2.4803
T3
X4.252Y-2.8839
X4.252Y-2.9839
X4.252Y-3.0839
X4.252Y-3.1839
X4.252Y-3.2839
X4.252Y-3.3839
X4.252Y-3.4839
X4.252Y-3.5839
X4.7835Y-2.2441
X4.7835Y-2.3441
X4.7835Y-2.4441
X4.7835Y-2.5441
X4.7835Y-2.6441
X4.7835Y-2.7441
X6.0925Y-3.0906
X6.0925Y-3.1906
X6.0925Y-3.2906
X6.0925Y-3.3906
X6.0925Y-3.4906
T4
X4.2929Y-3.837
X4.5429Y-3.737
X4.9091Y-1.5929
X5.1591Y-1.4929
X5.2831Y-2.3409
X5.2831Y-3.089
X5.3224Y-3.837
X5.5331Y-2.2409
X5.5331Y-2.989
X5.5724Y-3.737
X5.6571Y-1.5929
X5.9071Y-1.4929
X6.352Y-3.837
X6.602Y-3.737
T0
M30
