G04 #@! TF.FileFunction,Copper,L1,Top,Signal*
%FSLAX46Y46*%
G04 Gerber Fmt 4.6, Leading zero omitted, Abs format (unit mm)*
G04 Created by KiCad (PCBNEW 4.0.5) date Sun Feb 26 14:27:26 2017*
%MOMM*%
%LPD*%
G01*
G04 APERTURE LIST*
%ADD10C,0.100000*%
%ADD11R,1.700000X1.700000*%
%ADD12O,1.700000X1.700000*%
%ADD13R,1.450000X0.600000*%
%ADD14R,1.450000X2.900000*%
%ADD15R,1.450000X0.800000*%
%ADD16C,2.286000*%
%ADD17C,1.270000*%
%ADD18C,0.600000*%
%ADD19C,0.250000*%
%ADD20C,0.254000*%
G04 APERTURE END LIST*
D10*
D11*
X108000000Y-73250000D03*
D12*
X108000000Y-75790000D03*
X108000000Y-78330000D03*
X108000000Y-80870000D03*
X108000000Y-83410000D03*
X108000000Y-85950000D03*
X108000000Y-88490000D03*
X108000000Y-91030000D03*
D11*
X121500000Y-57000000D03*
D12*
X121500000Y-59540000D03*
X121500000Y-62080000D03*
X121500000Y-64620000D03*
X121500000Y-67160000D03*
X121500000Y-69700000D03*
D13*
X118525000Y-81000000D03*
D14*
X115475000Y-81000000D03*
D15*
X118525000Y-82050000D03*
X118525000Y-79950000D03*
D13*
X166775000Y-104500000D03*
D14*
X163725000Y-104500000D03*
D15*
X166775000Y-105550000D03*
X166775000Y-103450000D03*
D13*
X140525000Y-104500000D03*
D14*
X137475000Y-104500000D03*
D15*
X140525000Y-105550000D03*
X140525000Y-103450000D03*
D13*
X114275000Y-104500000D03*
D14*
X111225000Y-104500000D03*
D15*
X114275000Y-105550000D03*
X114275000Y-103450000D03*
D13*
X139525000Y-85500000D03*
D14*
X136475000Y-85500000D03*
D15*
X139525000Y-86550000D03*
X139525000Y-84450000D03*
D13*
X139525000Y-66500000D03*
D14*
X136475000Y-66500000D03*
D15*
X139525000Y-67550000D03*
X139525000Y-65450000D03*
D13*
X149025000Y-47500000D03*
D14*
X145975000Y-47500000D03*
D15*
X149025000Y-48550000D03*
X149025000Y-46450000D03*
D13*
X130025000Y-47500000D03*
D14*
X126975000Y-47500000D03*
D15*
X130025000Y-48550000D03*
X130025000Y-46450000D03*
D11*
X154750000Y-78500000D03*
D12*
X154750000Y-81040000D03*
X154750000Y-83580000D03*
X154750000Y-86120000D03*
X154750000Y-88660000D03*
D16*
X140540000Y-56920000D03*
X134190000Y-59460000D03*
X150040000Y-37920000D03*
X143690000Y-40460000D03*
X131040000Y-37920000D03*
X124690000Y-40460000D03*
X141540000Y-94920000D03*
X135190000Y-97460000D03*
X167690000Y-94920000D03*
X161340000Y-97460000D03*
X115390000Y-94920000D03*
X109040000Y-97460000D03*
D17*
X144000000Y-63000000D03*
X136750000Y-78250000D03*
X118250000Y-99500000D03*
X142000000Y-78500000D03*
D16*
X140540000Y-75920000D03*
X134190000Y-78460000D03*
D18*
X142302600Y-60000000D03*
X127276200Y-76019600D03*
X128750000Y-80000000D03*
X141250000Y-65500000D03*
X136000000Y-46450000D03*
X131750000Y-46450000D03*
X139186800Y-74854800D03*
X127385300Y-64250000D03*
X121600000Y-99000000D03*
X139000000Y-102866100D03*
X165250000Y-102866100D03*
X115750000Y-102250000D03*
D19*
X106250000Y-79000000D02*
X106100000Y-78850000D01*
X106100000Y-78150000D02*
X106250000Y-78000000D01*
X106100000Y-78850000D02*
X106100000Y-78150000D01*
X111225000Y-104500000D02*
X111225000Y-102724700D01*
X106250000Y-73900000D02*
X106900000Y-73250000D01*
X111225000Y-102724700D02*
X106500300Y-98000000D01*
X106250000Y-78000000D02*
X106250000Y-73900000D01*
X106500300Y-98000000D02*
X106500300Y-83000000D01*
X106500300Y-83000000D02*
X106250000Y-82749700D01*
X106250000Y-82749700D02*
X106250000Y-81250000D01*
X106250000Y-81250000D02*
X106100000Y-81100000D01*
X106100000Y-81100000D02*
X106100000Y-80400000D01*
X106100000Y-80400000D02*
X106250000Y-80250000D01*
X106250000Y-80250000D02*
X106250000Y-79000000D01*
X106900000Y-73250000D02*
X108000000Y-73250000D01*
X126975000Y-47500000D02*
X126975000Y-48225000D01*
X126975000Y-48225000D02*
X119662500Y-55537500D01*
X119662500Y-55537500D02*
X119662500Y-71337500D01*
X119662500Y-71337500D02*
X117750000Y-73250000D01*
X117750000Y-73250000D02*
X108000000Y-73250000D01*
X144924700Y-57377900D02*
X142302600Y-60000000D01*
X144924700Y-50325600D02*
X144924700Y-57377900D01*
X145975000Y-49275300D02*
X144924700Y-50325600D01*
X145975000Y-47500000D02*
X145975000Y-49275300D01*
X127182900Y-92432600D02*
X137475000Y-102724700D01*
X127182900Y-76112900D02*
X127182900Y-92432600D01*
X127276200Y-76019600D02*
X127182900Y-76112900D01*
X137475000Y-104500000D02*
X137475000Y-102724700D01*
X125500000Y-63250000D02*
X125500000Y-71942642D01*
X123500000Y-62750000D02*
X125500000Y-62750000D01*
X125500000Y-63000000D02*
X125500000Y-63250000D01*
X125500000Y-62750000D02*
X134425000Y-62750000D01*
X125500000Y-63250000D02*
X125500000Y-62750000D01*
X122832000Y-63418000D02*
X123500000Y-62750000D01*
X134425000Y-62750000D02*
X134675000Y-63000000D01*
X108000000Y-78330000D02*
X113420000Y-78330000D01*
X113420000Y-78330000D02*
X120318400Y-71431600D01*
X120318400Y-71431600D02*
X120318400Y-64060700D01*
X122832000Y-63418000D02*
X123250000Y-63000000D01*
X120318400Y-64060700D02*
X120961100Y-63418000D01*
X120961100Y-63418000D02*
X122832000Y-63418000D01*
X137053903Y-83318901D02*
X137525001Y-83789999D01*
X125500000Y-71942642D02*
X136876259Y-83318901D01*
X136876259Y-83318901D02*
X137053903Y-83318901D01*
X137525001Y-83789999D02*
X137525001Y-87275001D01*
X137525001Y-87275001D02*
X139000000Y-88750000D01*
X140024800Y-88750000D02*
X153999500Y-102724700D01*
X139000000Y-88750000D02*
X140024800Y-88750000D01*
X153999500Y-102724700D02*
X162674700Y-102724700D01*
X162674700Y-102724700D02*
X163725000Y-103775000D01*
X163725000Y-103775000D02*
X163725000Y-104500000D01*
X136475000Y-66500000D02*
X136475000Y-64800000D01*
X136475000Y-64800000D02*
X134675000Y-63000000D01*
X115475000Y-81000000D02*
X108130000Y-81000000D01*
X108130000Y-81000000D02*
X108000000Y-80870000D01*
X132675000Y-80000000D02*
X128750000Y-80000000D01*
X136475000Y-85500000D02*
X136475000Y-83800000D01*
X136475000Y-83800000D02*
X132675000Y-80000000D01*
X140663000Y-59753400D02*
X140663000Y-60500000D01*
X141250000Y-65500000D02*
X141250000Y-61087000D01*
X141250000Y-61087000D02*
X140663000Y-60500000D01*
X141250000Y-65500000D02*
X139575000Y-65500000D01*
X139575000Y-65500000D02*
X139525000Y-65450000D01*
X136000000Y-46450000D02*
X142325200Y-46450000D01*
X131075300Y-46450000D02*
X131750000Y-46450000D01*
X128750000Y-49724999D02*
X128250000Y-49724999D01*
X128974999Y-46525001D02*
X128974999Y-49500000D01*
X128750000Y-49724999D02*
X128974999Y-49500000D01*
X121500000Y-57000000D02*
X122600000Y-57000000D01*
X122600000Y-57000000D02*
X126750000Y-52850000D01*
X126750000Y-52850000D02*
X126750000Y-50974999D01*
X127750000Y-49974999D02*
X126750000Y-50974999D01*
X127750000Y-49974999D02*
X128000000Y-49974999D01*
X128000000Y-49974999D02*
X128250000Y-49724999D01*
X130025000Y-46450000D02*
X129050000Y-46450000D01*
X129050000Y-46450000D02*
X128974999Y-46525001D01*
X149025000Y-46450000D02*
X147974700Y-46450000D01*
X130184300Y-46450000D02*
X131075300Y-46450000D01*
X130184300Y-46450000D02*
X130025000Y-46450000D01*
X140835900Y-84189400D02*
X140575300Y-84450000D01*
X140835900Y-78296000D02*
X140835900Y-84189400D01*
X138993200Y-76453300D02*
X140835900Y-78296000D01*
X138993200Y-75048400D02*
X138993200Y-76453300D01*
X139186800Y-74854800D02*
X138993200Y-75048400D01*
X139525000Y-84450000D02*
X140575300Y-84450000D01*
X142325200Y-46450000D02*
X142353400Y-46478200D01*
X147249300Y-45724600D02*
X147974700Y-46450000D01*
X143107000Y-45724600D02*
X147249300Y-45724600D01*
X142353400Y-46478200D02*
X143107000Y-45724600D01*
X142353400Y-58063000D02*
X140663000Y-59753400D01*
X142353400Y-46478200D02*
X142353400Y-58063000D01*
X143000000Y-67750000D02*
X143000000Y-67591100D01*
X143000000Y-83000000D02*
X143000000Y-67750000D01*
X143000000Y-67750000D02*
X143000000Y-67398500D01*
X143000000Y-67398500D02*
X142101500Y-66500000D01*
X149101500Y-50292800D02*
X149101500Y-59500000D01*
X141908900Y-66500000D02*
X142101500Y-66500000D01*
X142101500Y-66500000D02*
X149101500Y-59500000D01*
X139525000Y-66500000D02*
X141908900Y-66500000D01*
X139525000Y-85500000D02*
X140500000Y-85500000D01*
X140500000Y-85500000D02*
X143000000Y-83000000D01*
X127750000Y-62080000D02*
X134648026Y-62080000D01*
X127750000Y-58245900D02*
X131250000Y-54745900D01*
X121500000Y-62080000D02*
X127750000Y-62080000D01*
X127750000Y-62080000D02*
X127750000Y-58245900D01*
X134648026Y-62080000D02*
X137293025Y-64724999D01*
X137293025Y-64724999D02*
X137474999Y-64724999D01*
X137474999Y-64724999D02*
X138474999Y-65724999D01*
X138474999Y-66424999D02*
X138550000Y-66500000D01*
X138474999Y-65724999D02*
X138474999Y-66424999D01*
X138550000Y-66500000D02*
X139525000Y-66500000D01*
X131000000Y-54995900D02*
X129301000Y-56694900D01*
X131250000Y-47750000D02*
X131250000Y-54745900D01*
X131250000Y-54745900D02*
X131000000Y-54995900D01*
X131000000Y-47500000D02*
X131250000Y-47750000D01*
X130025000Y-47500000D02*
X131000000Y-47500000D01*
X121500000Y-62080000D02*
X122702081Y-62080000D01*
X149025000Y-47500000D02*
X147974700Y-47500000D01*
X147974700Y-49166000D02*
X149101500Y-50292800D01*
X147974700Y-47500000D02*
X147974700Y-49166000D01*
X139525000Y-66500000D02*
X138474700Y-66500000D01*
X138474700Y-65793500D02*
X138474700Y-66500000D01*
X139525000Y-86550000D02*
X140500000Y-86550000D01*
X140500000Y-86550000D02*
X143500000Y-83550000D01*
X143500000Y-83550000D02*
X143500000Y-65825300D01*
X143500000Y-65825300D02*
X150075300Y-59250000D01*
X150075300Y-59250000D02*
X150075300Y-48550000D01*
X150075300Y-48550000D02*
X149025000Y-48550000D01*
X127385300Y-64250000D02*
X131410700Y-68275400D01*
X131445100Y-68275400D02*
X131750000Y-68275400D01*
X131750000Y-68275400D02*
X138349300Y-68275400D01*
X131410700Y-68275400D02*
X131750000Y-68275400D01*
X139525000Y-86550000D02*
X138474700Y-86550000D01*
X122713100Y-59540000D02*
X121500000Y-59540000D01*
X130085600Y-52167500D02*
X122713100Y-59540000D01*
X130085600Y-48610600D02*
X130085600Y-52167500D01*
X130025000Y-48550000D02*
X130085600Y-48610600D01*
X139525000Y-67550000D02*
X138474700Y-67550000D01*
X138349300Y-76779200D02*
X138349300Y-68275400D01*
X140338400Y-78768300D02*
X138349300Y-76779200D01*
X140338400Y-82038000D02*
X140338400Y-78768300D01*
X138474700Y-83901700D02*
X140338400Y-82038000D01*
X138474700Y-86550000D02*
X138474700Y-83901700D01*
X138349300Y-67675400D02*
X138474700Y-67550000D01*
X138349300Y-68275400D02*
X138349300Y-67675400D01*
X121500000Y-64620000D02*
X123162000Y-66282000D01*
X123162000Y-66282000D02*
X123162000Y-73838000D01*
X123162000Y-73838000D02*
X118525000Y-78475000D01*
X118525000Y-78475000D02*
X118525000Y-79950000D01*
X114275000Y-103450000D02*
X114550000Y-103450000D01*
X114550000Y-103450000D02*
X115761500Y-102238500D01*
X115761500Y-102238500D02*
X115750000Y-102250000D01*
X114275000Y-103450000D02*
X114879000Y-103450000D01*
X121600000Y-98575736D02*
X121600000Y-96460900D01*
X121600000Y-99000000D02*
X121600000Y-98575736D01*
X139474700Y-103340800D02*
X139474700Y-103450000D01*
X139000000Y-102866100D02*
X139474700Y-103340800D01*
X140525000Y-103450000D02*
X139474700Y-103450000D01*
X165724700Y-103340800D02*
X165724700Y-103450000D01*
X165250000Y-102866100D02*
X165724700Y-103340800D01*
X166775000Y-103450000D02*
X165724700Y-103450000D01*
X118525000Y-79950000D02*
X119575300Y-79950000D01*
X121600000Y-81974700D02*
X119575300Y-79950000D01*
X121600000Y-96460900D02*
X121600000Y-81974700D01*
X138656900Y-106000000D02*
X138381500Y-106275400D01*
X140525000Y-104500000D02*
X139550000Y-104500000D01*
X139550000Y-104500000D02*
X138656900Y-105393100D01*
X138656900Y-105393100D02*
X138656900Y-106000000D01*
X164897600Y-106000000D02*
X164622200Y-106275400D01*
X165800000Y-104500000D02*
X164897600Y-105402400D01*
X166775000Y-104500000D02*
X165800000Y-104500000D01*
X164897600Y-105402400D02*
X164897600Y-106000000D01*
X114275000Y-104500000D02*
X115250000Y-104500000D01*
X115250000Y-104500000D02*
X117025400Y-106275400D01*
X117025400Y-106275400D02*
X138381500Y-106275400D01*
X164622200Y-106275400D02*
X143525400Y-106275400D01*
X143525400Y-106275400D02*
X141750000Y-104500000D01*
X141750000Y-104500000D02*
X140525000Y-104500000D01*
X122701300Y-73471700D02*
X122701300Y-68361300D01*
X122701300Y-68361300D02*
X121500000Y-67160000D01*
X117474700Y-78698300D02*
X117474700Y-81000000D01*
X122701300Y-73471700D02*
X117474700Y-78698300D01*
X118525000Y-81000000D02*
X117474700Y-81000000D01*
X114275000Y-104500000D02*
X115325300Y-104500000D01*
X118525000Y-81000000D02*
X119575300Y-81000000D01*
X138381500Y-106275400D02*
X125600700Y-106275400D01*
X115325300Y-104500000D02*
X119575300Y-100250000D01*
X119575300Y-100250000D02*
X119575300Y-81000000D01*
X113300000Y-105550000D02*
X112750000Y-105000000D01*
X112750000Y-103380200D02*
X116858001Y-99272199D01*
X112750000Y-105000000D02*
X112750000Y-103380200D01*
X114275000Y-105550000D02*
X113300000Y-105550000D01*
X116858001Y-99272199D02*
X116858001Y-82666699D01*
X116858001Y-82666699D02*
X117474700Y-82050000D01*
X117474700Y-82050000D02*
X116991500Y-81566800D01*
X116991500Y-81566800D02*
X116991500Y-78508500D01*
X116991500Y-78508500D02*
X121500000Y-74000000D01*
X121500000Y-74000000D02*
X121500000Y-69700000D01*
X114687600Y-105550000D02*
X115325300Y-105550000D01*
X114687600Y-105550000D02*
X114275000Y-105550000D01*
X118525000Y-82050000D02*
X117474700Y-82050000D01*
X139345900Y-106729100D02*
X140525000Y-105550000D01*
X116504400Y-106729100D02*
X139345900Y-106729100D01*
X115325300Y-105550000D02*
X116504400Y-106729100D01*
X165596900Y-106728100D02*
X166775000Y-105550000D01*
X142753400Y-106728100D02*
X165596900Y-106728100D01*
X141575300Y-105550000D02*
X142753400Y-106728100D01*
X140525000Y-105550000D02*
X141575300Y-105550000D01*
D20*
G36*
X156091365Y-33979029D02*
X154862625Y-35207769D01*
X154814624Y-35159684D01*
X154124996Y-34873326D01*
X153378280Y-34872675D01*
X152688154Y-35157829D01*
X152159684Y-35685376D01*
X151873326Y-36375004D01*
X151872675Y-37121720D01*
X152157829Y-37811846D01*
X152468440Y-38123000D01*
X151559824Y-38123000D01*
X151560264Y-37618980D01*
X151329345Y-37060114D01*
X150902135Y-36632158D01*
X150343673Y-36400264D01*
X149738980Y-36399736D01*
X149180114Y-36630655D01*
X148752158Y-37057865D01*
X148520264Y-37616327D01*
X148519736Y-38221020D01*
X148750655Y-38779886D01*
X149177865Y-39207842D01*
X149736327Y-39439736D01*
X150341020Y-39440264D01*
X150899886Y-39209345D01*
X151327842Y-38782135D01*
X151392260Y-38627000D01*
X153500000Y-38627000D01*
X153501148Y-38626784D01*
X154121720Y-38627325D01*
X154811846Y-38342171D01*
X155340316Y-37814624D01*
X155626674Y-37124996D01*
X155627325Y-36378280D01*
X155342171Y-35688154D01*
X155291856Y-35637750D01*
X156520971Y-34408635D01*
X156548000Y-34544517D01*
X156548000Y-89500000D01*
X156556685Y-89543663D01*
X156556685Y-89588180D01*
X156632805Y-89970863D01*
X156632805Y-89970864D01*
X156660760Y-90038354D01*
X156700295Y-90133800D01*
X156700296Y-90133801D01*
X156917068Y-90458224D01*
X157041775Y-90582931D01*
X157366196Y-90799702D01*
X157366199Y-90799705D01*
X157481413Y-90847428D01*
X157529136Y-90867195D01*
X157529137Y-90867195D01*
X157911819Y-90943315D01*
X157956337Y-90943315D01*
X158000000Y-90952000D01*
X171205483Y-90952000D01*
X171456322Y-91001895D01*
X171631233Y-91118767D01*
X171748105Y-91293679D01*
X171798000Y-91544517D01*
X171798000Y-108455483D01*
X171748105Y-108706321D01*
X171631233Y-108881233D01*
X171456322Y-108998105D01*
X171205483Y-109048000D01*
X106794517Y-109048000D01*
X106543679Y-108998105D01*
X106368767Y-108881233D01*
X106251895Y-108706322D01*
X106202000Y-108455483D01*
X106202000Y-98411636D01*
X110462951Y-102672586D01*
X110360292Y-102691903D01*
X110231980Y-102774470D01*
X110145899Y-102900453D01*
X110115615Y-103050000D01*
X110115615Y-105744893D01*
X110092171Y-105688154D01*
X109564624Y-105159684D01*
X108874996Y-104873326D01*
X108128280Y-104872675D01*
X107438154Y-105157829D01*
X106909684Y-105685376D01*
X106623326Y-106375004D01*
X106622675Y-107121720D01*
X106907829Y-107811846D01*
X107435376Y-108340316D01*
X108125004Y-108626674D01*
X108871720Y-108627325D01*
X109561846Y-108342171D01*
X110090316Y-107814624D01*
X110376674Y-107124996D01*
X110377325Y-106378280D01*
X110345189Y-106300504D01*
X110350453Y-106304101D01*
X110500000Y-106334385D01*
X111950000Y-106334385D01*
X112089708Y-106308097D01*
X112218020Y-106225530D01*
X112304101Y-106099547D01*
X112334385Y-105950000D01*
X112334385Y-105264203D01*
X112395032Y-105354968D01*
X112945030Y-105904965D01*
X112945032Y-105904968D01*
X113107893Y-106013788D01*
X113180329Y-106028196D01*
X113191903Y-106089708D01*
X113274470Y-106218020D01*
X113400453Y-106304101D01*
X113550000Y-106334385D01*
X115000000Y-106334385D01*
X115139708Y-106308097D01*
X115268020Y-106225530D01*
X115277305Y-106211941D01*
X116149430Y-107084065D01*
X116149432Y-107084068D01*
X116247060Y-107149300D01*
X116312292Y-107192888D01*
X116504400Y-107231100D01*
X139345895Y-107231100D01*
X139345900Y-107231101D01*
X139538007Y-107192888D01*
X139700868Y-107084068D01*
X140450550Y-106334385D01*
X141250000Y-106334385D01*
X141389708Y-106308097D01*
X141518020Y-106225530D01*
X141527305Y-106211941D01*
X142398432Y-107083068D01*
X142561293Y-107191888D01*
X142753400Y-107230101D01*
X142753405Y-107230100D01*
X165596895Y-107230100D01*
X165596900Y-107230101D01*
X165789007Y-107191888D01*
X165951868Y-107083068D01*
X166700551Y-106334385D01*
X167500000Y-106334385D01*
X167639708Y-106308097D01*
X167655265Y-106298086D01*
X167623326Y-106375004D01*
X167622675Y-107121720D01*
X167907829Y-107811846D01*
X168435376Y-108340316D01*
X169125004Y-108626674D01*
X169871720Y-108627325D01*
X170561846Y-108342171D01*
X171090316Y-107814624D01*
X171376674Y-107124996D01*
X171377325Y-106378280D01*
X171092171Y-105688154D01*
X170564624Y-105159684D01*
X169874996Y-104873326D01*
X169128280Y-104872675D01*
X168438154Y-105157829D01*
X167909684Y-105685376D01*
X167884385Y-105746303D01*
X167884385Y-105150000D01*
X167858097Y-105010292D01*
X167836029Y-104975997D01*
X167854101Y-104949547D01*
X167884385Y-104800000D01*
X167884385Y-104200000D01*
X167858097Y-104060292D01*
X167836029Y-104025997D01*
X167854101Y-103999547D01*
X167884385Y-103850000D01*
X167884385Y-103050000D01*
X167858097Y-102910292D01*
X167775530Y-102781980D01*
X167649547Y-102695899D01*
X167500000Y-102665615D01*
X166050000Y-102665615D01*
X165910520Y-102691860D01*
X165824267Y-102483111D01*
X165685466Y-102344068D01*
X166491253Y-102011123D01*
X167158779Y-101344761D01*
X167520488Y-100473670D01*
X167521311Y-99530468D01*
X167377000Y-99181209D01*
X167377000Y-96435863D01*
X167386327Y-96439736D01*
X167991020Y-96440264D01*
X168549886Y-96209345D01*
X168977842Y-95782135D01*
X169209736Y-95223673D01*
X169210264Y-94618980D01*
X168979345Y-94060114D01*
X168552135Y-93632158D01*
X167993673Y-93400264D01*
X167388980Y-93399736D01*
X166830114Y-93630655D01*
X166402158Y-94057865D01*
X166170264Y-94616327D01*
X166169736Y-95221020D01*
X166400655Y-95779886D01*
X166827865Y-96207842D01*
X166877374Y-96228400D01*
X166873000Y-96250000D01*
X166873000Y-98370121D01*
X166494761Y-97991221D01*
X165623670Y-97629512D01*
X164778515Y-97628775D01*
X164750000Y-97623000D01*
X163123876Y-97623000D01*
X163106249Y-97051671D01*
X162877658Y-96499806D01*
X162595963Y-96383642D01*
X161519605Y-97460000D01*
X162595963Y-98536358D01*
X162877658Y-98420194D01*
X162988639Y-98127000D01*
X163670383Y-98127000D01*
X163141221Y-98655239D01*
X162779512Y-99526330D01*
X162778689Y-100469532D01*
X163138877Y-101341253D01*
X163805239Y-102008779D01*
X164676330Y-102370488D01*
X164788121Y-102370586D01*
X164676402Y-102482110D01*
X164588554Y-102693673D01*
X164450000Y-102665615D01*
X163325551Y-102665615D01*
X163029668Y-102369732D01*
X162866807Y-102260912D01*
X162674700Y-102222699D01*
X162674695Y-102222700D01*
X154207435Y-102222700D01*
X150700699Y-98715963D01*
X160263642Y-98715963D01*
X160379806Y-98997658D01*
X161041333Y-99248062D01*
X161748329Y-99226249D01*
X162300194Y-98997658D01*
X162416358Y-98715963D01*
X161340000Y-97639605D01*
X160263642Y-98715963D01*
X150700699Y-98715963D01*
X149146069Y-97161333D01*
X159551938Y-97161333D01*
X159573751Y-97868329D01*
X159802342Y-98420194D01*
X160084037Y-98536358D01*
X161160395Y-97460000D01*
X160084037Y-96383642D01*
X159802342Y-96499806D01*
X159551938Y-97161333D01*
X149146069Y-97161333D01*
X148188773Y-96204037D01*
X160263642Y-96204037D01*
X161340000Y-97280395D01*
X162416358Y-96204037D01*
X162300194Y-95922342D01*
X161638667Y-95671938D01*
X160931671Y-95693751D01*
X160379806Y-95922342D01*
X160263642Y-96204037D01*
X148188773Y-96204037D01*
X140379768Y-88395032D01*
X140216907Y-88286212D01*
X140024800Y-88247999D01*
X140024795Y-88248000D01*
X139207935Y-88248000D01*
X138027001Y-87067065D01*
X138027001Y-86766186D01*
X138119732Y-86904968D01*
X138282593Y-87013788D01*
X138433257Y-87043756D01*
X138441903Y-87089708D01*
X138524470Y-87218020D01*
X138650453Y-87304101D01*
X138800000Y-87334385D01*
X140250000Y-87334385D01*
X140389708Y-87308097D01*
X140518020Y-87225530D01*
X140604101Y-87099547D01*
X140618503Y-87028429D01*
X140692107Y-87013788D01*
X140854968Y-86904968D01*
X143854965Y-83904970D01*
X143854968Y-83904968D01*
X143963788Y-83742107D01*
X143967069Y-83725612D01*
X144002001Y-83550000D01*
X144002000Y-83549995D01*
X144002000Y-78785750D01*
X153265000Y-78785750D01*
X153265000Y-79476310D01*
X153361673Y-79709699D01*
X153540302Y-79888327D01*
X153773691Y-79985000D01*
X154138776Y-79985000D01*
X153858342Y-80172380D01*
X153592362Y-80570447D01*
X153498962Y-81040000D01*
X153592362Y-81509553D01*
X153858342Y-81907620D01*
X154256409Y-82173600D01*
X154373000Y-82196791D01*
X154373000Y-82423209D01*
X154256409Y-82446400D01*
X153858342Y-82712380D01*
X153592362Y-83110447D01*
X153498962Y-83580000D01*
X153592362Y-84049553D01*
X153858342Y-84447620D01*
X154256409Y-84713600D01*
X154373000Y-84736791D01*
X154373000Y-84963209D01*
X154256409Y-84986400D01*
X153858342Y-85252380D01*
X153592362Y-85650447D01*
X153498962Y-86120000D01*
X153592362Y-86589553D01*
X153858342Y-86987620D01*
X154256409Y-87253600D01*
X154373000Y-87276791D01*
X154373000Y-87503209D01*
X154256409Y-87526400D01*
X153858342Y-87792380D01*
X153592362Y-88190447D01*
X153498962Y-88660000D01*
X153592362Y-89129553D01*
X153858342Y-89527620D01*
X154256409Y-89793600D01*
X154725962Y-89887000D01*
X154774038Y-89887000D01*
X155243591Y-89793600D01*
X155641658Y-89527620D01*
X155907638Y-89129553D01*
X156001038Y-88660000D01*
X155907638Y-88190447D01*
X155641658Y-87792380D01*
X155243591Y-87526400D01*
X155127000Y-87503209D01*
X155127000Y-87276791D01*
X155243591Y-87253600D01*
X155641658Y-86987620D01*
X155907638Y-86589553D01*
X156001038Y-86120000D01*
X155907638Y-85650447D01*
X155641658Y-85252380D01*
X155243591Y-84986400D01*
X155127000Y-84963209D01*
X155127000Y-84736791D01*
X155243591Y-84713600D01*
X155641658Y-84447620D01*
X155907638Y-84049553D01*
X156001038Y-83580000D01*
X155907638Y-83110447D01*
X155641658Y-82712380D01*
X155243591Y-82446400D01*
X155127000Y-82423209D01*
X155127000Y-82196791D01*
X155243591Y-82173600D01*
X155641658Y-81907620D01*
X155907638Y-81509553D01*
X156001038Y-81040000D01*
X155907638Y-80570447D01*
X155641658Y-80172380D01*
X155361224Y-79985000D01*
X155726309Y-79985000D01*
X155959698Y-79888327D01*
X156138327Y-79709699D01*
X156235000Y-79476310D01*
X156235000Y-78785750D01*
X156076250Y-78627000D01*
X154877000Y-78627000D01*
X154877000Y-78647000D01*
X154623000Y-78647000D01*
X154623000Y-78627000D01*
X153423750Y-78627000D01*
X153265000Y-78785750D01*
X144002000Y-78785750D01*
X144002000Y-77523690D01*
X153265000Y-77523690D01*
X153265000Y-78214250D01*
X153423750Y-78373000D01*
X154623000Y-78373000D01*
X154623000Y-77173750D01*
X154877000Y-77173750D01*
X154877000Y-78373000D01*
X156076250Y-78373000D01*
X156235000Y-78214250D01*
X156235000Y-77523690D01*
X156138327Y-77290301D01*
X155959698Y-77111673D01*
X155726309Y-77015000D01*
X155035750Y-77015000D01*
X154877000Y-77173750D01*
X154623000Y-77173750D01*
X154464250Y-77015000D01*
X153773691Y-77015000D01*
X153540302Y-77111673D01*
X153361673Y-77290301D01*
X153265000Y-77523690D01*
X144002000Y-77523690D01*
X144002000Y-66033236D01*
X150430265Y-59604970D01*
X150430268Y-59604968D01*
X150539088Y-59442107D01*
X150577300Y-59250000D01*
X150577300Y-48550000D01*
X150539088Y-48357893D01*
X150430268Y-48195032D01*
X150267407Y-48086212D01*
X150116743Y-48056244D01*
X150108097Y-48010292D01*
X150086029Y-47975997D01*
X150104101Y-47949547D01*
X150134385Y-47800000D01*
X150134385Y-47200000D01*
X150108097Y-47060292D01*
X150086029Y-47025997D01*
X150104101Y-46999547D01*
X150134385Y-46850000D01*
X150134385Y-46050000D01*
X150108097Y-45910292D01*
X150025530Y-45781980D01*
X149899547Y-45695899D01*
X149750000Y-45665615D01*
X148300000Y-45665615D01*
X148160292Y-45691903D01*
X148031980Y-45774470D01*
X148022695Y-45788059D01*
X147605629Y-45370993D01*
X147969532Y-45371311D01*
X148841253Y-45011123D01*
X149508779Y-44344761D01*
X149870488Y-43473670D01*
X149871311Y-42530468D01*
X149511123Y-41658747D01*
X148844761Y-40991221D01*
X147973670Y-40629512D01*
X147530246Y-40629125D01*
X147500000Y-40623000D01*
X145209859Y-40623000D01*
X145210264Y-40158980D01*
X144979345Y-39600114D01*
X144552135Y-39172158D01*
X143993673Y-38940264D01*
X143388980Y-38939736D01*
X142830114Y-39170655D01*
X142402158Y-39597865D01*
X142170264Y-40156327D01*
X142169736Y-40761020D01*
X142400655Y-41319886D01*
X142827865Y-41747842D01*
X143386327Y-41979736D01*
X143991020Y-41980264D01*
X144549886Y-41749345D01*
X144977842Y-41322135D01*
X145058869Y-41127000D01*
X146020383Y-41127000D01*
X145491221Y-41655239D01*
X145129512Y-42526330D01*
X145128689Y-43469532D01*
X145488877Y-44341253D01*
X146155239Y-45008779D01*
X146670177Y-45222600D01*
X143107000Y-45222600D01*
X142914892Y-45260812D01*
X142849660Y-45304400D01*
X142752032Y-45369632D01*
X142752030Y-45369635D01*
X142173664Y-45948000D01*
X136455463Y-45948000D01*
X136383990Y-45876402D01*
X136135254Y-45773118D01*
X135865927Y-45772883D01*
X135617011Y-45875733D01*
X135426402Y-46066010D01*
X135323118Y-46314746D01*
X135322883Y-46584073D01*
X135425733Y-46832989D01*
X135616010Y-47023598D01*
X135864746Y-47126882D01*
X136134073Y-47127117D01*
X136382989Y-47024267D01*
X136455382Y-46952000D01*
X141851400Y-46952000D01*
X141851400Y-49359298D01*
X141712803Y-49023868D01*
X140482608Y-47791524D01*
X138874459Y-47123762D01*
X137133181Y-47122242D01*
X135523868Y-47787197D01*
X134291524Y-49017392D01*
X133623762Y-50625541D01*
X133622242Y-52366819D01*
X134287197Y-53976132D01*
X135517392Y-55208476D01*
X137125541Y-55876238D01*
X138866819Y-55877758D01*
X140476132Y-55212803D01*
X141708476Y-53982608D01*
X141851400Y-53638409D01*
X141851400Y-56113491D01*
X141829345Y-56060114D01*
X141402135Y-55632158D01*
X140843673Y-55400264D01*
X140238980Y-55399736D01*
X139680114Y-55630655D01*
X139252158Y-56057865D01*
X139020264Y-56616327D01*
X139019736Y-57221020D01*
X139250655Y-57779886D01*
X139677865Y-58207842D01*
X140236327Y-58439736D01*
X140841020Y-58440264D01*
X141399886Y-58209345D01*
X141827842Y-57782135D01*
X141851400Y-57725401D01*
X141851400Y-57855065D01*
X140308032Y-59398432D01*
X140199212Y-59561293D01*
X140160999Y-59753400D01*
X140161000Y-59753405D01*
X140161000Y-60499995D01*
X140160999Y-60500000D01*
X140199212Y-60692107D01*
X140308032Y-60854968D01*
X140748000Y-61294935D01*
X140748000Y-64998000D01*
X140624600Y-64998000D01*
X140608097Y-64910292D01*
X140525530Y-64781980D01*
X140399547Y-64695899D01*
X140250000Y-64665615D01*
X138800000Y-64665615D01*
X138660292Y-64691903D01*
X138531980Y-64774470D01*
X138445899Y-64900453D01*
X138431499Y-64971563D01*
X137830690Y-64370754D01*
X138469532Y-64371311D01*
X139341253Y-64011123D01*
X140008779Y-63344761D01*
X140370488Y-62473670D01*
X140371311Y-61530468D01*
X140011123Y-60658747D01*
X139344761Y-59991221D01*
X138473670Y-59629512D01*
X137530468Y-59628689D01*
X136658747Y-59988877D01*
X135991221Y-60655239D01*
X135629512Y-61526330D01*
X135628793Y-62350831D01*
X135002994Y-61725032D01*
X134840133Y-61616212D01*
X134648026Y-61577999D01*
X134648021Y-61578000D01*
X128252000Y-61578000D01*
X128252000Y-60552757D01*
X128577175Y-60878499D01*
X129174950Y-61126717D01*
X129822211Y-61127282D01*
X130420418Y-60880108D01*
X130878499Y-60422825D01*
X131126717Y-59825050D01*
X131126772Y-59761020D01*
X132669736Y-59761020D01*
X132900655Y-60319886D01*
X133327865Y-60747842D01*
X133886327Y-60979736D01*
X134491020Y-60980264D01*
X135049886Y-60749345D01*
X135477842Y-60322135D01*
X135709736Y-59763673D01*
X135710264Y-59158980D01*
X135479345Y-58600114D01*
X135052135Y-58172158D01*
X134493673Y-57940264D01*
X133888980Y-57939736D01*
X133330114Y-58170655D01*
X132902158Y-58597865D01*
X132670264Y-59156327D01*
X132669736Y-59761020D01*
X131126772Y-59761020D01*
X131127282Y-59177789D01*
X130880108Y-58579582D01*
X130422825Y-58121501D01*
X129825050Y-57873283D01*
X129177789Y-57872718D01*
X128590423Y-58115412D01*
X129897943Y-56807893D01*
X131354965Y-55350870D01*
X131354968Y-55350868D01*
X131604965Y-55100870D01*
X131604968Y-55100868D01*
X131675105Y-54995900D01*
X131713788Y-54938008D01*
X131752000Y-54745900D01*
X131752000Y-47750000D01*
X131713788Y-47557893D01*
X131713788Y-47557892D01*
X131670200Y-47492660D01*
X131604968Y-47395032D01*
X131604965Y-47395030D01*
X131354968Y-47145032D01*
X131192107Y-47036212D01*
X131092576Y-47016414D01*
X131104101Y-46999547D01*
X131113730Y-46952000D01*
X131294537Y-46952000D01*
X131366010Y-47023598D01*
X131614746Y-47126882D01*
X131884073Y-47127117D01*
X132132989Y-47024267D01*
X132323598Y-46833990D01*
X132426882Y-46585254D01*
X132427117Y-46315927D01*
X132324267Y-46067011D01*
X132133990Y-45876402D01*
X131885254Y-45773118D01*
X131615927Y-45772883D01*
X131367011Y-45875733D01*
X131294618Y-45948000D01*
X131115192Y-45948000D01*
X131108097Y-45910292D01*
X131025530Y-45781980D01*
X130899547Y-45695899D01*
X130750000Y-45665615D01*
X129300000Y-45665615D01*
X129160292Y-45691903D01*
X129031980Y-45774470D01*
X128945899Y-45900453D01*
X128931497Y-45971571D01*
X128857893Y-45986212D01*
X128695032Y-46095032D01*
X128695030Y-46095035D01*
X128620031Y-46170033D01*
X128511211Y-46332894D01*
X128472998Y-46525001D01*
X128472999Y-46525006D01*
X128472999Y-49222999D01*
X128250000Y-49222999D01*
X128057892Y-49261211D01*
X128036807Y-49275300D01*
X127895032Y-49370031D01*
X127895030Y-49370034D01*
X127792065Y-49472999D01*
X127750005Y-49472999D01*
X127750000Y-49472998D01*
X127557893Y-49511211D01*
X127395032Y-49620031D01*
X127395030Y-49620034D01*
X126395032Y-50620031D01*
X126286212Y-50782892D01*
X126247999Y-50974999D01*
X126248000Y-50975004D01*
X126248000Y-52642065D01*
X122734385Y-56155679D01*
X122734385Y-56150000D01*
X122708097Y-56010292D01*
X122625530Y-55881980D01*
X122499547Y-55795899D01*
X122350000Y-55765615D01*
X120650000Y-55765615D01*
X120510292Y-55791903D01*
X120381980Y-55874470D01*
X120295899Y-56000453D01*
X120265615Y-56150000D01*
X120265615Y-57850000D01*
X120291903Y-57989708D01*
X120374470Y-58118020D01*
X120500453Y-58204101D01*
X120650000Y-58234385D01*
X122350000Y-58234385D01*
X122489708Y-58208097D01*
X122618020Y-58125530D01*
X122704101Y-57999547D01*
X122734385Y-57850000D01*
X122734385Y-57475270D01*
X122792107Y-57463788D01*
X122954968Y-57354968D01*
X127104965Y-53204970D01*
X127104968Y-53204968D01*
X127170200Y-53107340D01*
X127213788Y-53042108D01*
X127252000Y-52850000D01*
X127252000Y-52552757D01*
X127577175Y-52878499D01*
X128174950Y-53126717D01*
X128416237Y-53126928D01*
X122583569Y-58959595D01*
X122391658Y-58672380D01*
X121993591Y-58406400D01*
X121524038Y-58313000D01*
X121475962Y-58313000D01*
X121006409Y-58406400D01*
X120608342Y-58672380D01*
X120342362Y-59070447D01*
X120248962Y-59540000D01*
X120342362Y-60009553D01*
X120608342Y-60407620D01*
X121006409Y-60673600D01*
X121475962Y-60767000D01*
X121524038Y-60767000D01*
X121993591Y-60673600D01*
X122391658Y-60407620D01*
X122635958Y-60042000D01*
X122713095Y-60042000D01*
X122713100Y-60042001D01*
X122905207Y-60003788D01*
X123068068Y-59894968D01*
X130440565Y-52522470D01*
X130440568Y-52522468D01*
X130549388Y-52359607D01*
X130587600Y-52167500D01*
X130587600Y-49334385D01*
X130748000Y-49334385D01*
X130748000Y-54537964D01*
X130645032Y-54640932D01*
X130645030Y-54640935D01*
X129225851Y-56060114D01*
X127395032Y-57890932D01*
X127286212Y-58053793D01*
X127247999Y-58245900D01*
X127248000Y-58245905D01*
X127248000Y-61578000D01*
X122635958Y-61578000D01*
X122391658Y-61212380D01*
X121993591Y-60946400D01*
X121524038Y-60853000D01*
X121475962Y-60853000D01*
X121006409Y-60946400D01*
X120608342Y-61212380D01*
X120342362Y-61610447D01*
X120248962Y-62080000D01*
X120342362Y-62549553D01*
X120608342Y-62947620D01*
X120693600Y-63004588D01*
X120606132Y-63063032D01*
X120164500Y-63504664D01*
X120164500Y-55745436D01*
X126575550Y-49334385D01*
X127700000Y-49334385D01*
X127839708Y-49308097D01*
X127968020Y-49225530D01*
X128054101Y-49099547D01*
X128084385Y-48950000D01*
X128084385Y-46050000D01*
X128058097Y-45910292D01*
X127975530Y-45781980D01*
X127849547Y-45695899D01*
X127700000Y-45665615D01*
X126627000Y-45665615D01*
X126627000Y-44479617D01*
X127155239Y-45008779D01*
X128026330Y-45370488D01*
X128969532Y-45371311D01*
X129841253Y-45011123D01*
X130508779Y-44344761D01*
X130870488Y-43473670D01*
X130871094Y-42779164D01*
X130877000Y-42750000D01*
X130877000Y-39439859D01*
X131341020Y-39440264D01*
X131899886Y-39209345D01*
X132327842Y-38782135D01*
X132559736Y-38223673D01*
X132560264Y-37618980D01*
X132329345Y-37060114D01*
X131902135Y-36632158D01*
X131343673Y-36400264D01*
X130738980Y-36399736D01*
X130180114Y-36630655D01*
X129752158Y-37057865D01*
X129520264Y-37616327D01*
X129519736Y-38221020D01*
X129750655Y-38779886D01*
X130177865Y-39207842D01*
X130373000Y-39288869D01*
X130373000Y-41520383D01*
X129844761Y-40991221D01*
X128973670Y-40629512D01*
X128030468Y-40628689D01*
X127158747Y-40988877D01*
X126491221Y-41655239D01*
X126129512Y-42526330D01*
X126128689Y-43469532D01*
X126129012Y-43470313D01*
X126123000Y-43500000D01*
X126123000Y-45689512D01*
X126110292Y-45691903D01*
X125981980Y-45774470D01*
X125895899Y-45900453D01*
X125865615Y-46050000D01*
X125865615Y-48624450D01*
X119452000Y-55038064D01*
X119452000Y-34544517D01*
X119479029Y-34408635D01*
X120707769Y-35637375D01*
X120659684Y-35685376D01*
X120373326Y-36375004D01*
X120372675Y-37121720D01*
X120657829Y-37811846D01*
X121185376Y-38340316D01*
X121875004Y-38626674D01*
X122621720Y-38627325D01*
X123311846Y-38342171D01*
X123373000Y-38281124D01*
X123373000Y-39668085D01*
X123170264Y-40156327D01*
X123169736Y-40761020D01*
X123400655Y-41319886D01*
X123827865Y-41747842D01*
X124386327Y-41979736D01*
X124991020Y-41980264D01*
X125549886Y-41749345D01*
X125977842Y-41322135D01*
X126209736Y-40763673D01*
X126210264Y-40158980D01*
X125979345Y-39600114D01*
X125552135Y-39172158D01*
X124993673Y-38940264D01*
X124388980Y-38939736D01*
X123877000Y-39151282D01*
X123877000Y-37750000D01*
X123873929Y-37733676D01*
X124126674Y-37124996D01*
X124127325Y-36378280D01*
X123842171Y-35688154D01*
X123314624Y-35159684D01*
X122624996Y-34873326D01*
X121878280Y-34872675D01*
X121188154Y-35157829D01*
X121137750Y-35208144D01*
X119908635Y-33979029D01*
X120044517Y-33952000D01*
X155955483Y-33952000D01*
X156091365Y-33979029D01*
X156091365Y-33979029D01*
G37*
X156091365Y-33979029D02*
X154862625Y-35207769D01*
X154814624Y-35159684D01*
X154124996Y-34873326D01*
X153378280Y-34872675D01*
X152688154Y-35157829D01*
X152159684Y-35685376D01*
X151873326Y-36375004D01*
X151872675Y-37121720D01*
X152157829Y-37811846D01*
X152468440Y-38123000D01*
X151559824Y-38123000D01*
X151560264Y-37618980D01*
X151329345Y-37060114D01*
X150902135Y-36632158D01*
X150343673Y-36400264D01*
X149738980Y-36399736D01*
X149180114Y-36630655D01*
X148752158Y-37057865D01*
X148520264Y-37616327D01*
X148519736Y-38221020D01*
X148750655Y-38779886D01*
X149177865Y-39207842D01*
X149736327Y-39439736D01*
X150341020Y-39440264D01*
X150899886Y-39209345D01*
X151327842Y-38782135D01*
X151392260Y-38627000D01*
X153500000Y-38627000D01*
X153501148Y-38626784D01*
X154121720Y-38627325D01*
X154811846Y-38342171D01*
X155340316Y-37814624D01*
X155626674Y-37124996D01*
X155627325Y-36378280D01*
X155342171Y-35688154D01*
X155291856Y-35637750D01*
X156520971Y-34408635D01*
X156548000Y-34544517D01*
X156548000Y-89500000D01*
X156556685Y-89543663D01*
X156556685Y-89588180D01*
X156632805Y-89970863D01*
X156632805Y-89970864D01*
X156660760Y-90038354D01*
X156700295Y-90133800D01*
X156700296Y-90133801D01*
X156917068Y-90458224D01*
X157041775Y-90582931D01*
X157366196Y-90799702D01*
X157366199Y-90799705D01*
X157481413Y-90847428D01*
X157529136Y-90867195D01*
X157529137Y-90867195D01*
X157911819Y-90943315D01*
X157956337Y-90943315D01*
X158000000Y-90952000D01*
X171205483Y-90952000D01*
X171456322Y-91001895D01*
X171631233Y-91118767D01*
X171748105Y-91293679D01*
X171798000Y-91544517D01*
X171798000Y-108455483D01*
X171748105Y-108706321D01*
X171631233Y-108881233D01*
X171456322Y-108998105D01*
X171205483Y-109048000D01*
X106794517Y-109048000D01*
X106543679Y-108998105D01*
X106368767Y-108881233D01*
X106251895Y-108706322D01*
X106202000Y-108455483D01*
X106202000Y-98411636D01*
X110462951Y-102672586D01*
X110360292Y-102691903D01*
X110231980Y-102774470D01*
X110145899Y-102900453D01*
X110115615Y-103050000D01*
X110115615Y-105744893D01*
X110092171Y-105688154D01*
X109564624Y-105159684D01*
X108874996Y-104873326D01*
X108128280Y-104872675D01*
X107438154Y-105157829D01*
X106909684Y-105685376D01*
X106623326Y-106375004D01*
X106622675Y-107121720D01*
X106907829Y-107811846D01*
X107435376Y-108340316D01*
X108125004Y-108626674D01*
X108871720Y-108627325D01*
X109561846Y-108342171D01*
X110090316Y-107814624D01*
X110376674Y-107124996D01*
X110377325Y-106378280D01*
X110345189Y-106300504D01*
X110350453Y-106304101D01*
X110500000Y-106334385D01*
X111950000Y-106334385D01*
X112089708Y-106308097D01*
X112218020Y-106225530D01*
X112304101Y-106099547D01*
X112334385Y-105950000D01*
X112334385Y-105264203D01*
X112395032Y-105354968D01*
X112945030Y-105904965D01*
X112945032Y-105904968D01*
X113107893Y-106013788D01*
X113180329Y-106028196D01*
X113191903Y-106089708D01*
X113274470Y-106218020D01*
X113400453Y-106304101D01*
X113550000Y-106334385D01*
X115000000Y-106334385D01*
X115139708Y-106308097D01*
X115268020Y-106225530D01*
X115277305Y-106211941D01*
X116149430Y-107084065D01*
X116149432Y-107084068D01*
X116247060Y-107149300D01*
X116312292Y-107192888D01*
X116504400Y-107231100D01*
X139345895Y-107231100D01*
X139345900Y-107231101D01*
X139538007Y-107192888D01*
X139700868Y-107084068D01*
X140450550Y-106334385D01*
X141250000Y-106334385D01*
X141389708Y-106308097D01*
X141518020Y-106225530D01*
X141527305Y-106211941D01*
X142398432Y-107083068D01*
X142561293Y-107191888D01*
X142753400Y-107230101D01*
X142753405Y-107230100D01*
X165596895Y-107230100D01*
X165596900Y-107230101D01*
X165789007Y-107191888D01*
X165951868Y-107083068D01*
X166700551Y-106334385D01*
X167500000Y-106334385D01*
X167639708Y-106308097D01*
X167655265Y-106298086D01*
X167623326Y-106375004D01*
X167622675Y-107121720D01*
X167907829Y-107811846D01*
X168435376Y-108340316D01*
X169125004Y-108626674D01*
X169871720Y-108627325D01*
X170561846Y-108342171D01*
X171090316Y-107814624D01*
X171376674Y-107124996D01*
X171377325Y-106378280D01*
X171092171Y-105688154D01*
X170564624Y-105159684D01*
X169874996Y-104873326D01*
X169128280Y-104872675D01*
X168438154Y-105157829D01*
X167909684Y-105685376D01*
X167884385Y-105746303D01*
X167884385Y-105150000D01*
X167858097Y-105010292D01*
X167836029Y-104975997D01*
X167854101Y-104949547D01*
X167884385Y-104800000D01*
X167884385Y-104200000D01*
X167858097Y-104060292D01*
X167836029Y-104025997D01*
X167854101Y-103999547D01*
X167884385Y-103850000D01*
X167884385Y-103050000D01*
X167858097Y-102910292D01*
X167775530Y-102781980D01*
X167649547Y-102695899D01*
X167500000Y-102665615D01*
X166050000Y-102665615D01*
X165910520Y-102691860D01*
X165824267Y-102483111D01*
X165685466Y-102344068D01*
X166491253Y-102011123D01*
X167158779Y-101344761D01*
X167520488Y-100473670D01*
X167521311Y-99530468D01*
X167377000Y-99181209D01*
X167377000Y-96435863D01*
X167386327Y-96439736D01*
X167991020Y-96440264D01*
X168549886Y-96209345D01*
X168977842Y-95782135D01*
X169209736Y-95223673D01*
X169210264Y-94618980D01*
X168979345Y-94060114D01*
X168552135Y-93632158D01*
X167993673Y-93400264D01*
X167388980Y-93399736D01*
X166830114Y-93630655D01*
X166402158Y-94057865D01*
X166170264Y-94616327D01*
X166169736Y-95221020D01*
X166400655Y-95779886D01*
X166827865Y-96207842D01*
X166877374Y-96228400D01*
X166873000Y-96250000D01*
X166873000Y-98370121D01*
X166494761Y-97991221D01*
X165623670Y-97629512D01*
X164778515Y-97628775D01*
X164750000Y-97623000D01*
X163123876Y-97623000D01*
X163106249Y-97051671D01*
X162877658Y-96499806D01*
X162595963Y-96383642D01*
X161519605Y-97460000D01*
X162595963Y-98536358D01*
X162877658Y-98420194D01*
X162988639Y-98127000D01*
X163670383Y-98127000D01*
X163141221Y-98655239D01*
X162779512Y-99526330D01*
X162778689Y-100469532D01*
X163138877Y-101341253D01*
X163805239Y-102008779D01*
X164676330Y-102370488D01*
X164788121Y-102370586D01*
X164676402Y-102482110D01*
X164588554Y-102693673D01*
X164450000Y-102665615D01*
X163325551Y-102665615D01*
X163029668Y-102369732D01*
X162866807Y-102260912D01*
X162674700Y-102222699D01*
X162674695Y-102222700D01*
X154207435Y-102222700D01*
X150700699Y-98715963D01*
X160263642Y-98715963D01*
X160379806Y-98997658D01*
X161041333Y-99248062D01*
X161748329Y-99226249D01*
X162300194Y-98997658D01*
X162416358Y-98715963D01*
X161340000Y-97639605D01*
X160263642Y-98715963D01*
X150700699Y-98715963D01*
X149146069Y-97161333D01*
X159551938Y-97161333D01*
X159573751Y-97868329D01*
X159802342Y-98420194D01*
X160084037Y-98536358D01*
X161160395Y-97460000D01*
X160084037Y-96383642D01*
X159802342Y-96499806D01*
X159551938Y-97161333D01*
X149146069Y-97161333D01*
X148188773Y-96204037D01*
X160263642Y-96204037D01*
X161340000Y-97280395D01*
X162416358Y-96204037D01*
X162300194Y-95922342D01*
X161638667Y-95671938D01*
X160931671Y-95693751D01*
X160379806Y-95922342D01*
X160263642Y-96204037D01*
X148188773Y-96204037D01*
X140379768Y-88395032D01*
X140216907Y-88286212D01*
X140024800Y-88247999D01*
X140024795Y-88248000D01*
X139207935Y-88248000D01*
X138027001Y-87067065D01*
X138027001Y-86766186D01*
X138119732Y-86904968D01*
X138282593Y-87013788D01*
X138433257Y-87043756D01*
X138441903Y-87089708D01*
X138524470Y-87218020D01*
X138650453Y-87304101D01*
X138800000Y-87334385D01*
X140250000Y-87334385D01*
X140389708Y-87308097D01*
X140518020Y-87225530D01*
X140604101Y-87099547D01*
X140618503Y-87028429D01*
X140692107Y-87013788D01*
X140854968Y-86904968D01*
X143854965Y-83904970D01*
X143854968Y-83904968D01*
X143963788Y-83742107D01*
X143967069Y-83725612D01*
X144002001Y-83550000D01*
X144002000Y-83549995D01*
X144002000Y-78785750D01*
X153265000Y-78785750D01*
X153265000Y-79476310D01*
X153361673Y-79709699D01*
X153540302Y-79888327D01*
X153773691Y-79985000D01*
X154138776Y-79985000D01*
X153858342Y-80172380D01*
X153592362Y-80570447D01*
X153498962Y-81040000D01*
X153592362Y-81509553D01*
X153858342Y-81907620D01*
X154256409Y-82173600D01*
X154373000Y-82196791D01*
X154373000Y-82423209D01*
X154256409Y-82446400D01*
X153858342Y-82712380D01*
X153592362Y-83110447D01*
X153498962Y-83580000D01*
X153592362Y-84049553D01*
X153858342Y-84447620D01*
X154256409Y-84713600D01*
X154373000Y-84736791D01*
X154373000Y-84963209D01*
X154256409Y-84986400D01*
X153858342Y-85252380D01*
X153592362Y-85650447D01*
X153498962Y-86120000D01*
X153592362Y-86589553D01*
X153858342Y-86987620D01*
X154256409Y-87253600D01*
X154373000Y-87276791D01*
X154373000Y-87503209D01*
X154256409Y-87526400D01*
X153858342Y-87792380D01*
X153592362Y-88190447D01*
X153498962Y-88660000D01*
X153592362Y-89129553D01*
X153858342Y-89527620D01*
X154256409Y-89793600D01*
X154725962Y-89887000D01*
X154774038Y-89887000D01*
X155243591Y-89793600D01*
X155641658Y-89527620D01*
X155907638Y-89129553D01*
X156001038Y-88660000D01*
X155907638Y-88190447D01*
X155641658Y-87792380D01*
X155243591Y-87526400D01*
X155127000Y-87503209D01*
X155127000Y-87276791D01*
X155243591Y-87253600D01*
X155641658Y-86987620D01*
X155907638Y-86589553D01*
X156001038Y-86120000D01*
X155907638Y-85650447D01*
X155641658Y-85252380D01*
X155243591Y-84986400D01*
X155127000Y-84963209D01*
X155127000Y-84736791D01*
X155243591Y-84713600D01*
X155641658Y-84447620D01*
X155907638Y-84049553D01*
X156001038Y-83580000D01*
X155907638Y-83110447D01*
X155641658Y-82712380D01*
X155243591Y-82446400D01*
X155127000Y-82423209D01*
X155127000Y-82196791D01*
X155243591Y-82173600D01*
X155641658Y-81907620D01*
X155907638Y-81509553D01*
X156001038Y-81040000D01*
X155907638Y-80570447D01*
X155641658Y-80172380D01*
X155361224Y-79985000D01*
X155726309Y-79985000D01*
X155959698Y-79888327D01*
X156138327Y-79709699D01*
X156235000Y-79476310D01*
X156235000Y-78785750D01*
X156076250Y-78627000D01*
X154877000Y-78627000D01*
X154877000Y-78647000D01*
X154623000Y-78647000D01*
X154623000Y-78627000D01*
X153423750Y-78627000D01*
X153265000Y-78785750D01*
X144002000Y-78785750D01*
X144002000Y-77523690D01*
X153265000Y-77523690D01*
X153265000Y-78214250D01*
X153423750Y-78373000D01*
X154623000Y-78373000D01*
X154623000Y-77173750D01*
X154877000Y-77173750D01*
X154877000Y-78373000D01*
X156076250Y-78373000D01*
X156235000Y-78214250D01*
X156235000Y-77523690D01*
X156138327Y-77290301D01*
X155959698Y-77111673D01*
X155726309Y-77015000D01*
X155035750Y-77015000D01*
X154877000Y-77173750D01*
X154623000Y-77173750D01*
X154464250Y-77015000D01*
X153773691Y-77015000D01*
X153540302Y-77111673D01*
X153361673Y-77290301D01*
X153265000Y-77523690D01*
X144002000Y-77523690D01*
X144002000Y-66033236D01*
X150430265Y-59604970D01*
X150430268Y-59604968D01*
X150539088Y-59442107D01*
X150577300Y-59250000D01*
X150577300Y-48550000D01*
X150539088Y-48357893D01*
X150430268Y-48195032D01*
X150267407Y-48086212D01*
X150116743Y-48056244D01*
X150108097Y-48010292D01*
X150086029Y-47975997D01*
X150104101Y-47949547D01*
X150134385Y-47800000D01*
X150134385Y-47200000D01*
X150108097Y-47060292D01*
X150086029Y-47025997D01*
X150104101Y-46999547D01*
X150134385Y-46850000D01*
X150134385Y-46050000D01*
X150108097Y-45910292D01*
X150025530Y-45781980D01*
X149899547Y-45695899D01*
X149750000Y-45665615D01*
X148300000Y-45665615D01*
X148160292Y-45691903D01*
X148031980Y-45774470D01*
X148022695Y-45788059D01*
X147605629Y-45370993D01*
X147969532Y-45371311D01*
X148841253Y-45011123D01*
X149508779Y-44344761D01*
X149870488Y-43473670D01*
X149871311Y-42530468D01*
X149511123Y-41658747D01*
X148844761Y-40991221D01*
X147973670Y-40629512D01*
X147530246Y-40629125D01*
X147500000Y-40623000D01*
X145209859Y-40623000D01*
X145210264Y-40158980D01*
X144979345Y-39600114D01*
X144552135Y-39172158D01*
X143993673Y-38940264D01*
X143388980Y-38939736D01*
X142830114Y-39170655D01*
X142402158Y-39597865D01*
X142170264Y-40156327D01*
X142169736Y-40761020D01*
X142400655Y-41319886D01*
X142827865Y-41747842D01*
X143386327Y-41979736D01*
X143991020Y-41980264D01*
X144549886Y-41749345D01*
X144977842Y-41322135D01*
X145058869Y-41127000D01*
X146020383Y-41127000D01*
X145491221Y-41655239D01*
X145129512Y-42526330D01*
X145128689Y-43469532D01*
X145488877Y-44341253D01*
X146155239Y-45008779D01*
X146670177Y-45222600D01*
X143107000Y-45222600D01*
X142914892Y-45260812D01*
X142849660Y-45304400D01*
X142752032Y-45369632D01*
X142752030Y-45369635D01*
X142173664Y-45948000D01*
X136455463Y-45948000D01*
X136383990Y-45876402D01*
X136135254Y-45773118D01*
X135865927Y-45772883D01*
X135617011Y-45875733D01*
X135426402Y-46066010D01*
X135323118Y-46314746D01*
X135322883Y-46584073D01*
X135425733Y-46832989D01*
X135616010Y-47023598D01*
X135864746Y-47126882D01*
X136134073Y-47127117D01*
X136382989Y-47024267D01*
X136455382Y-46952000D01*
X141851400Y-46952000D01*
X141851400Y-49359298D01*
X141712803Y-49023868D01*
X140482608Y-47791524D01*
X138874459Y-47123762D01*
X137133181Y-47122242D01*
X135523868Y-47787197D01*
X134291524Y-49017392D01*
X133623762Y-50625541D01*
X133622242Y-52366819D01*
X134287197Y-53976132D01*
X135517392Y-55208476D01*
X137125541Y-55876238D01*
X138866819Y-55877758D01*
X140476132Y-55212803D01*
X141708476Y-53982608D01*
X141851400Y-53638409D01*
X141851400Y-56113491D01*
X141829345Y-56060114D01*
X141402135Y-55632158D01*
X140843673Y-55400264D01*
X140238980Y-55399736D01*
X139680114Y-55630655D01*
X139252158Y-56057865D01*
X139020264Y-56616327D01*
X139019736Y-57221020D01*
X139250655Y-57779886D01*
X139677865Y-58207842D01*
X140236327Y-58439736D01*
X140841020Y-58440264D01*
X141399886Y-58209345D01*
X141827842Y-57782135D01*
X141851400Y-57725401D01*
X141851400Y-57855065D01*
X140308032Y-59398432D01*
X140199212Y-59561293D01*
X140160999Y-59753400D01*
X140161000Y-59753405D01*
X140161000Y-60499995D01*
X140160999Y-60500000D01*
X140199212Y-60692107D01*
X140308032Y-60854968D01*
X140748000Y-61294935D01*
X140748000Y-64998000D01*
X140624600Y-64998000D01*
X140608097Y-64910292D01*
X140525530Y-64781980D01*
X140399547Y-64695899D01*
X140250000Y-64665615D01*
X138800000Y-64665615D01*
X138660292Y-64691903D01*
X138531980Y-64774470D01*
X138445899Y-64900453D01*
X138431499Y-64971563D01*
X137830690Y-64370754D01*
X138469532Y-64371311D01*
X139341253Y-64011123D01*
X140008779Y-63344761D01*
X140370488Y-62473670D01*
X140371311Y-61530468D01*
X140011123Y-60658747D01*
X139344761Y-59991221D01*
X138473670Y-59629512D01*
X137530468Y-59628689D01*
X136658747Y-59988877D01*
X135991221Y-60655239D01*
X135629512Y-61526330D01*
X135628793Y-62350831D01*
X135002994Y-61725032D01*
X134840133Y-61616212D01*
X134648026Y-61577999D01*
X134648021Y-61578000D01*
X128252000Y-61578000D01*
X128252000Y-60552757D01*
X128577175Y-60878499D01*
X129174950Y-61126717D01*
X129822211Y-61127282D01*
X130420418Y-60880108D01*
X130878499Y-60422825D01*
X131126717Y-59825050D01*
X131126772Y-59761020D01*
X132669736Y-59761020D01*
X132900655Y-60319886D01*
X133327865Y-60747842D01*
X133886327Y-60979736D01*
X134491020Y-60980264D01*
X135049886Y-60749345D01*
X135477842Y-60322135D01*
X135709736Y-59763673D01*
X135710264Y-59158980D01*
X135479345Y-58600114D01*
X135052135Y-58172158D01*
X134493673Y-57940264D01*
X133888980Y-57939736D01*
X133330114Y-58170655D01*
X132902158Y-58597865D01*
X132670264Y-59156327D01*
X132669736Y-59761020D01*
X131126772Y-59761020D01*
X131127282Y-59177789D01*
X130880108Y-58579582D01*
X130422825Y-58121501D01*
X129825050Y-57873283D01*
X129177789Y-57872718D01*
X128590423Y-58115412D01*
X129897943Y-56807893D01*
X131354965Y-55350870D01*
X131354968Y-55350868D01*
X131604965Y-55100870D01*
X131604968Y-55100868D01*
X131675105Y-54995900D01*
X131713788Y-54938008D01*
X131752000Y-54745900D01*
X131752000Y-47750000D01*
X131713788Y-47557893D01*
X131713788Y-47557892D01*
X131670200Y-47492660D01*
X131604968Y-47395032D01*
X131604965Y-47395030D01*
X131354968Y-47145032D01*
X131192107Y-47036212D01*
X131092576Y-47016414D01*
X131104101Y-46999547D01*
X131113730Y-46952000D01*
X131294537Y-46952000D01*
X131366010Y-47023598D01*
X131614746Y-47126882D01*
X131884073Y-47127117D01*
X132132989Y-47024267D01*
X132323598Y-46833990D01*
X132426882Y-46585254D01*
X132427117Y-46315927D01*
X132324267Y-46067011D01*
X132133990Y-45876402D01*
X131885254Y-45773118D01*
X131615927Y-45772883D01*
X131367011Y-45875733D01*
X131294618Y-45948000D01*
X131115192Y-45948000D01*
X131108097Y-45910292D01*
X131025530Y-45781980D01*
X130899547Y-45695899D01*
X130750000Y-45665615D01*
X129300000Y-45665615D01*
X129160292Y-45691903D01*
X129031980Y-45774470D01*
X128945899Y-45900453D01*
X128931497Y-45971571D01*
X128857893Y-45986212D01*
X128695032Y-46095032D01*
X128695030Y-46095035D01*
X128620031Y-46170033D01*
X128511211Y-46332894D01*
X128472998Y-46525001D01*
X128472999Y-46525006D01*
X128472999Y-49222999D01*
X128250000Y-49222999D01*
X128057892Y-49261211D01*
X128036807Y-49275300D01*
X127895032Y-49370031D01*
X127895030Y-49370034D01*
X127792065Y-49472999D01*
X127750005Y-49472999D01*
X127750000Y-49472998D01*
X127557893Y-49511211D01*
X127395032Y-49620031D01*
X127395030Y-49620034D01*
X126395032Y-50620031D01*
X126286212Y-50782892D01*
X126247999Y-50974999D01*
X126248000Y-50975004D01*
X126248000Y-52642065D01*
X122734385Y-56155679D01*
X122734385Y-56150000D01*
X122708097Y-56010292D01*
X122625530Y-55881980D01*
X122499547Y-55795899D01*
X122350000Y-55765615D01*
X120650000Y-55765615D01*
X120510292Y-55791903D01*
X120381980Y-55874470D01*
X120295899Y-56000453D01*
X120265615Y-56150000D01*
X120265615Y-57850000D01*
X120291903Y-57989708D01*
X120374470Y-58118020D01*
X120500453Y-58204101D01*
X120650000Y-58234385D01*
X122350000Y-58234385D01*
X122489708Y-58208097D01*
X122618020Y-58125530D01*
X122704101Y-57999547D01*
X122734385Y-57850000D01*
X122734385Y-57475270D01*
X122792107Y-57463788D01*
X122954968Y-57354968D01*
X127104965Y-53204970D01*
X127104968Y-53204968D01*
X127170200Y-53107340D01*
X127213788Y-53042108D01*
X127252000Y-52850000D01*
X127252000Y-52552757D01*
X127577175Y-52878499D01*
X128174950Y-53126717D01*
X128416237Y-53126928D01*
X122583569Y-58959595D01*
X122391658Y-58672380D01*
X121993591Y-58406400D01*
X121524038Y-58313000D01*
X121475962Y-58313000D01*
X121006409Y-58406400D01*
X120608342Y-58672380D01*
X120342362Y-59070447D01*
X120248962Y-59540000D01*
X120342362Y-60009553D01*
X120608342Y-60407620D01*
X121006409Y-60673600D01*
X121475962Y-60767000D01*
X121524038Y-60767000D01*
X121993591Y-60673600D01*
X122391658Y-60407620D01*
X122635958Y-60042000D01*
X122713095Y-60042000D01*
X122713100Y-60042001D01*
X122905207Y-60003788D01*
X123068068Y-59894968D01*
X130440565Y-52522470D01*
X130440568Y-52522468D01*
X130549388Y-52359607D01*
X130587600Y-52167500D01*
X130587600Y-49334385D01*
X130748000Y-49334385D01*
X130748000Y-54537964D01*
X130645032Y-54640932D01*
X130645030Y-54640935D01*
X129225851Y-56060114D01*
X127395032Y-57890932D01*
X127286212Y-58053793D01*
X127247999Y-58245900D01*
X127248000Y-58245905D01*
X127248000Y-61578000D01*
X122635958Y-61578000D01*
X122391658Y-61212380D01*
X121993591Y-60946400D01*
X121524038Y-60853000D01*
X121475962Y-60853000D01*
X121006409Y-60946400D01*
X120608342Y-61212380D01*
X120342362Y-61610447D01*
X120248962Y-62080000D01*
X120342362Y-62549553D01*
X120608342Y-62947620D01*
X120693600Y-63004588D01*
X120606132Y-63063032D01*
X120164500Y-63504664D01*
X120164500Y-55745436D01*
X126575550Y-49334385D01*
X127700000Y-49334385D01*
X127839708Y-49308097D01*
X127968020Y-49225530D01*
X128054101Y-49099547D01*
X128084385Y-48950000D01*
X128084385Y-46050000D01*
X128058097Y-45910292D01*
X127975530Y-45781980D01*
X127849547Y-45695899D01*
X127700000Y-45665615D01*
X126627000Y-45665615D01*
X126627000Y-44479617D01*
X127155239Y-45008779D01*
X128026330Y-45370488D01*
X128969532Y-45371311D01*
X129841253Y-45011123D01*
X130508779Y-44344761D01*
X130870488Y-43473670D01*
X130871094Y-42779164D01*
X130877000Y-42750000D01*
X130877000Y-39439859D01*
X131341020Y-39440264D01*
X131899886Y-39209345D01*
X132327842Y-38782135D01*
X132559736Y-38223673D01*
X132560264Y-37618980D01*
X132329345Y-37060114D01*
X131902135Y-36632158D01*
X131343673Y-36400264D01*
X130738980Y-36399736D01*
X130180114Y-36630655D01*
X129752158Y-37057865D01*
X129520264Y-37616327D01*
X129519736Y-38221020D01*
X129750655Y-38779886D01*
X130177865Y-39207842D01*
X130373000Y-39288869D01*
X130373000Y-41520383D01*
X129844761Y-40991221D01*
X128973670Y-40629512D01*
X128030468Y-40628689D01*
X127158747Y-40988877D01*
X126491221Y-41655239D01*
X126129512Y-42526330D01*
X126128689Y-43469532D01*
X126129012Y-43470313D01*
X126123000Y-43500000D01*
X126123000Y-45689512D01*
X126110292Y-45691903D01*
X125981980Y-45774470D01*
X125895899Y-45900453D01*
X125865615Y-46050000D01*
X125865615Y-48624450D01*
X119452000Y-55038064D01*
X119452000Y-34544517D01*
X119479029Y-34408635D01*
X120707769Y-35637375D01*
X120659684Y-35685376D01*
X120373326Y-36375004D01*
X120372675Y-37121720D01*
X120657829Y-37811846D01*
X121185376Y-38340316D01*
X121875004Y-38626674D01*
X122621720Y-38627325D01*
X123311846Y-38342171D01*
X123373000Y-38281124D01*
X123373000Y-39668085D01*
X123170264Y-40156327D01*
X123169736Y-40761020D01*
X123400655Y-41319886D01*
X123827865Y-41747842D01*
X124386327Y-41979736D01*
X124991020Y-41980264D01*
X125549886Y-41749345D01*
X125977842Y-41322135D01*
X126209736Y-40763673D01*
X126210264Y-40158980D01*
X125979345Y-39600114D01*
X125552135Y-39172158D01*
X124993673Y-38940264D01*
X124388980Y-38939736D01*
X123877000Y-39151282D01*
X123877000Y-37750000D01*
X123873929Y-37733676D01*
X124126674Y-37124996D01*
X124127325Y-36378280D01*
X123842171Y-35688154D01*
X123314624Y-35159684D01*
X122624996Y-34873326D01*
X121878280Y-34872675D01*
X121188154Y-35157829D01*
X121137750Y-35208144D01*
X119908635Y-33979029D01*
X120044517Y-33952000D01*
X155955483Y-33952000D01*
X156091365Y-33979029D01*
G36*
X124998000Y-71942637D02*
X124997999Y-71942642D01*
X125036212Y-72134749D01*
X125145032Y-72297610D01*
X132345423Y-79498000D01*
X129205463Y-79498000D01*
X129133990Y-79426402D01*
X128885254Y-79323118D01*
X128615927Y-79322883D01*
X128367011Y-79425733D01*
X128176402Y-79616010D01*
X128073118Y-79864746D01*
X128072883Y-80134073D01*
X128175733Y-80382989D01*
X128366010Y-80573598D01*
X128614746Y-80676882D01*
X128884073Y-80677117D01*
X129132989Y-80574267D01*
X129205382Y-80502000D01*
X132467064Y-80502000D01*
X135649576Y-83684511D01*
X135610292Y-83691903D01*
X135481980Y-83774470D01*
X135395899Y-83900453D01*
X135365615Y-84050000D01*
X135365615Y-86950000D01*
X135391903Y-87089708D01*
X135474470Y-87218020D01*
X135600453Y-87304101D01*
X135750000Y-87334385D01*
X137034812Y-87334385D01*
X137061213Y-87467108D01*
X137170033Y-87629969D01*
X138645030Y-89104965D01*
X138645032Y-89104968D01*
X138807893Y-89213788D01*
X139000000Y-89252001D01*
X139000005Y-89252000D01*
X139816864Y-89252000D01*
X153644530Y-103079665D01*
X153644532Y-103079668D01*
X153742160Y-103144900D01*
X153807392Y-103188488D01*
X153999500Y-103226700D01*
X162466764Y-103226700D01*
X162615615Y-103375551D01*
X162615615Y-105773400D01*
X143733335Y-105773400D01*
X142104968Y-104145032D01*
X141942107Y-104036212D01*
X141750000Y-103997999D01*
X141749995Y-103998000D01*
X141604414Y-103998000D01*
X141634385Y-103850000D01*
X141634385Y-103050000D01*
X141608097Y-102910292D01*
X141525530Y-102781980D01*
X141399547Y-102695899D01*
X141250000Y-102665615D01*
X139800000Y-102665615D01*
X139660520Y-102691860D01*
X139574267Y-102483111D01*
X139462656Y-102371305D01*
X139469532Y-102371311D01*
X140341253Y-102011123D01*
X141008779Y-101344761D01*
X141370488Y-100473670D01*
X141371311Y-99530468D01*
X141011123Y-98658747D01*
X140344761Y-97991221D01*
X139473670Y-97629512D01*
X138530468Y-97628689D01*
X137658747Y-97988877D01*
X136991221Y-98655239D01*
X136629512Y-99526330D01*
X136628689Y-100469532D01*
X136988877Y-101341253D01*
X137655239Y-102008779D01*
X138526330Y-102370488D01*
X138538208Y-102370498D01*
X138426402Y-102482110D01*
X138338554Y-102693673D01*
X138200000Y-102665615D01*
X137965247Y-102665615D01*
X137938788Y-102532592D01*
X137840339Y-102385254D01*
X137829968Y-102369732D01*
X137829965Y-102369730D01*
X134596815Y-99136580D01*
X134891333Y-99248062D01*
X135598329Y-99226249D01*
X136150194Y-98997658D01*
X136266358Y-98715963D01*
X135190000Y-97639605D01*
X135175858Y-97653748D01*
X134996253Y-97474143D01*
X135010395Y-97460000D01*
X135369605Y-97460000D01*
X136445963Y-98536358D01*
X136727658Y-98420194D01*
X136978062Y-97758667D01*
X136956249Y-97051671D01*
X136727658Y-96499806D01*
X136445963Y-96383642D01*
X135369605Y-97460000D01*
X135010395Y-97460000D01*
X133934037Y-96383642D01*
X133652342Y-96499806D01*
X133401938Y-97161333D01*
X133423751Y-97868329D01*
X133491059Y-98030823D01*
X131664273Y-96204037D01*
X134113642Y-96204037D01*
X135190000Y-97280395D01*
X136266358Y-96204037D01*
X136150194Y-95922342D01*
X135488667Y-95671938D01*
X134781671Y-95693751D01*
X134229806Y-95922342D01*
X134113642Y-96204037D01*
X131664273Y-96204037D01*
X130681256Y-95221020D01*
X140019736Y-95221020D01*
X140250655Y-95779886D01*
X140677865Y-96207842D01*
X141236327Y-96439736D01*
X141841020Y-96440264D01*
X142399886Y-96209345D01*
X142827842Y-95782135D01*
X143059736Y-95223673D01*
X143060264Y-94618980D01*
X142829345Y-94060114D01*
X142402135Y-93632158D01*
X141843673Y-93400264D01*
X141238980Y-93399736D01*
X140680114Y-93630655D01*
X140252158Y-94057865D01*
X140020264Y-94616327D01*
X140019736Y-95221020D01*
X130681256Y-95221020D01*
X127684900Y-92224664D01*
X127684900Y-76568201D01*
X127849798Y-76403590D01*
X127953082Y-76154854D01*
X127953317Y-75885527D01*
X127850467Y-75636611D01*
X127660190Y-75446002D01*
X127411454Y-75342718D01*
X127142127Y-75342483D01*
X126893211Y-75445333D01*
X126702602Y-75635610D01*
X126599318Y-75884346D01*
X126599083Y-76153673D01*
X126680900Y-76351685D01*
X126680900Y-92432595D01*
X126680899Y-92432600D01*
X126719112Y-92624707D01*
X126827932Y-92787568D01*
X136712951Y-102672586D01*
X136610292Y-102691903D01*
X136481980Y-102774470D01*
X136395899Y-102900453D01*
X136365615Y-103050000D01*
X136365615Y-105773400D01*
X117233335Y-105773400D01*
X115997586Y-104537650D01*
X119930265Y-100604970D01*
X119930268Y-100604968D01*
X120039088Y-100442107D01*
X120077301Y-100250000D01*
X120077300Y-100249995D01*
X120077300Y-81161936D01*
X121098000Y-82182635D01*
X121098000Y-98544537D01*
X121026402Y-98616010D01*
X120923118Y-98864746D01*
X120922883Y-99134073D01*
X121025733Y-99382989D01*
X121216010Y-99573598D01*
X121464746Y-99676882D01*
X121734073Y-99677117D01*
X121982989Y-99574267D01*
X122173598Y-99383990D01*
X122276882Y-99135254D01*
X122277117Y-98865927D01*
X122174267Y-98617011D01*
X122102000Y-98544618D01*
X122102000Y-81974700D01*
X122063788Y-81782593D01*
X122063788Y-81782592D01*
X122005282Y-81695032D01*
X121954968Y-81619732D01*
X121954965Y-81619730D01*
X119930268Y-79595032D01*
X119767407Y-79486212D01*
X119616743Y-79456243D01*
X119608097Y-79410292D01*
X119525530Y-79281980D01*
X119399547Y-79195899D01*
X119250000Y-79165615D01*
X119027000Y-79165615D01*
X119027000Y-78682936D01*
X123516965Y-74192970D01*
X123516968Y-74192968D01*
X123584361Y-74092107D01*
X123625788Y-74030108D01*
X123664000Y-73838000D01*
X123664000Y-66282005D01*
X123664001Y-66282000D01*
X123625788Y-66089893D01*
X123516968Y-65927032D01*
X122661263Y-65071327D01*
X122751038Y-64620000D01*
X122657638Y-64150447D01*
X122503658Y-63920000D01*
X122831995Y-63920000D01*
X122832000Y-63920001D01*
X123024107Y-63881788D01*
X123186968Y-63772968D01*
X123387053Y-63572883D01*
X123707935Y-63252000D01*
X124998000Y-63252000D01*
X124998000Y-71942637D01*
X124998000Y-71942637D01*
G37*
X124998000Y-71942637D02*
X124997999Y-71942642D01*
X125036212Y-72134749D01*
X125145032Y-72297610D01*
X132345423Y-79498000D01*
X129205463Y-79498000D01*
X129133990Y-79426402D01*
X128885254Y-79323118D01*
X128615927Y-79322883D01*
X128367011Y-79425733D01*
X128176402Y-79616010D01*
X128073118Y-79864746D01*
X128072883Y-80134073D01*
X128175733Y-80382989D01*
X128366010Y-80573598D01*
X128614746Y-80676882D01*
X128884073Y-80677117D01*
X129132989Y-80574267D01*
X129205382Y-80502000D01*
X132467064Y-80502000D01*
X135649576Y-83684511D01*
X135610292Y-83691903D01*
X135481980Y-83774470D01*
X135395899Y-83900453D01*
X135365615Y-84050000D01*
X135365615Y-86950000D01*
X135391903Y-87089708D01*
X135474470Y-87218020D01*
X135600453Y-87304101D01*
X135750000Y-87334385D01*
X137034812Y-87334385D01*
X137061213Y-87467108D01*
X137170033Y-87629969D01*
X138645030Y-89104965D01*
X138645032Y-89104968D01*
X138807893Y-89213788D01*
X139000000Y-89252001D01*
X139000005Y-89252000D01*
X139816864Y-89252000D01*
X153644530Y-103079665D01*
X153644532Y-103079668D01*
X153742160Y-103144900D01*
X153807392Y-103188488D01*
X153999500Y-103226700D01*
X162466764Y-103226700D01*
X162615615Y-103375551D01*
X162615615Y-105773400D01*
X143733335Y-105773400D01*
X142104968Y-104145032D01*
X141942107Y-104036212D01*
X141750000Y-103997999D01*
X141749995Y-103998000D01*
X141604414Y-103998000D01*
X141634385Y-103850000D01*
X141634385Y-103050000D01*
X141608097Y-102910292D01*
X141525530Y-102781980D01*
X141399547Y-102695899D01*
X141250000Y-102665615D01*
X139800000Y-102665615D01*
X139660520Y-102691860D01*
X139574267Y-102483111D01*
X139462656Y-102371305D01*
X139469532Y-102371311D01*
X140341253Y-102011123D01*
X141008779Y-101344761D01*
X141370488Y-100473670D01*
X141371311Y-99530468D01*
X141011123Y-98658747D01*
X140344761Y-97991221D01*
X139473670Y-97629512D01*
X138530468Y-97628689D01*
X137658747Y-97988877D01*
X136991221Y-98655239D01*
X136629512Y-99526330D01*
X136628689Y-100469532D01*
X136988877Y-101341253D01*
X137655239Y-102008779D01*
X138526330Y-102370488D01*
X138538208Y-102370498D01*
X138426402Y-102482110D01*
X138338554Y-102693673D01*
X138200000Y-102665615D01*
X137965247Y-102665615D01*
X137938788Y-102532592D01*
X137840339Y-102385254D01*
X137829968Y-102369732D01*
X137829965Y-102369730D01*
X134596815Y-99136580D01*
X134891333Y-99248062D01*
X135598329Y-99226249D01*
X136150194Y-98997658D01*
X136266358Y-98715963D01*
X135190000Y-97639605D01*
X135175858Y-97653748D01*
X134996253Y-97474143D01*
X135010395Y-97460000D01*
X135369605Y-97460000D01*
X136445963Y-98536358D01*
X136727658Y-98420194D01*
X136978062Y-97758667D01*
X136956249Y-97051671D01*
X136727658Y-96499806D01*
X136445963Y-96383642D01*
X135369605Y-97460000D01*
X135010395Y-97460000D01*
X133934037Y-96383642D01*
X133652342Y-96499806D01*
X133401938Y-97161333D01*
X133423751Y-97868329D01*
X133491059Y-98030823D01*
X131664273Y-96204037D01*
X134113642Y-96204037D01*
X135190000Y-97280395D01*
X136266358Y-96204037D01*
X136150194Y-95922342D01*
X135488667Y-95671938D01*
X134781671Y-95693751D01*
X134229806Y-95922342D01*
X134113642Y-96204037D01*
X131664273Y-96204037D01*
X130681256Y-95221020D01*
X140019736Y-95221020D01*
X140250655Y-95779886D01*
X140677865Y-96207842D01*
X141236327Y-96439736D01*
X141841020Y-96440264D01*
X142399886Y-96209345D01*
X142827842Y-95782135D01*
X143059736Y-95223673D01*
X143060264Y-94618980D01*
X142829345Y-94060114D01*
X142402135Y-93632158D01*
X141843673Y-93400264D01*
X141238980Y-93399736D01*
X140680114Y-93630655D01*
X140252158Y-94057865D01*
X140020264Y-94616327D01*
X140019736Y-95221020D01*
X130681256Y-95221020D01*
X127684900Y-92224664D01*
X127684900Y-76568201D01*
X127849798Y-76403590D01*
X127953082Y-76154854D01*
X127953317Y-75885527D01*
X127850467Y-75636611D01*
X127660190Y-75446002D01*
X127411454Y-75342718D01*
X127142127Y-75342483D01*
X126893211Y-75445333D01*
X126702602Y-75635610D01*
X126599318Y-75884346D01*
X126599083Y-76153673D01*
X126680900Y-76351685D01*
X126680900Y-92432595D01*
X126680899Y-92432600D01*
X126719112Y-92624707D01*
X126827932Y-92787568D01*
X136712951Y-102672586D01*
X136610292Y-102691903D01*
X136481980Y-102774470D01*
X136395899Y-102900453D01*
X136365615Y-103050000D01*
X136365615Y-105773400D01*
X117233335Y-105773400D01*
X115997586Y-104537650D01*
X119930265Y-100604970D01*
X119930268Y-100604968D01*
X120039088Y-100442107D01*
X120077301Y-100250000D01*
X120077300Y-100249995D01*
X120077300Y-81161936D01*
X121098000Y-82182635D01*
X121098000Y-98544537D01*
X121026402Y-98616010D01*
X120923118Y-98864746D01*
X120922883Y-99134073D01*
X121025733Y-99382989D01*
X121216010Y-99573598D01*
X121464746Y-99676882D01*
X121734073Y-99677117D01*
X121982989Y-99574267D01*
X122173598Y-99383990D01*
X122276882Y-99135254D01*
X122277117Y-98865927D01*
X122174267Y-98617011D01*
X122102000Y-98544618D01*
X122102000Y-81974700D01*
X122063788Y-81782593D01*
X122063788Y-81782592D01*
X122005282Y-81695032D01*
X121954968Y-81619732D01*
X121954965Y-81619730D01*
X119930268Y-79595032D01*
X119767407Y-79486212D01*
X119616743Y-79456243D01*
X119608097Y-79410292D01*
X119525530Y-79281980D01*
X119399547Y-79195899D01*
X119250000Y-79165615D01*
X119027000Y-79165615D01*
X119027000Y-78682936D01*
X123516965Y-74192970D01*
X123516968Y-74192968D01*
X123584361Y-74092107D01*
X123625788Y-74030108D01*
X123664000Y-73838000D01*
X123664000Y-66282005D01*
X123664001Y-66282000D01*
X123625788Y-66089893D01*
X123516968Y-65927032D01*
X122661263Y-65071327D01*
X122751038Y-64620000D01*
X122657638Y-64150447D01*
X122503658Y-63920000D01*
X122831995Y-63920000D01*
X122832000Y-63920001D01*
X123024107Y-63881788D01*
X123186968Y-63772968D01*
X123387053Y-63572883D01*
X123707935Y-63252000D01*
X124998000Y-63252000D01*
X124998000Y-71942637D01*
G36*
X117524470Y-82718020D02*
X117650453Y-82804101D01*
X117800000Y-82834385D01*
X119073300Y-82834385D01*
X119073300Y-100042065D01*
X115384385Y-103730979D01*
X115384385Y-103325551D01*
X115782907Y-102927029D01*
X115884073Y-102927117D01*
X116132989Y-102824267D01*
X116323598Y-102633990D01*
X116426882Y-102385254D01*
X116427117Y-102115927D01*
X116324267Y-101867011D01*
X116133990Y-101676402D01*
X115885254Y-101573118D01*
X115615927Y-101572883D01*
X115367011Y-101675733D01*
X115176402Y-101866010D01*
X115073118Y-102114746D01*
X115073029Y-102217036D01*
X114624449Y-102665615D01*
X114174521Y-102665615D01*
X117212966Y-99627169D01*
X117212969Y-99627167D01*
X117321789Y-99464306D01*
X117337964Y-99382989D01*
X117360002Y-99272199D01*
X117360001Y-99272194D01*
X117360001Y-82874635D01*
X117521395Y-82713241D01*
X117524470Y-82718020D01*
X117524470Y-82718020D01*
G37*
X117524470Y-82718020D02*
X117650453Y-82804101D01*
X117800000Y-82834385D01*
X119073300Y-82834385D01*
X119073300Y-100042065D01*
X115384385Y-103730979D01*
X115384385Y-103325551D01*
X115782907Y-102927029D01*
X115884073Y-102927117D01*
X116132989Y-102824267D01*
X116323598Y-102633990D01*
X116426882Y-102385254D01*
X116427117Y-102115927D01*
X116324267Y-101867011D01*
X116133990Y-101676402D01*
X115885254Y-101573118D01*
X115615927Y-101572883D01*
X115367011Y-101675733D01*
X115176402Y-101866010D01*
X115073118Y-102114746D01*
X115073029Y-102217036D01*
X114624449Y-102665615D01*
X114174521Y-102665615D01*
X117212966Y-99627169D01*
X117212969Y-99627167D01*
X117321789Y-99464306D01*
X117337964Y-99382989D01*
X117360002Y-99272199D01*
X117360001Y-99272194D01*
X117360001Y-82874635D01*
X117521395Y-82713241D01*
X117524470Y-82718020D01*
G36*
X120998000Y-70827981D02*
X120998000Y-73792065D01*
X116636532Y-78153532D01*
X116527712Y-78316393D01*
X116489499Y-78508500D01*
X116489500Y-78508505D01*
X116489500Y-79303690D01*
X116475530Y-79281980D01*
X116349547Y-79195899D01*
X116200000Y-79165615D01*
X114750000Y-79165615D01*
X114610292Y-79191903D01*
X114481980Y-79274470D01*
X114395899Y-79400453D01*
X114365615Y-79550000D01*
X114365615Y-80498000D01*
X109177043Y-80498000D01*
X109157638Y-80400447D01*
X108891658Y-80002380D01*
X108493591Y-79736400D01*
X108024038Y-79643000D01*
X107975962Y-79643000D01*
X107506409Y-79736400D01*
X107108342Y-80002380D01*
X106842362Y-80400447D01*
X106748962Y-80870000D01*
X106842362Y-81339553D01*
X107108342Y-81737620D01*
X107506409Y-82003600D01*
X107975962Y-82097000D01*
X108024038Y-82097000D01*
X108493591Y-82003600D01*
X108891658Y-81737620D01*
X109049094Y-81502000D01*
X114365615Y-81502000D01*
X114365615Y-82450000D01*
X114391903Y-82589708D01*
X114474470Y-82718020D01*
X114600453Y-82804101D01*
X114750000Y-82834385D01*
X116200000Y-82834385D01*
X116339708Y-82808097D01*
X116356001Y-82797613D01*
X116356001Y-93736205D01*
X116252135Y-93632158D01*
X115693673Y-93400264D01*
X115088980Y-93399736D01*
X114530114Y-93630655D01*
X114102158Y-94057865D01*
X113870264Y-94616327D01*
X113869736Y-95221020D01*
X114100655Y-95779886D01*
X114527865Y-96207842D01*
X115086327Y-96439736D01*
X115691020Y-96440264D01*
X116249886Y-96209345D01*
X116356001Y-96103415D01*
X116356001Y-99064264D01*
X115220727Y-100199537D01*
X115221311Y-99530468D01*
X114861123Y-98658747D01*
X114194761Y-97991221D01*
X113323670Y-97629512D01*
X112380468Y-97628689D01*
X111508747Y-97988877D01*
X110841221Y-98655239D01*
X110479512Y-99526330D01*
X110478689Y-100469532D01*
X110838877Y-101341253D01*
X111505239Y-102008779D01*
X112376330Y-102370488D01*
X113049189Y-102371075D01*
X112395032Y-103025232D01*
X112334385Y-103115997D01*
X112334385Y-103050000D01*
X112308097Y-102910292D01*
X112225530Y-102781980D01*
X112099547Y-102695899D01*
X111950000Y-102665615D01*
X111715248Y-102665615D01*
X111688788Y-102532593D01*
X111589550Y-102384073D01*
X111579968Y-102369732D01*
X111579965Y-102369730D01*
X108285908Y-99075673D01*
X108741333Y-99248062D01*
X109448329Y-99226249D01*
X110000194Y-98997658D01*
X110116358Y-98715963D01*
X109040000Y-97639605D01*
X109025858Y-97653748D01*
X108846253Y-97474143D01*
X108860395Y-97460000D01*
X109219605Y-97460000D01*
X110295963Y-98536358D01*
X110577658Y-98420194D01*
X110828062Y-97758667D01*
X110806249Y-97051671D01*
X110577658Y-96499806D01*
X110295963Y-96383642D01*
X109219605Y-97460000D01*
X108860395Y-97460000D01*
X107784037Y-96383642D01*
X107502342Y-96499806D01*
X107251938Y-97161333D01*
X107273751Y-97868329D01*
X107411769Y-98201534D01*
X107002300Y-97792064D01*
X107002300Y-96204037D01*
X107963642Y-96204037D01*
X109040000Y-97280395D01*
X110116358Y-96204037D01*
X110000194Y-95922342D01*
X109338667Y-95671938D01*
X108631671Y-95693751D01*
X108079806Y-95922342D01*
X107963642Y-96204037D01*
X107002300Y-96204037D01*
X107002300Y-91738917D01*
X107108342Y-91897620D01*
X107506409Y-92163600D01*
X107975962Y-92257000D01*
X108024038Y-92257000D01*
X108493591Y-92163600D01*
X108891658Y-91897620D01*
X109157638Y-91499553D01*
X109251038Y-91030000D01*
X109157638Y-90560447D01*
X108891658Y-90162380D01*
X108493591Y-89896400D01*
X108024038Y-89803000D01*
X107975962Y-89803000D01*
X107506409Y-89896400D01*
X107108342Y-90162380D01*
X107002300Y-90321083D01*
X107002300Y-89198917D01*
X107108342Y-89357620D01*
X107506409Y-89623600D01*
X107975962Y-89717000D01*
X108024038Y-89717000D01*
X108493591Y-89623600D01*
X108891658Y-89357620D01*
X109157638Y-88959553D01*
X109251038Y-88490000D01*
X109157638Y-88020447D01*
X108891658Y-87622380D01*
X108493591Y-87356400D01*
X108024038Y-87263000D01*
X107975962Y-87263000D01*
X107506409Y-87356400D01*
X107108342Y-87622380D01*
X107002300Y-87781083D01*
X107002300Y-86658917D01*
X107108342Y-86817620D01*
X107506409Y-87083600D01*
X107975962Y-87177000D01*
X108024038Y-87177000D01*
X108493591Y-87083600D01*
X108891658Y-86817620D01*
X109157638Y-86419553D01*
X109251038Y-85950000D01*
X109157638Y-85480447D01*
X108891658Y-85082380D01*
X108493591Y-84816400D01*
X108024038Y-84723000D01*
X107975962Y-84723000D01*
X107506409Y-84816400D01*
X107108342Y-85082380D01*
X107002300Y-85241083D01*
X107002300Y-84118917D01*
X107108342Y-84277620D01*
X107506409Y-84543600D01*
X107975962Y-84637000D01*
X108024038Y-84637000D01*
X108493591Y-84543600D01*
X108891658Y-84277620D01*
X109157638Y-83879553D01*
X109251038Y-83410000D01*
X109157638Y-82940447D01*
X108891658Y-82542380D01*
X108493591Y-82276400D01*
X108024038Y-82183000D01*
X107975962Y-82183000D01*
X107506409Y-82276400D01*
X107108342Y-82542380D01*
X106947510Y-82783082D01*
X106869745Y-82666699D01*
X106855268Y-82645032D01*
X106855265Y-82645030D01*
X106752000Y-82541765D01*
X106752000Y-81250005D01*
X106752001Y-81250000D01*
X106713788Y-81057892D01*
X106604968Y-80895032D01*
X106602000Y-80892064D01*
X106602000Y-80607936D01*
X106604968Y-80604968D01*
X106713788Y-80442108D01*
X106752001Y-80250000D01*
X106752000Y-80249995D01*
X106752000Y-79000005D01*
X106752001Y-79000000D01*
X106713788Y-78807892D01*
X106604968Y-78645032D01*
X106602000Y-78642064D01*
X106602000Y-78357936D01*
X106604968Y-78354968D01*
X106713788Y-78192108D01*
X106752001Y-78000000D01*
X106752000Y-77999995D01*
X106752000Y-75805273D01*
X106842362Y-76259553D01*
X107108342Y-76657620D01*
X107506409Y-76923600D01*
X107975962Y-77017000D01*
X108024038Y-77017000D01*
X108493591Y-76923600D01*
X108891658Y-76657620D01*
X109157638Y-76259553D01*
X109251038Y-75790000D01*
X109157638Y-75320447D01*
X108891658Y-74922380D01*
X108493591Y-74656400D01*
X108024038Y-74563000D01*
X107975962Y-74563000D01*
X107506409Y-74656400D01*
X107108342Y-74922380D01*
X106842362Y-75320447D01*
X106752000Y-75774727D01*
X106752000Y-74107936D01*
X106765615Y-74094321D01*
X106765615Y-74100000D01*
X106791903Y-74239708D01*
X106874470Y-74368020D01*
X107000453Y-74454101D01*
X107150000Y-74484385D01*
X108850000Y-74484385D01*
X108989708Y-74458097D01*
X109118020Y-74375530D01*
X109204101Y-74249547D01*
X109234385Y-74100000D01*
X109234385Y-73752000D01*
X117288065Y-73752000D01*
X113212064Y-77828000D01*
X109135958Y-77828000D01*
X108891658Y-77462380D01*
X108493591Y-77196400D01*
X108024038Y-77103000D01*
X107975962Y-77103000D01*
X107506409Y-77196400D01*
X107108342Y-77462380D01*
X106842362Y-77860447D01*
X106748962Y-78330000D01*
X106842362Y-78799553D01*
X107108342Y-79197620D01*
X107506409Y-79463600D01*
X107975962Y-79557000D01*
X108024038Y-79557000D01*
X108493591Y-79463600D01*
X108891658Y-79197620D01*
X109135958Y-78832000D01*
X113419995Y-78832000D01*
X113420000Y-78832001D01*
X113612107Y-78793788D01*
X113774968Y-78684968D01*
X120673365Y-71786570D01*
X120673368Y-71786568D01*
X120782188Y-71623707D01*
X120820401Y-71431600D01*
X120820400Y-71431595D01*
X120820400Y-70709313D01*
X120998000Y-70827981D01*
X120998000Y-70827981D01*
G37*
X120998000Y-70827981D02*
X120998000Y-73792065D01*
X116636532Y-78153532D01*
X116527712Y-78316393D01*
X116489499Y-78508500D01*
X116489500Y-78508505D01*
X116489500Y-79303690D01*
X116475530Y-79281980D01*
X116349547Y-79195899D01*
X116200000Y-79165615D01*
X114750000Y-79165615D01*
X114610292Y-79191903D01*
X114481980Y-79274470D01*
X114395899Y-79400453D01*
X114365615Y-79550000D01*
X114365615Y-80498000D01*
X109177043Y-80498000D01*
X109157638Y-80400447D01*
X108891658Y-80002380D01*
X108493591Y-79736400D01*
X108024038Y-79643000D01*
X107975962Y-79643000D01*
X107506409Y-79736400D01*
X107108342Y-80002380D01*
X106842362Y-80400447D01*
X106748962Y-80870000D01*
X106842362Y-81339553D01*
X107108342Y-81737620D01*
X107506409Y-82003600D01*
X107975962Y-82097000D01*
X108024038Y-82097000D01*
X108493591Y-82003600D01*
X108891658Y-81737620D01*
X109049094Y-81502000D01*
X114365615Y-81502000D01*
X114365615Y-82450000D01*
X114391903Y-82589708D01*
X114474470Y-82718020D01*
X114600453Y-82804101D01*
X114750000Y-82834385D01*
X116200000Y-82834385D01*
X116339708Y-82808097D01*
X116356001Y-82797613D01*
X116356001Y-93736205D01*
X116252135Y-93632158D01*
X115693673Y-93400264D01*
X115088980Y-93399736D01*
X114530114Y-93630655D01*
X114102158Y-94057865D01*
X113870264Y-94616327D01*
X113869736Y-95221020D01*
X114100655Y-95779886D01*
X114527865Y-96207842D01*
X115086327Y-96439736D01*
X115691020Y-96440264D01*
X116249886Y-96209345D01*
X116356001Y-96103415D01*
X116356001Y-99064264D01*
X115220727Y-100199537D01*
X115221311Y-99530468D01*
X114861123Y-98658747D01*
X114194761Y-97991221D01*
X113323670Y-97629512D01*
X112380468Y-97628689D01*
X111508747Y-97988877D01*
X110841221Y-98655239D01*
X110479512Y-99526330D01*
X110478689Y-100469532D01*
X110838877Y-101341253D01*
X111505239Y-102008779D01*
X112376330Y-102370488D01*
X113049189Y-102371075D01*
X112395032Y-103025232D01*
X112334385Y-103115997D01*
X112334385Y-103050000D01*
X112308097Y-102910292D01*
X112225530Y-102781980D01*
X112099547Y-102695899D01*
X111950000Y-102665615D01*
X111715248Y-102665615D01*
X111688788Y-102532593D01*
X111589550Y-102384073D01*
X111579968Y-102369732D01*
X111579965Y-102369730D01*
X108285908Y-99075673D01*
X108741333Y-99248062D01*
X109448329Y-99226249D01*
X110000194Y-98997658D01*
X110116358Y-98715963D01*
X109040000Y-97639605D01*
X109025858Y-97653748D01*
X108846253Y-97474143D01*
X108860395Y-97460000D01*
X109219605Y-97460000D01*
X110295963Y-98536358D01*
X110577658Y-98420194D01*
X110828062Y-97758667D01*
X110806249Y-97051671D01*
X110577658Y-96499806D01*
X110295963Y-96383642D01*
X109219605Y-97460000D01*
X108860395Y-97460000D01*
X107784037Y-96383642D01*
X107502342Y-96499806D01*
X107251938Y-97161333D01*
X107273751Y-97868329D01*
X107411769Y-98201534D01*
X107002300Y-97792064D01*
X107002300Y-96204037D01*
X107963642Y-96204037D01*
X109040000Y-97280395D01*
X110116358Y-96204037D01*
X110000194Y-95922342D01*
X109338667Y-95671938D01*
X108631671Y-95693751D01*
X108079806Y-95922342D01*
X107963642Y-96204037D01*
X107002300Y-96204037D01*
X107002300Y-91738917D01*
X107108342Y-91897620D01*
X107506409Y-92163600D01*
X107975962Y-92257000D01*
X108024038Y-92257000D01*
X108493591Y-92163600D01*
X108891658Y-91897620D01*
X109157638Y-91499553D01*
X109251038Y-91030000D01*
X109157638Y-90560447D01*
X108891658Y-90162380D01*
X108493591Y-89896400D01*
X108024038Y-89803000D01*
X107975962Y-89803000D01*
X107506409Y-89896400D01*
X107108342Y-90162380D01*
X107002300Y-90321083D01*
X107002300Y-89198917D01*
X107108342Y-89357620D01*
X107506409Y-89623600D01*
X107975962Y-89717000D01*
X108024038Y-89717000D01*
X108493591Y-89623600D01*
X108891658Y-89357620D01*
X109157638Y-88959553D01*
X109251038Y-88490000D01*
X109157638Y-88020447D01*
X108891658Y-87622380D01*
X108493591Y-87356400D01*
X108024038Y-87263000D01*
X107975962Y-87263000D01*
X107506409Y-87356400D01*
X107108342Y-87622380D01*
X107002300Y-87781083D01*
X107002300Y-86658917D01*
X107108342Y-86817620D01*
X107506409Y-87083600D01*
X107975962Y-87177000D01*
X108024038Y-87177000D01*
X108493591Y-87083600D01*
X108891658Y-86817620D01*
X109157638Y-86419553D01*
X109251038Y-85950000D01*
X109157638Y-85480447D01*
X108891658Y-85082380D01*
X108493591Y-84816400D01*
X108024038Y-84723000D01*
X107975962Y-84723000D01*
X107506409Y-84816400D01*
X107108342Y-85082380D01*
X107002300Y-85241083D01*
X107002300Y-84118917D01*
X107108342Y-84277620D01*
X107506409Y-84543600D01*
X107975962Y-84637000D01*
X108024038Y-84637000D01*
X108493591Y-84543600D01*
X108891658Y-84277620D01*
X109157638Y-83879553D01*
X109251038Y-83410000D01*
X109157638Y-82940447D01*
X108891658Y-82542380D01*
X108493591Y-82276400D01*
X108024038Y-82183000D01*
X107975962Y-82183000D01*
X107506409Y-82276400D01*
X107108342Y-82542380D01*
X106947510Y-82783082D01*
X106869745Y-82666699D01*
X106855268Y-82645032D01*
X106855265Y-82645030D01*
X106752000Y-82541765D01*
X106752000Y-81250005D01*
X106752001Y-81250000D01*
X106713788Y-81057892D01*
X106604968Y-80895032D01*
X106602000Y-80892064D01*
X106602000Y-80607936D01*
X106604968Y-80604968D01*
X106713788Y-80442108D01*
X106752001Y-80250000D01*
X106752000Y-80249995D01*
X106752000Y-79000005D01*
X106752001Y-79000000D01*
X106713788Y-78807892D01*
X106604968Y-78645032D01*
X106602000Y-78642064D01*
X106602000Y-78357936D01*
X106604968Y-78354968D01*
X106713788Y-78192108D01*
X106752001Y-78000000D01*
X106752000Y-77999995D01*
X106752000Y-75805273D01*
X106842362Y-76259553D01*
X107108342Y-76657620D01*
X107506409Y-76923600D01*
X107975962Y-77017000D01*
X108024038Y-77017000D01*
X108493591Y-76923600D01*
X108891658Y-76657620D01*
X109157638Y-76259553D01*
X109251038Y-75790000D01*
X109157638Y-75320447D01*
X108891658Y-74922380D01*
X108493591Y-74656400D01*
X108024038Y-74563000D01*
X107975962Y-74563000D01*
X107506409Y-74656400D01*
X107108342Y-74922380D01*
X106842362Y-75320447D01*
X106752000Y-75774727D01*
X106752000Y-74107936D01*
X106765615Y-74094321D01*
X106765615Y-74100000D01*
X106791903Y-74239708D01*
X106874470Y-74368020D01*
X107000453Y-74454101D01*
X107150000Y-74484385D01*
X108850000Y-74484385D01*
X108989708Y-74458097D01*
X109118020Y-74375530D01*
X109204101Y-74249547D01*
X109234385Y-74100000D01*
X109234385Y-73752000D01*
X117288065Y-73752000D01*
X113212064Y-77828000D01*
X109135958Y-77828000D01*
X108891658Y-77462380D01*
X108493591Y-77196400D01*
X108024038Y-77103000D01*
X107975962Y-77103000D01*
X107506409Y-77196400D01*
X107108342Y-77462380D01*
X106842362Y-77860447D01*
X106748962Y-78330000D01*
X106842362Y-78799553D01*
X107108342Y-79197620D01*
X107506409Y-79463600D01*
X107975962Y-79557000D01*
X108024038Y-79557000D01*
X108493591Y-79463600D01*
X108891658Y-79197620D01*
X109135958Y-78832000D01*
X113419995Y-78832000D01*
X113420000Y-78832001D01*
X113612107Y-78793788D01*
X113774968Y-78684968D01*
X120673365Y-71786570D01*
X120673368Y-71786568D01*
X120782188Y-71623707D01*
X120820401Y-71431600D01*
X120820400Y-71431595D01*
X120820400Y-70709313D01*
X120998000Y-70827981D01*
G36*
X142498000Y-67606436D02*
X142498000Y-82792064D01*
X141337900Y-83952164D01*
X141337900Y-78296000D01*
X141299688Y-78103893D01*
X141299688Y-78103892D01*
X141256100Y-78038660D01*
X141190868Y-77941032D01*
X141190865Y-77941030D01*
X140689967Y-77440132D01*
X140841020Y-77440264D01*
X141399886Y-77209345D01*
X141827842Y-76782135D01*
X142059736Y-76223673D01*
X142060264Y-75618980D01*
X141829345Y-75060114D01*
X141402135Y-74632158D01*
X140843673Y-74400264D01*
X140238980Y-74399736D01*
X139805323Y-74578919D01*
X139761067Y-74471811D01*
X139570790Y-74281202D01*
X139322054Y-74177918D01*
X139052727Y-74177683D01*
X138851300Y-74260911D01*
X138851300Y-68334385D01*
X140250000Y-68334385D01*
X140389708Y-68308097D01*
X140518020Y-68225530D01*
X140604101Y-68099547D01*
X140634385Y-67950000D01*
X140634385Y-67150000D01*
X140608097Y-67010292D01*
X140602761Y-67002000D01*
X141893564Y-67002000D01*
X142498000Y-67606436D01*
X142498000Y-67606436D01*
G37*
X142498000Y-67606436D02*
X142498000Y-82792064D01*
X141337900Y-83952164D01*
X141337900Y-78296000D01*
X141299688Y-78103893D01*
X141299688Y-78103892D01*
X141256100Y-78038660D01*
X141190868Y-77941032D01*
X141190865Y-77941030D01*
X140689967Y-77440132D01*
X140841020Y-77440264D01*
X141399886Y-77209345D01*
X141827842Y-76782135D01*
X142059736Y-76223673D01*
X142060264Y-75618980D01*
X141829345Y-75060114D01*
X141402135Y-74632158D01*
X140843673Y-74400264D01*
X140238980Y-74399736D01*
X139805323Y-74578919D01*
X139761067Y-74471811D01*
X139570790Y-74281202D01*
X139322054Y-74177918D01*
X139052727Y-74177683D01*
X138851300Y-74260911D01*
X138851300Y-68334385D01*
X140250000Y-68334385D01*
X140389708Y-68308097D01*
X140518020Y-68225530D01*
X140604101Y-68099547D01*
X140634385Y-67950000D01*
X140634385Y-67150000D01*
X140608097Y-67010292D01*
X140602761Y-67002000D01*
X141893564Y-67002000D01*
X142498000Y-67606436D01*
G36*
X134320030Y-63354965D02*
X134320032Y-63354968D01*
X135649576Y-64684511D01*
X135610292Y-64691903D01*
X135481980Y-64774470D01*
X135395899Y-64900453D01*
X135365615Y-65050000D01*
X135365615Y-67773400D01*
X131618635Y-67773400D01*
X128062329Y-64217093D01*
X128062417Y-64115927D01*
X127959567Y-63867011D01*
X127769290Y-63676402D01*
X127520554Y-63573118D01*
X127251227Y-63572883D01*
X127002311Y-63675733D01*
X126811702Y-63866010D01*
X126708418Y-64114746D01*
X126708183Y-64384073D01*
X126811033Y-64632989D01*
X127001310Y-64823598D01*
X127250046Y-64926882D01*
X127352335Y-64926971D01*
X131055730Y-68630365D01*
X131055732Y-68630368D01*
X131153360Y-68695600D01*
X131218592Y-68739188D01*
X131410700Y-68777400D01*
X137847300Y-68777400D01*
X137847300Y-76779195D01*
X137847299Y-76779200D01*
X137885512Y-76971307D01*
X137994332Y-77134168D01*
X139836400Y-78976235D01*
X139836400Y-79483719D01*
X139344761Y-78991221D01*
X138473670Y-78629512D01*
X137530468Y-78628689D01*
X136658747Y-78988877D01*
X135991221Y-79655239D01*
X135629512Y-80526330D01*
X135628783Y-81361490D01*
X134247344Y-79980051D01*
X134491020Y-79980264D01*
X135049886Y-79749345D01*
X135477842Y-79322135D01*
X135709736Y-78763673D01*
X135710264Y-78158980D01*
X135479345Y-77600114D01*
X135052135Y-77172158D01*
X134493673Y-76940264D01*
X133888980Y-76939736D01*
X133330114Y-77170655D01*
X132902158Y-77597865D01*
X132670264Y-78156327D01*
X132670049Y-78402755D01*
X126002000Y-71734706D01*
X126002000Y-63252000D01*
X134217065Y-63252000D01*
X134320030Y-63354965D01*
X134320030Y-63354965D01*
G37*
X134320030Y-63354965D02*
X134320032Y-63354968D01*
X135649576Y-64684511D01*
X135610292Y-64691903D01*
X135481980Y-64774470D01*
X135395899Y-64900453D01*
X135365615Y-65050000D01*
X135365615Y-67773400D01*
X131618635Y-67773400D01*
X128062329Y-64217093D01*
X128062417Y-64115927D01*
X127959567Y-63867011D01*
X127769290Y-63676402D01*
X127520554Y-63573118D01*
X127251227Y-63572883D01*
X127002311Y-63675733D01*
X126811702Y-63866010D01*
X126708418Y-64114746D01*
X126708183Y-64384073D01*
X126811033Y-64632989D01*
X127001310Y-64823598D01*
X127250046Y-64926882D01*
X127352335Y-64926971D01*
X131055730Y-68630365D01*
X131055732Y-68630368D01*
X131153360Y-68695600D01*
X131218592Y-68739188D01*
X131410700Y-68777400D01*
X137847300Y-68777400D01*
X137847300Y-76779195D01*
X137847299Y-76779200D01*
X137885512Y-76971307D01*
X137994332Y-77134168D01*
X139836400Y-78976235D01*
X139836400Y-79483719D01*
X139344761Y-78991221D01*
X138473670Y-78629512D01*
X137530468Y-78628689D01*
X136658747Y-78988877D01*
X135991221Y-79655239D01*
X135629512Y-80526330D01*
X135628783Y-81361490D01*
X134247344Y-79980051D01*
X134491020Y-79980264D01*
X135049886Y-79749345D01*
X135477842Y-79322135D01*
X135709736Y-78763673D01*
X135710264Y-78158980D01*
X135479345Y-77600114D01*
X135052135Y-77172158D01*
X134493673Y-76940264D01*
X133888980Y-76939736D01*
X133330114Y-77170655D01*
X132902158Y-77597865D01*
X132670264Y-78156327D01*
X132670049Y-78402755D01*
X126002000Y-71734706D01*
X126002000Y-63252000D01*
X134217065Y-63252000D01*
X134320030Y-63354965D01*
G36*
X144865615Y-48950000D02*
X144891903Y-49089708D01*
X144974470Y-49218020D01*
X145100453Y-49304101D01*
X145213393Y-49326972D01*
X144569732Y-49970632D01*
X144460912Y-50133493D01*
X144422699Y-50325600D01*
X144422700Y-50325605D01*
X144422700Y-57169965D01*
X142269693Y-59322971D01*
X142168527Y-59322883D01*
X141919611Y-59425733D01*
X141729002Y-59616010D01*
X141625718Y-59864746D01*
X141625483Y-60134073D01*
X141728333Y-60382989D01*
X141918610Y-60573598D01*
X142167346Y-60676882D01*
X142436673Y-60677117D01*
X142685589Y-60574267D01*
X142876198Y-60383990D01*
X142979482Y-60135254D01*
X142979571Y-60032965D01*
X145279665Y-57732870D01*
X145279668Y-57732868D01*
X145368974Y-57599212D01*
X145388488Y-57570008D01*
X145426700Y-57377900D01*
X145426700Y-50533536D01*
X146329965Y-49630270D01*
X146329968Y-49630268D01*
X146438788Y-49467407D01*
X146458157Y-49370032D01*
X146465248Y-49334385D01*
X146700000Y-49334385D01*
X146839708Y-49308097D01*
X146968020Y-49225530D01*
X147054101Y-49099547D01*
X147084385Y-48950000D01*
X147084385Y-46269621D01*
X147619730Y-46804965D01*
X147619732Y-46804968D01*
X147731979Y-46879969D01*
X147782593Y-46913788D01*
X147933257Y-46943757D01*
X147941903Y-46989708D01*
X147950355Y-47002842D01*
X147782593Y-47036212D01*
X147619732Y-47145032D01*
X147510912Y-47307893D01*
X147472700Y-47500000D01*
X147472700Y-49165995D01*
X147472699Y-49166000D01*
X147510912Y-49358107D01*
X147619732Y-49520968D01*
X148076429Y-49977665D01*
X147825050Y-49873283D01*
X147177789Y-49872718D01*
X146579582Y-50119892D01*
X146121501Y-50577175D01*
X145873283Y-51174950D01*
X145872718Y-51822211D01*
X146119892Y-52420418D01*
X146577175Y-52878499D01*
X147174950Y-53126717D01*
X147822211Y-53127282D01*
X148420418Y-52880108D01*
X148599500Y-52701338D01*
X148599500Y-59292064D01*
X148126770Y-59764794D01*
X148127282Y-59177789D01*
X147880108Y-58579582D01*
X147422825Y-58121501D01*
X146825050Y-57873283D01*
X146177789Y-57872718D01*
X145579582Y-58119892D01*
X145121501Y-58577175D01*
X144873283Y-59174950D01*
X144872718Y-59822211D01*
X145119892Y-60420418D01*
X145577175Y-60878499D01*
X146174950Y-61126717D01*
X146764333Y-61127231D01*
X141893564Y-65998000D01*
X141709389Y-65998000D01*
X141823598Y-65883990D01*
X141926882Y-65635254D01*
X141927117Y-65365927D01*
X141824267Y-65117011D01*
X141752000Y-65044618D01*
X141752000Y-61087000D01*
X141713788Y-60894893D01*
X141713788Y-60894892D01*
X141670200Y-60829660D01*
X141604968Y-60732032D01*
X141604965Y-60732030D01*
X141165000Y-60292064D01*
X141165000Y-59961336D01*
X142708365Y-58417970D01*
X142708368Y-58417968D01*
X142817188Y-58255107D01*
X142826539Y-58208097D01*
X142855401Y-58063000D01*
X142855400Y-58062995D01*
X142855400Y-46686136D01*
X143314935Y-46226600D01*
X144865615Y-46226600D01*
X144865615Y-48950000D01*
X144865615Y-48950000D01*
G37*
X144865615Y-48950000D02*
X144891903Y-49089708D01*
X144974470Y-49218020D01*
X145100453Y-49304101D01*
X145213393Y-49326972D01*
X144569732Y-49970632D01*
X144460912Y-50133493D01*
X144422699Y-50325600D01*
X144422700Y-50325605D01*
X144422700Y-57169965D01*
X142269693Y-59322971D01*
X142168527Y-59322883D01*
X141919611Y-59425733D01*
X141729002Y-59616010D01*
X141625718Y-59864746D01*
X141625483Y-60134073D01*
X141728333Y-60382989D01*
X141918610Y-60573598D01*
X142167346Y-60676882D01*
X142436673Y-60677117D01*
X142685589Y-60574267D01*
X142876198Y-60383990D01*
X142979482Y-60135254D01*
X142979571Y-60032965D01*
X145279665Y-57732870D01*
X145279668Y-57732868D01*
X145368974Y-57599212D01*
X145388488Y-57570008D01*
X145426700Y-57377900D01*
X145426700Y-50533536D01*
X146329965Y-49630270D01*
X146329968Y-49630268D01*
X146438788Y-49467407D01*
X146458157Y-49370032D01*
X146465248Y-49334385D01*
X146700000Y-49334385D01*
X146839708Y-49308097D01*
X146968020Y-49225530D01*
X147054101Y-49099547D01*
X147084385Y-48950000D01*
X147084385Y-46269621D01*
X147619730Y-46804965D01*
X147619732Y-46804968D01*
X147731979Y-46879969D01*
X147782593Y-46913788D01*
X147933257Y-46943757D01*
X147941903Y-46989708D01*
X147950355Y-47002842D01*
X147782593Y-47036212D01*
X147619732Y-47145032D01*
X147510912Y-47307893D01*
X147472700Y-47500000D01*
X147472700Y-49165995D01*
X147472699Y-49166000D01*
X147510912Y-49358107D01*
X147619732Y-49520968D01*
X148076429Y-49977665D01*
X147825050Y-49873283D01*
X147177789Y-49872718D01*
X146579582Y-50119892D01*
X146121501Y-50577175D01*
X145873283Y-51174950D01*
X145872718Y-51822211D01*
X146119892Y-52420418D01*
X146577175Y-52878499D01*
X147174950Y-53126717D01*
X147822211Y-53127282D01*
X148420418Y-52880108D01*
X148599500Y-52701338D01*
X148599500Y-59292064D01*
X148126770Y-59764794D01*
X148127282Y-59177789D01*
X147880108Y-58579582D01*
X147422825Y-58121501D01*
X146825050Y-57873283D01*
X146177789Y-57872718D01*
X145579582Y-58119892D01*
X145121501Y-58577175D01*
X144873283Y-59174950D01*
X144872718Y-59822211D01*
X145119892Y-60420418D01*
X145577175Y-60878499D01*
X146174950Y-61126717D01*
X146764333Y-61127231D01*
X141893564Y-65998000D01*
X141709389Y-65998000D01*
X141823598Y-65883990D01*
X141926882Y-65635254D01*
X141927117Y-65365927D01*
X141824267Y-65117011D01*
X141752000Y-65044618D01*
X141752000Y-61087000D01*
X141713788Y-60894893D01*
X141713788Y-60894892D01*
X141670200Y-60829660D01*
X141604968Y-60732032D01*
X141604965Y-60732030D01*
X141165000Y-60292064D01*
X141165000Y-59961336D01*
X142708365Y-58417970D01*
X142708368Y-58417968D01*
X142817188Y-58255107D01*
X142826539Y-58208097D01*
X142855401Y-58063000D01*
X142855400Y-58062995D01*
X142855400Y-46686136D01*
X143314935Y-46226600D01*
X144865615Y-46226600D01*
X144865615Y-48950000D01*
M02*
